<ttFont>
<head>
    <!-- Most of this table will be recalculated by the compiler -->
    <tableVersion value="1.0"/>
    <fontRevision value="1.002"/>
    <checkSumAdjustment value="0xb3653a35"/>
    <magicNumber value="0x5f0f3cf5"/>
    <flags value="00000000 00000011"/>
    <unitsPerEm value="1000"/>
    <created value="Wed Aug  3 19:39:22 2022"/>
    <modified value="Wed Aug  3 19:50:44 2022"/>
    <xMin value="-174"/>
    <yMin value="-253"/>
    <xMax value="1436"/>
    <yMax value="911"/>
    <macStyle value="00000000 00000011"/>
    <lowestRecPPEM value="8"/>
    <fontDirectionHint value="2"/>
    <indexToLocFormat value="0"/>
    <glyphDataFormat value="0"/>
  </head>
        <CharString name=".notdef">
          67 0 21 659 20 hstem
          129 21 386 20 vstem
          129 hmoveto
          427 700 -427 hlineto
          29 -679 rmoveto
          185 308 185 -308 rlineto
          -378 28 rmoveto
          601 vlineto
          180 -300 rlineto
          206 -303 rmoveto
          -181 303 181 302 rlineto
          -194 -281 rmoveto
          -185 309 rlineto
          371 hlineto
          endchar
        </CharString>
        <CharString name=".notdef#1">
          0 50 433 50 hstem
          50 50 614 50 vstem
          50 hmoveto
          714 533 -714 hlineto
          50 -483 rmoveto
          433 614 -433 vlineto
          endchar
        </CharString>
        <CharString name="A">
          89 21 -21 119 128 421 -20 hstem
          -65 688 vstem
          -65 hmoveto
          186 hlineto
          66 119 rlineto
          255 hlineto
          16 -119 rlineto
          165 hlineto
          -111 668 rlineto
          -183 hlineto
          66 -167 rmoveto
          32 -254 rlineto
          -172 hlineto
          endchar
        </CharString>
        <CharString name="AE">
          421 0 139 -20 128 28 138 116 139 hstemhm
          -65 1136 hintmask 10111000
          -65 hmoveto
          201 hlineto
          hintmask 01111000
          105 119 rlineto
          196 hlineto
          hintmask 10111000
          -26 -119 rlineto
          518 hlineto
          30 139 rlineto
          -357 hlineto
          29 136 rlineto
          218 hlineto
          30 138 rlineto
          -219 hlineto
          25 116 rlineto
          357 hlineto
          29 139 rlineto
          -518 hlineto
          -52 -247 rmoveto
          hintmask 01111000
          -37 -174 rlineto
          -110 hlineto
          endchar
        </CharString>
        <CharString name="Aacute">
          89 21 -21 119 128 421 -20 83 153 hstem
          -65 688 vstem
          -65 hmoveto
          186 hlineto
          66 119 rlineto
          255 hlineto
          16 -119 rlineto
          165 hlineto
          -111 668 rlineto
          -183 hlineto
          66 -167 rmoveto
          32 -254 rlineto
          -172 hlineto
          230 484 rmoveto
          0 86 49 5 5 vhcurveto
          24 20 3 34 -19 24 rrcurveto
          14 -10 -17 7 -17 hhcurveto
          -12 -13 -4 -8 -10 hvcurveto
          -1 -1 -142 -140 0 vvcurveto
          endchar
        </CharString>
        <CharString name="Abreve">
          89 21 -21 119 128 421 -20 91 111 hstem
          -65 688 vstem
          121 hmoveto
          66 119 rlineto
          255 hlineto
          16 -119 rlineto
          165 hlineto
          -111 668 rlineto
          -183 hlineto
          -394 -668 rlineto
          363 850 rmoveto
          -65 7 56 -46 79 hhcurveto
          82 56 49 62 19 hvcurveto
          -94 hlineto
          -22 -8 -23 -15 -28 hhcurveto
          -26 -22 15 22 -5 hvcurveto
          -136 -603 rmoveto
          140 254 32 -254 rlineto
          endchar
        </CharString>
        <CharString name="Acircumflex">
          89 21 -21 119 128 421 -20 83 152 hstem
          -65 695 vstem
          121 hmoveto
          66 119 rlineto
          255 hlineto
          16 -119 rlineto
          165 hlineto
          -111 668 rlineto
          -183 hlineto
          -394 -668 rlineto
          289 731 rmoveto
          147 hlineto
          84 61 59 -61 rlineto
          116 hlineto
          -118 127 rlineto
          17 -15 -20 8 -20 hhcurveto
          -16 -15 -5 -10 -13 hvcurveto
          -158 -621 rmoveto
          140 254 32 -254 rlineto
          endchar
        </CharString>
        <CharString name="Adieresis">
          89 21 -21 119 128 421 -20 78 141 hstem
          278 141 53 140 vstem
          -65 hmoveto
          186 hlineto
          66 119 rlineto
          255 hlineto
          16 -119 rlineto
          165 hlineto
          -111 668 rlineto
          -183 hlineto
          66 -167 rmoveto
          32 -254 rlineto
          -172 hlineto
          23 549 rmoveto
          -39 32 -31 39 39 31 31 39 39 -31 32 -39 -39 -32 -32 -39 vhcurveto
          265 -70 rmoveto
          38 31 31 39 39 -31 32 -38 -39 -32 -32 -39 -39 32 -31 39 hvcurveto
          endchar
        </CharString>
        <CharString name="Agrave">
          89 21 -21 119 128 421 -20 83 153 hstem
          -65 688 vstem
          121 hmoveto
          66 119 rlineto
          255 hlineto
          16 -119 rlineto
          165 hlineto
          -111 668 rlineto
          -183 hlineto
          -394 -668 rlineto
          320 247 rmoveto
          140 254 32 -254 rlineto
          -102 546 rmoveto
          16 -21 50 -41 0 vvcurveto
          108 hlineto
          0 -62 101 -26 31 vhcurveto
          14 -11 -16 7 -17 hhcurveto
          -12 -13 -4 -8 -10 hvcurveto
          -24 -19 -2 -36 19 -24 rrcurveto
          endchar
        </CharString>
        <CharString name="Amacron">
          89 21 -21 119 128 421 -20 98 98 hstem
          -65 688 vstem
          -65 hmoveto
          186 hlineto
          66 119 rlineto
          255 hlineto
          16 -119 rlineto
          165 hlineto
          -111 668 rlineto
          -183 hlineto
          -44 78 rmoveto
          299 hlineto
          21 98 rlineto
          -299 hlineto
          -51 -597 rmoveto
          140 254 32 -254 rlineto
          endchar
        </CharString>
        <CharString name="Aogonek">
          89 -174 76 119 -21 119 128 421 -20 hstem
          -65 688 vstem
          121 hmoveto
          66 119 rlineto
          255 hlineto
          16 -119 rlineto
          24 hlineto
          -42 -12 -46 -27 -10 -46 rrcurveto
          -38 -8 23 -51 108 hhcurveto
          25 40 5 5 16 hvcurveto
          16 75 rlineto
          -2 -8 -23 -7 -20 hhcurveto
          -22 -23 6 24 6 hvcurveto
          7 34 62 29 40 5 -111 668 rcurveline
          -183 hlineto
          -394 -668 rlineto
          460 501 rmoveto
          32 -254 rlineto
          -172 hlineto
          endchar
        </CharString>
        <CharString name="Aring">
          89 21 -21 119 128 529 85 hstem
          301 85 94 86 vstem
          -65 hmoveto
          186 hlineto
          66 119 rlineto
          255 hlineto
          16 -119 rlineto
          165 hlineto
          -104 628 rlineto
          29 24 18 37 40 vvcurveto
          73 -60 59 -73 -73 -59 -59 -73 -27 8 -24 13 -21 vhcurveto
          73 -156 rmoveto
          32 -254 rlineto
          -172 hlineto
          131 482 rmoveto
          26 21 21 26 26 21 -21 -26 -26 -21 -21 -26 -26 -21 21 26 vhcurveto
          endchar
        </CharString>
        <CharString name="Atilde">
          89 21 -21 119 128 421 -20 77 80 -41 82 hstemhm
          -65 694 hintmask 11101100
          121 hmoveto
          66 119 rlineto
          255 hlineto
          16 -119 rlineto
          165 hlineto
          -111 668 rlineto
          -183 hlineto
          -394 -668 rlineto
          381 731 rmoveto
          23 14 15 10 22 hhcurveto
          hintmask 11110100
          51 14 -36 -3 68 hvcurveto
          70 -3 35 37 15 21 26 36 -32 40 -35 -11 rrcurveto
          -9 -31 -3 -31 -43 hhcurveto
          hintmask 11101100
          -40 -20 41 -79 hhcurveto
          -67 -51 -57 -58 -18 hvcurveto
          168 -230 rmoveto
          32 -254 rlineto
          -172 hlineto
          endchar
        </CharString>
        <CharString name="B">
          47 0 131 151 122 135 129 hstem
          -23 656 vstem
          283 hmoveto
          180 113 73 112 20 hvcurveto
          16 92 -32 52 -57 26 61 28 39 50 8 62 rrcurveto
          139 18 -109 34 -127 hhcurveto
          -294 hlineto
          -142 -668 rlineto
          221 282 rmoveto
          141 hlineto
          67 35 -28 -47 -10 hvcurveto
          -44 -9 -45 -32 -64 hhcurveto
          -147 hlineto
          58 273 rmoveto
          29 135 rlineto
          138 hlineto
          55 23 -27 -40 -6 hvcurveto
          -42 -6 -40 -26 -54 hhcurveto
          endchar
        </CharString>
        <CharString name="C">
          77 -12 132 430 130 hstem
          32 168 vstem
          302 -12 rmoveto
          146 -6 104 59 64 100 -136 53 rcurveline
          -56 -43 -49 -18 -50 hhcurveto
          -93 1 -61 71 20 142 rrcurveto
          140 21 83 76 93 hhcurveto
          54 46 -18 -56 24 hvcurveto
          146 49 rlineto
          116 -38 -112 39 -104 hhcurveto
          -194 -151 -117 -229 -35 hvcurveto
          -33 -223 124 -116 174 -7 rrcurveto
          endchar
        </CharString>
        <CharString name="Cacute">
          77 -12 132 430 130 hstem
          32 168 vstem
          302 -12 rmoveto
          146 -6 104 59 64 100 -136 53 rcurveline
          -56 -43 -49 -18 -50 hhcurveto
          -93 1 -61 71 20 142 rrcurveto
          140 21 83 76 93 hhcurveto
          54 46 -18 -56 24 hvcurveto
          146 49 rlineto
          116 -38 -112 39 -104 hhcurveto
          -194 -151 -117 -229 -35 hvcurveto
          -33 -223 124 -116 174 -7 rrcurveto
          88 743 rmoveto
          123 hlineto
          0 86 49 5 5 vhcurveto
          24 20 3 34 -19 24 rrcurveto
          14 -10 -17 7 -17 hhcurveto
          -12 -13 -4 -8 -10 hvcurveto
          -1 -1 -142 -140 0 vvcurveto
          endchar
        </CharString>
        <CharString name="Ccaron">
          77 -12 132 430 130 45 152 hstem
          32 168 vstem
          302 -12 rmoveto
          146 -6 104 59 64 100 -136 53 rcurveline
          -56 -43 -49 -18 -50 hhcurveto
          -93 1 -61 71 20 142 rrcurveto
          140 21 83 76 93 hhcurveto
          54 46 -18 -56 24 hvcurveto
          146 49 rlineto
          116 -38 -112 39 -104 hhcurveto
          -194 -151 -117 -229 -35 hvcurveto
          -33 -223 124 -116 174 -7 rrcurveto
          -13 889 rmoveto
          114 -127 rlineto
          -16 14 20 -9 20 hhcurveto
          16 15 5 10 13 hvcurveto
          190 137 rlineto
          -147 hlineto
          -84 -61 -56 61 rlineto
          endchar
        </CharString>
        <CharString name="Ccedilla">
          77 -195 54 57 40 32 132 -98 -21 549 130 hstemhm
          32 168 -40 91 hintmask 11101100
          302 -12 rmoveto
          146 -6 104 59 64 100 -136 53 rcurveline
          -56 -43 -49 -18 -50 hhcurveto
          -93 1 -61 71 20 142 rrcurveto
          140 21 83 76 93 hhcurveto
          54 46 -18 -56 24 hvcurveto
          146 49 rlineto
          116 -38 -112 39 -104 hhcurveto
          -194 -151 -117 -229 -35 hvcurveto
          -33 -223 124 -116 174 -7 rrcurveto
          hintmask 11011010
          -51 -100 rmoveto
          5 53 -53 23 -59 -11 40 48 rcurveline
          -36 25 -69 -83 -14 -17 15 -19 17 5 rlinecurve
          2 8 8 2 8 hhcurveto
          23 18 -11 -16 -2 hvcurveto
          -21 -2 -23 -9 -27 hhcurveto
          -20 -22 5 8 -18 hvcurveto
          -26 -50 rlineto
          -8 17 38 -9 41 hhcurveto
          60 66 19 64 7 hvcurveto
          endchar
        </CharString>
        <CharString name="Cdotaccent">
          77 -12 132 430 130 46 141 hstem
          32 168 188 141 vstem
          302 -12 rmoveto
          146 -6 104 59 64 100 -136 53 rcurveline
          -56 -43 -49 -18 -50 hhcurveto
          -93 1 -61 71 20 142 rrcurveto
          140 21 83 76 93 hhcurveto
          54 46 -18 -56 24 hvcurveto
          146 49 rlineto
          116 -38 -112 39 -104 hhcurveto
          -194 -151 -117 -229 -35 hvcurveto
          -33 -223 124 -116 174 -7 rrcurveto
          86 808 rmoveto
          -39 32 -31 39 39 31 31 39 39 -31 32 -39 -39 -32 -32 -39 vhcurveto
          endchar
        </CharString>
        <CharString name="D">
          81 0 133 404 131 hstem
          491 168 vstem
          -23 hmoveto
          223 hlineto
          197 211 74 238 43 hvcurveto
          215 39 -107 141 -270 hhcurveto
          -194 hlineto
          134 -131 rmoveto
          58 hlineto
          160 31 -61 -121 -14 hvcurveto
          -129 -15 -81 -93 -162 hhcurveto
          -63 hlineto
          endchar
        </CharString>
        <CharString name="Dcaron">
          81 0 133 404 131 57 152 hstem
          491 168 vstem
          200 hmoveto
          197 211 74 238 43 hvcurveto
          215 39 -107 141 -270 hhcurveto
          -194 hlineto
          -142 -668 rlineto
          276 537 rmoveto
          58 hlineto
          160 31 -61 -121 -14 hvcurveto
          -129 -15 -81 -93 -162 hhcurveto
          -63 hlineto
          86 744 rmoveto
          114 -127 rlineto
          -16 14 20 -9 20 hhcurveto
          16 15 5 10 13 hvcurveto
          190 137 rlineto
          -147 hlineto
          -84 -61 -56 61 rlineto
          endchar
        </CharString>
        <CharString name="Dcroat">
          135 0 133 142 137 125 131 hstem
          546 168 vstem
          14 275 rmoveto
          76 hlineto
          -58 -275 rlineto
          223 hlineto
          197 211 74 238 43 hvcurveto
          215 39 -107 141 -270 hhcurveto
          -194 hlineto
          -54 -256 rlineto
          -76 hlineto
          323 -137 rmoveto
          30 137 rlineto
          -116 hlineto
          27 125 rlineto
          58 hlineto
          160 31 -61 -121 -14 hvcurveto
          -129 -15 -81 -93 -162 hhcurveto
          -63 hlineto
          30 142 rlineto
          endchar
        </CharString>
        <CharString name="E">
          -14 0 139 135 139 116 139 hstem
          -23 660 vstem
          607 529 rmoveto
          30 139 rlineto
          -518 hlineto
          -142 -668 rlineto
          518 hlineto
          29 139 rlineto
          -356 hlineto
          29 135 rlineto
          217 hlineto
          29 139 rlineto
          -217 hlineto
          25 116 rlineto
          endchar
        </CharString>
        <CharString name="Eacute">
          -14 0 139 135 139 116 139 hstem
          -23 660 vstem
          -23 hmoveto
          518 hlineto
          29 139 rlineto
          -356 hlineto
          29 135 rlineto
          217 hlineto
          29 139 rlineto
          -217 hlineto
          25 116 rlineto
          356 hlineto
          30 139 rlineto
          -518 hlineto
          189 63 rmoveto
          123 hlineto
          0 86 49 5 5 vhcurveto
          24 20 3 34 -19 24 rrcurveto
          14 -10 -17 7 -17 hhcurveto
          -12 -13 -4 -8 -10 hvcurveto
          -1 -1 -142 -140 0 vvcurveto
          endchar
        </CharString>
        <CharString name="Ecaron">
          -14 0 139 135 139 116 139 57 152 hstem
          -23 660 vstem
          495 hmoveto
          29 139 rlineto
          -356 hlineto
          29 135 rlineto
          217 hlineto
          29 139 rlineto
          -217 hlineto
          25 116 rlineto
          356 hlineto
          30 139 rlineto
          -518 hlineto
          -142 -668 rlineto
          361 750 rmoveto
          -16 14 20 -9 20 hhcurveto
          16 15 5 10 13 hvcurveto
          190 137 rlineto
          -147 hlineto
          -84 -61 -56 61 rlineto
          -115 hlineto
          endchar
        </CharString>
        <CharString name="Ecircumflex">
          -14 0 139 135 139 116 139 63 152 hstem
          -23 660 vstem
          -23 hmoveto
          518 hlineto
          29 139 rlineto
          -356 hlineto
          29 135 rlineto
          217 hlineto
          29 139 rlineto
          -217 hlineto
          25 116 rlineto
          356 hlineto
          30 139 rlineto
          -518 hlineto
          64 63 rmoveto
          147 hlineto
          84 61 59 -61 rlineto
          116 hlineto
          -118 127 rlineto
          17 -15 -20 8 -20 hhcurveto
          -16 -15 -5 -10 -13 hvcurveto
          endchar
        </CharString>
        <CharString name="Edieresis">
          -14 0 139 135 139 116 139 58 141 hstem
          229 141 53 140 vstem
          -23 hmoveto
          518 hlineto
          29 139 rlineto
          -356 hlineto
          29 135 rlineto
          217 hlineto
          29 139 rlineto
          -217 hlineto
          25 116 rlineto
          356 hlineto
          30 139 rlineto
          -518 hlineto
          110 128 rmoveto
          -39 32 -31 39 39 31 31 39 39 -31 32 -39 -39 -32 -32 -39 vhcurveto
          194 hmoveto
          -39 32 -31 39 38 31 31 39 39 -31 32 -38 -39 -32 -32 -39 vhcurveto
          endchar
        </CharString>
        <CharString name="Edotaccent">
          -14 0 139 135 139 116 139 58 141 hstem
          324 141 vstem
          495 hmoveto
          29 139 rlineto
          -356 hlineto
          29 135 rlineto
          217 hlineto
          29 139 rlineto
          -217 hlineto
          25 116 rlineto
          356 hlineto
          30 139 rlineto
          -518 hlineto
          -142 -668 rlineto
          347 796 rmoveto
          -39 32 -31 39 39 31 31 39 39 -31 32 -39 -39 -32 -32 -39 vhcurveto
          endchar
        </CharString>
        <CharString name="Egrave">
          -14 0 139 135 139 116 139 63 153 hstem
          -23 660 vstem
          495 hmoveto
          29 139 rlineto
          -356 hlineto
          29 135 rlineto
          217 hlineto
          29 139 rlineto
          -217 hlineto
          25 116 rlineto
          356 hlineto
          30 139 rlineto
          -518 hlineto
          -142 -668 rlineto
          313 793 rmoveto
          16 -21 50 -41 0 vvcurveto
          108 hlineto
          0 -62 101 -26 31 vhcurveto
          14 -11 -16 7 -17 hhcurveto
          -12 -13 -4 -8 -10 hvcurveto
          -24 -19 -2 -36 19 -24 rrcurveto
          endchar
        </CharString>
        <CharString name="Emacron">
          -14 0 139 135 139 116 139 79 98 hstem
          -23 660 vstem
          607 529 rmoveto
          30 139 rlineto
          -518 hlineto
          -142 -668 rlineto
          518 hlineto
          29 139 rlineto
          -356 hlineto
          29 135 rlineto
          217 hlineto
          29 139 rlineto
          -217 hlineto
          25 116 rlineto
          292 218 rmoveto
          21 98 rlineto
          -299 hlineto
          -21 -98 rlineto
          endchar
        </CharString>
        <CharString name="Eogonek">
          -14 -174 174 0 139 135 139 116 139 hstemhm
          -23 660 hintmask 01111000
          443 hmoveto
          hintmask 10111000
          -42 -12 -46 -27 -10 -46 rrcurveto
          -38 -8 23 -51 108 hhcurveto
          25 40 5 5 16 hvcurveto
          16 75 rlineto
          -2 -8 -23 -7 -20 hhcurveto
          -22 -23 6 24 6 hvcurveto
          hintmask 01111000
          7 34 62 29 40 5 rrcurveto
          hintmask 10111000
          -89 hlineto
          hintmask 01111000
          29 139 rlineto
          -356 hlineto
          29 135 rlineto
          217 hlineto
          29 139 rlineto
          -217 hlineto
          25 116 rlineto
          356 hlineto
          30 139 rlineto
          -518 hlineto
          -142 -668 rlineto
          endchar
        </CharString>
        <CharString name="Eth">
          127 0 133 142 137 125 131 hstem
          538 168 vstem
          6 275 rmoveto
          76 hlineto
          -58 -275 rlineto
          223 hlineto
          197 211 74 238 43 hvcurveto
          215 39 -107 141 -270 hhcurveto
          -194 hlineto
          -54 -256 rlineto
          -76 hlineto
          323 -137 rmoveto
          30 137 rlineto
          -116 hlineto
          27 125 rlineto
          58 hlineto
          160 31 -61 -121 -14 hvcurveto
          -129 -15 -81 -93 -162 hhcurveto
          -63 hlineto
          30 142 rlineto
          endchar
        </CharString>
        <CharString name="Euro">
          153 -12 130 113 74 61 74 113 127 hstem
          21 713 vstem
          128 231 rmoveto
          13 -158 104 -80 139 -5 139 -5 97 57 61 100 -129 54 rcurveline
          -61 -41 -58 -15 -48 hhcurveto
          -59 -47 38 75 -15 hvcurveto
          64 hlineto
          56 74 rlineto
          -125 hlineto
          2 21 2 16 5 24 rrcurveto
          164 hlineto
          56 74 rlineto
          -195 hlineto
          72 34 59 41 71 hhcurveto
          52 42 -19 -59 24 hvcurveto
          139 50 rlineto
          121 -41 -106 34 -99 hhcurveto
          -154 -122 -87 -153 -55 hvcurveto
          -52 hlineto
          -56 -74 rlineto
          88 hlineto
          -4 -22 -3 -20 -2 -19 rrcurveto
          -51 hlineto
          -56 -74 rlineto
          endchar
        </CharString>
        <CharString name="F">
          -50 21 -21 274 139 116 139 hstem
          -23 623 vstem
          571 529 rmoveto
          29 139 rlineto
          -481 hlineto
          -142 -668 rlineto
          161 hlineto
          59 274 rlineto
          320 hlineto
          29 139 rlineto
          -320 hlineto
          25 116 rlineto
          endchar
        </CharString>
        <CharString name="G">
          125 -12 130 -97 -21 250 128 172 130 hstemhm
          31 168 hintmask 01111000
          hintmask 10111000
          282 -12 rmoveto
          95 71 28 58 56 hvcurveto
          hintmask 01111000
          6 -74 rlineto
          107 hlineto
          81 378 rlineto
          -312 hlineto
          -27 -128 rlineto
          150 hlineto
          -4 -19 rlineto
          hintmask 10111000
          -18 -85 -89 -35 -72 7 -92 9 -52 73 22 136 rrcurveto
          138 22 78 76 96 hhcurveto
          69 46 -37 -35 14 hvcurveto
          148 57 rlineto
          102 -43 -95 43 -117 hhcurveto
          -202 -147 -126 -218 -36 hvcurveto
          -226 -37 130 -122 152 hhcurveto
          endchar
        </CharString>
        <CharString name="Gbreve">
          125 -12 130 -97 -21 250 128 172 130 59 111 hstemhm
          31 168 hintmask 01111100
          hintmask 10111100
          282 -12 rmoveto
          95 71 28 58 56 hvcurveto
          hintmask 01111100
          6 -74 rlineto
          107 hlineto
          81 378 rlineto
          -312 hlineto
          -27 -128 rlineto
          150 hlineto
          -4 -19 rlineto
          hintmask 10111100
          -18 -85 -89 -35 -72 7 -92 9 -52 73 22 136 rrcurveto
          138 22 78 76 96 hhcurveto
          69 46 -37 -35 14 hvcurveto
          148 57 rlineto
          102 -43 -95 43 -117 hhcurveto
          -202 -147 -126 -218 -36 hvcurveto
          -226 -37 130 -122 152 hhcurveto
          hintmask 01111100
          169 862 rmoveto
          -65 7 56 -46 79 hhcurveto
          82 56 49 62 19 hvcurveto
          -94 hlineto
          -22 -8 -23 -15 -28 hhcurveto
          -26 -22 15 22 -5 hvcurveto
          endchar
        </CharString>
        <CharString name="Gdotaccent">
          125 -12 130 -97 -21 250 128 172 130 46 141 hstemhm
          31 168 196 141 hintmask 01110110
          hintmask 10110110
          282 -12 rmoveto
          95 71 28 58 56 hvcurveto
          hintmask 01110110
          6 -74 rlineto
          107 hlineto
          81 378 rlineto
          -312 hlineto
          -27 -128 rlineto
          150 hlineto
          -4 -19 rlineto
          hintmask 10110110
          -18 -85 -89 -35 -72 7 -92 9 -52 73 22 136 rrcurveto
          138 22 78 76 96 hhcurveto
          69 46 -37 -35 14 hvcurveto
          148 57 rlineto
          102 -43 -95 43 -117 hhcurveto
          -202 -147 -126 -218 -36 hvcurveto
          -226 -37 130 -122 152 hhcurveto
          hintmask 01111110
          113 808 rmoveto
          -39 32 -31 39 39 31 31 39 39 -31 32 -39 -39 -32 -32 -39 vhcurveto
          endchar
        </CharString>
        <CharString name="H">
          86 21 -21 274 139 255 -20 hstem
          -23 740 vstem
          138 hmoveto
          59 274 rlineto
          275 hlineto
          -58 -274 rlineto
          161 hlineto
          142 668 rlineto
          -161 hlineto
          -54 -255 rlineto
          -276 hlineto
          53 255 rlineto
          -160 hlineto
          -142 -668 rlineto
          endchar
        </CharString>
        <CharString name="Hbar">
          131 21 -21 274 139 83 98 -98 172 hstemhm
          3 778 hintmask 11011000
          164 hmoveto
          59 274 rlineto
          275 hlineto
          -58 -274 rlineto
          161 hlineto
          105 496 rlineto
          54 hlineto
          hintmask 11101000
          21 98 rlineto
          -54 hlineto
          hintmask 11011000
          16 74 rlineto
          -161 hlineto
          hintmask 11101000
          -16 -74 rlineto
          -276 hlineto
          hintmask 11011000
          15 74 rlineto
          -160 hlineto
          hintmask 11101000
          -16 -74 rlineto
          -58 hlineto
          -21 -98 rlineto
          58 hlineto
          -105 -496 rlineto
          543 496 rmoveto
          -18 -83 rlineto
          -276 hlineto
          17 83 rlineto
          endchar
        </CharString>
        <CharString name="I">
          -150 0 124 420 124 hstem
          -13 487 vstem
          331 hmoveto
          27 124 rlineto
          -91 hlineto
          88 420 rlineto
          92 hlineto
          27 124 rlineto
          -345 hlineto
          -26 -124 rlineto
          92 hlineto
          -90 -420 rlineto
          -92 hlineto
          -26 -124 rlineto
          endchar
        </CharString>
        <CharString name="Iacute">
          -150 0 124 420 124 hstem
          -13 495 vstem
          331 hmoveto
          27 124 rlineto
          -91 hlineto
          88 420 rlineto
          92 hlineto
          27 124 rlineto
          -345 hlineto
          -26 -124 rlineto
          92 hlineto
          -90 -420 rlineto
          -92 hlineto
          -26 -124 rlineto
          261 731 rmoveto
          123 hlineto
          0 86 49 5 5 vhcurveto
          24 20 3 34 -19 24 rrcurveto
          14 -10 -17 7 -17 hhcurveto
          -12 -13 -4 -8 -10 hvcurveto
          -1 -1 -142 -140 0 vvcurveto
          endchar
        </CharString>
        <CharString name="Icircumflex">
          -150 0 124 420 124 63 152 hstem
          -13 527 vstem
          -13 hmoveto
          344 hlineto
          27 124 rlineto
          -91 hlineto
          88 420 rlineto
          92 hlineto
          27 124 rlineto
          -345 hlineto
          -26 -124 rlineto
          92 hlineto
          -90 -420 rlineto
          -92 hlineto
          242 607 rmoveto
          84 61 59 -61 rlineto
          116 hlineto
          -118 127 rlineto
          17 -15 -20 8 -20 hhcurveto
          -16 -15 -5 -10 -13 hvcurveto
          -189 -137 rlineto
          endchar
        </CharString>
        <CharString name="Idieresis">
          -150 0 124 420 124 58 141 hstem
          162 141 53 140 vstem
          -13 hmoveto
          344 hlineto
          27 124 rlineto
          -91 hlineto
          88 420 rlineto
          92 hlineto
          27 124 rlineto
          -345 hlineto
          -26 -124 rlineto
          92 hlineto
          -90 -420 rlineto
          -92 hlineto
          149 672 rmoveto
          -39 32 -31 39 39 31 31 39 39 -31 32 -39 -39 -32 -32 -39 vhcurveto
          194 hmoveto
          -39 32 -31 39 38 31 31 39 39 -31 32 -38 -39 -32 -32 -39 vhcurveto
          endchar
        </CharString>
        <CharString name="Igrave">
          -150 0 124 420 124 63 153 hstem
          -13 487 vstem
          331 hmoveto
          27 124 rlineto
          -91 hlineto
          88 420 rlineto
          92 hlineto
          27 124 rlineto
          -345 hlineto
          -26 -124 rlineto
          92 hlineto
          -90 -420 rlineto
          -92 hlineto
          -26 -124 rlineto
          213 793 rmoveto
          16 -21 50 -41 0 vvcurveto
          108 hlineto
          0 -62 101 -26 31 vhcurveto
          14 -11 -16 7 -17 hhcurveto
          -12 -13 -4 -8 -10 hvcurveto
          -24 -19 -2 -36 19 -24 rrcurveto
          endchar
        </CharString>
        <CharString name="Imacron">
          -150 0 124 420 124 79 98 hstem
          -13 502 vstem
          -13 hmoveto
          344 hlineto
          27 124 rlineto
          -91 hlineto
          88 420 rlineto
          92 hlineto
          27 124 rlineto
          -345 hlineto
          -26 -124 rlineto
          92 hlineto
          -90 -420 rlineto
          -92 hlineto
          156 623 rmoveto
          299 hlineto
          21 98 rlineto
          -299 hlineto
          endchar
        </CharString>
        <CharString name="Iogonek">
          -150 -174 76 98 124 420 124 hstem
          -13 487 vstem
          -13 hmoveto
          109 hlineto
          -42 -12 -46 -27 -10 -46 rrcurveto
          -38 -8 23 -51 108 hhcurveto
          25 40 5 5 16 hvcurveto
          16 75 rlineto
          -2 -8 -23 -7 -20 hhcurveto
          -22 -23 6 24 6 hvcurveto
          7 34 62 29 40 5 rrcurveto
          94 hlineto
          27 124 rlineto
          -91 hlineto
          88 420 rlineto
          92 hlineto
          27 124 rlineto
          -345 hlineto
          -26 -124 rlineto
          92 hlineto
          -90 -420 rlineto
          -92 hlineto
          endchar
        </CharString>
        <CharString name="J">
          -43 -12 125 555 -20 hstemhm
          -28 157 -157 616 hintmask 11010000
          hintmask 11100000
          195 -12 rmoveto
          162 99 61 207 44 hvcurveto
          88 412 rlineto
          -162 hlineto
          -87 -412 -23 -109 -33 -36 -77 2 rlinecurve
          -68 2 -15 46 6 67 -157 -52 rcurveline
          -106 6 80 -82 137 hhcurveto
          endchar
        </CharString>
        <CharString name="K">
          48 21 -21 668 -20 hstem
          -23 738 vstem
          138 hmoveto
          42 197 90 80 141 -277 rlineto
          166 hlineto
          -193 377 331 291 rlineto
          -214 hlineto
          -272 -242 50 242 rlineto
          -160 hlineto
          -142 -668 rlineto
          endchar
        </CharString>
        <CharString name="L">
          -66 0 139 529 -20 hstem
          -23 511 vstem
          168 139 rmoveto
          111 529 rlineto
          -160 hlineto
          -142 -668 rlineto
          481 hlineto
          30 139 rlineto
          endchar
        </CharString>
        <CharString name="Lcaron">
          -66 0 139 364 165 hstem
          -23 511 vstem
          168 139 rmoveto
          111 529 rlineto
          -160 hlineto
          -142 -668 rlineto
          481 hlineto
          30 139 rlineto
          -132 364 rmoveto
          72 110 rlineto
          4 6 2 9 10 vvcurveto
          25 -18 32 -36 -21 -24 -12 -26 -9 vhcurveto
          -53 -154 rlineto
          endchar
        </CharString>
        <CharString name="Lslash">
          -14 0 140 528 -20 hstem
          -15 554 vstem
          219 140 rmoveto
          39 182 175 92 26 124 -176 -93 48 223 rlineto
          -160 hlineto
          -68 -320 -92 -48 -26 -123 91 48 -48 -225 rlineto
          482 hlineto
          29 140 rlineto
          endchar
        </CharString>
        <CharString name="M">
          249 21 -21 510 158 -135 135 0 -20 hstemhm
          -23 903 hintmask 10011000
          -23 hmoveto
          157 hlineto
          hintmask 10101000
          113 533 47 -533 rlineto
          132 hlineto
          hintmask 11001000
          264 510 -109 -510 rlineto
          156 hlineto
          143 668 rlineto
          -245 hlineto
          -241 -475 -38 475 rlineto
          -237 hlineto
          endchar
        </CharString>
        <CharString name="N">
          106 21 -21 668 -20 hstem
          -23 760 vstem
          -23 hmoveto
          156 hlineto
          103 485 160 -485 rlineto
          199 hlineto
          142 668 rlineto
          -155 hlineto
          -104 -485 -160 485 rlineto
          -199 hlineto
          endchar
        </CharString>
        <CharString name="NULL">
          -609 endchar
        </CharString>
        <CharString name="Nacute">
          106 21 -21 668 -20 hstem
          -23 760 vstem
          133 hmoveto
          103 485 160 -485 rlineto
          199 hlineto
          142 668 rlineto
          -155 hlineto
          -104 -485 -160 485 rlineto
          -199 hlineto
          -142 -668 rlineto
          423 731 rmoveto
          123 hlineto
          0 86 49 5 5 vhcurveto
          24 20 3 34 -19 24 rrcurveto
          14 -10 -17 7 -17 hhcurveto
          -12 -13 -4 -8 -10 hvcurveto
          -1 -1 -142 -140 0 vvcurveto
          endchar
        </CharString>
        <CharString name="Ncaron">
          106 21 -21 668 -20 77 152 hstem
          -23 760 vstem
          -23 hmoveto
          156 hlineto
          103 485 160 -485 rlineto
          199 hlineto
          142 668 rlineto
          -155 hlineto
          -104 -485 -160 485 rlineto
          -199 hlineto
          154 209 rmoveto
          114 -127 rlineto
          -16 14 20 -9 20 hhcurveto
          16 15 5 10 13 hvcurveto
          190 137 rlineto
          -147 hlineto
          -84 -61 -56 61 rlineto
          endchar
        </CharString>
        <CharString name="Ntilde">
          106 21 -21 668 -20 77 80 -41 82 hstemhm
          -23 760 hintmask 11011000
          -23 hmoveto
          156 hlineto
          103 485 160 -485 rlineto
          199 hlineto
          142 668 rlineto
          -155 hlineto
          -104 -485 -160 485 rlineto
          -199 hlineto
          216 63 rmoveto
          23 14 15 10 22 hhcurveto
          hintmask 11101000
          51 14 -36 -3 68 hvcurveto
          70 -3 35 37 15 21 26 36 -32 40 -35 -11 rrcurveto
          -9 -31 -3 -31 -43 hhcurveto
          hintmask 11011000
          -40 -20 41 -79 hhcurveto
          -67 -51 -57 -58 -18 hvcurveto
          endchar
        </CharString>
        <CharString name="O">
          154 -12 130 432 130 hstem
          562 170 vstem
          335 -12 rmoveto
          212 159 146 211 23 hvcurveto
          215 23 -130 120 -196 hhcurveto
          -205 -158 -141 -218 -28 hvcurveto
          -194 -25 114 -139 211 hhcurveto
          -132 333 rmoveto
          152 20 94 77 97 hhcurveto
          84 79 -64 -141 -15 hvcurveto
          -132 -14 -87 -95 -112 hhcurveto
          -112 -48 97 106 14 hvcurveto
          endchar
        </CharString>
        <CharString name="OE">
          500 -12 131 -119 140 135 138 116 139 -118 130 hstemhm
          32 1119 hintmask 10110100
          329 -12 rmoveto
          73 77 21 50 50 hvcurveto
          hintmask 01110100
          -13 -59 rlineto
          493 hlineto
          29 140 rlineto
          -356 hlineto
          29 135 rlineto
          218 hlineto
          29 138 rlineto
          -218 hlineto
          25 116 rlineto
          356 hlineto
          30 139 rlineto
          -493 hlineto
          -15 -72 rlineto
          hintmask 10101100
          55 -44 -83 29 -90 hhcurveto
          -205 -158 -140 -219 -28 hvcurveto
          -193 -25 114 -140 205 hhcurveto
          -126 333 rmoveto
          152 19 95 77 97 hhcurveto
          84 80 -63 -142 -16 hvcurveto
          -131 -14 -87 -95 -112 hhcurveto
          -112 -48 97 105 14 hvcurveto
          endchar
        </CharString>
        <CharString name="Oacute">
          154 -12 130 432 130 51 153 hstem
          562 170 vstem
          335 -12 rmoveto
          212 159 146 211 23 hvcurveto
          215 23 -130 120 -196 hhcurveto
          -205 -158 -141 -218 -28 hvcurveto
          -194 -25 114 -139 211 hhcurveto
          -132 333 rmoveto
          152 20 94 77 97 hhcurveto
          84 79 -64 -141 -15 hvcurveto
          -132 -14 -87 -95 -112 hhcurveto
          -112 -48 97 106 14 hvcurveto
          189 410 rmoveto
          123 hlineto
          0 86 49 5 5 vhcurveto
          24 20 3 34 -19 24 rrcurveto
          14 -10 -17 7 -17 hhcurveto
          -12 -13 -4 -8 -10 hvcurveto
          -1 -1 -142 -140 0 vvcurveto
          endchar
        </CharString>
        <CharString name="Ocircumflex">
          154 -12 130 432 130 51 152 hstem
          562 170 vstem
          335 -12 rmoveto
          212 159 146 211 23 hvcurveto
          215 23 -130 120 -196 hhcurveto
          -205 -158 -141 -218 -28 hvcurveto
          -194 -25 114 -139 211 hhcurveto
          -132 333 rmoveto
          152 20 94 77 97 hhcurveto
          84 79 -64 -141 -15 hvcurveto
          -132 -14 -87 -95 -112 hhcurveto
          -112 -48 97 106 14 hvcurveto
          194 410 rmoveto
          84 61 59 -61 rlineto
          116 hlineto
          -118 127 rlineto
          17 -15 -20 8 -20 hhcurveto
          -16 -15 -5 -10 -13 hvcurveto
          -189 -137 rlineto
          endchar
        </CharString>
        <CharString name="Odieresis">
          154 -12 130 432 130 46 141 hstemhm
          297 141 53 140 -69 170 hintmask 11110100
          335 -12 rmoveto
          212 159 146 211 23 hvcurveto
          215 23 -130 120 -196 hhcurveto
          -205 -158 -141 -218 -28 hvcurveto
          -194 -25 114 -139 211 hhcurveto
          -132 333 rmoveto
          152 20 94 77 97 hhcurveto
          84 79 -64 -141 -15 hvcurveto
          -132 -14 -87 -95 -112 hhcurveto
          -112 -48 97 106 14 hvcurveto
          165 405 rmoveto
          39 31 31 39 39 -31 32 -39 -39 -32 -32 -39 -39 32 -31 39 hvcurveto
          hintmask 11111000
          194 hmoveto
          38 31 31 39 39 -31 32 -38 -39 -32 -32 -39 -39 32 -31 39 hvcurveto
          endchar
        </CharString>
        <CharString name="Ograve">
          154 -12 130 432 130 51 153 hstem
          562 170 vstem
          335 -12 rmoveto
          212 159 146 211 23 hvcurveto
          215 23 -130 120 -196 hhcurveto
          -205 -158 -141 -218 -28 hvcurveto
          -194 -25 114 -139 211 hhcurveto
          -132 333 rmoveto
          152 20 94 77 97 hhcurveto
          84 79 -64 -141 -15 hvcurveto
          -132 -14 -87 -95 -112 hhcurveto
          -112 -48 97 106 14 hvcurveto
          134 472 rmoveto
          16 -21 50 -41 0 vvcurveto
          108 hlineto
          0 -62 101 -26 31 vhcurveto
          14 -11 -16 7 -17 hhcurveto
          -12 -13 -4 -8 -10 hvcurveto
          -24 -19 -2 -36 19 -24 rrcurveto
          endchar
        </CharString>
        <CharString name="Ohungarumlaut">
          154 -12 130 432 130 63 154 hstem
          562 170 vstem
          335 -12 rmoveto
          212 159 146 211 23 hvcurveto
          215 23 -130 120 -196 hhcurveto
          -205 -158 -141 -218 -28 hvcurveto
          -194 -25 114 -139 211 hhcurveto
          -132 333 rmoveto
          152 20 94 77 97 hhcurveto
          84 79 -64 -141 -15 hvcurveto
          -132 -14 -87 -95 -112 hhcurveto
          -112 -48 97 106 14 hvcurveto
          207 422 rmoveto
          0 84 50 6 4 vhcurveto
          25 17 3 38 -20 24 rrcurveto
          14 -11 -16 7 -16 hhcurveto
          -12 -13 -4 -9 -10 hvcurveto
          -2 -1 -141 -140 0 vvcurveto
          208 hmoveto
          122 hlineto
          0 84 50 6 4 vhcurveto
          25 17 3 38 -20 24 rrcurveto
          14 -11 -16 7 -16 hhcurveto
          -12 -13 -4 -9 -10 hvcurveto
          -2 -1 -140 -140 0 vvcurveto
          endchar
        </CharString>
        <CharString name="Oslash">
          153 -12 130 432 130 hstem
          32 170 359 167 vstem
          5 43 rmoveto
          51 -54 69 65 rlineto
          -42 51 71 -24 87 hhcurveto
          213 159 146 211 22 hvcurveto
          10 93 -18 76 -41 55 68 64 rcurveline
          -51 53 -69 -64 rlineto
          38 -52 -69 20 -80 hhcurveto
          -205 -158 -141 -218 -28 hvcurveto
          -11 -83 15 -73 37 -56 rrcurveto
          166 54 rmoveto
          310 288 10 -29 4 -35 -5 -42 rlinecurve
          -132 -14 -87 -95 -111 hhcurveto
          -47 -35 17 28 -25 hvcurveto
          -40 158 rmoveto
          152 19 95 77 98 hhcurveto
          35 35 -12 -24 27 hvcurveto
          -304 -283 -8 27 -1 31 4 32 rlinecurve
          endchar
        </CharString>
        <CharString name="Otilde">
          154 -12 130 432 130 45 80 -41 82 hstemhm
          562 170 hintmask 11011000
          335 -12 rmoveto
          212 159 146 211 23 hvcurveto
          215 23 -130 120 -196 hhcurveto
          -205 -158 -141 -218 -28 hvcurveto
          -194 -25 114 -139 211 hhcurveto
          -132 333 rmoveto
          152 20 94 77 97 hhcurveto
          84 79 -64 -141 -15 hvcurveto
          -132 -14 -87 -95 -112 hhcurveto
          -112 -48 97 106 14 hvcurveto
          64 410 rmoveto
          89 hlineto
          23 14 15 10 22 hhcurveto
          hintmask 11101000
          51 14 -36 -3 68 hvcurveto
          70 -3 35 37 15 21 26 36 -32 40 -35 -11 rrcurveto
          -9 -31 -3 -31 -43 hhcurveto
          hintmask 11011000
          -40 -20 41 -79 hhcurveto
          -67 -51 -57 -58 -18 hvcurveto
          endchar
        </CharString>
        <CharString name="P">
          32 21 -21 232 131 172 133 hstem
          -23 661 vstem
          -23 hmoveto
          161 hlineto
          49 232 rlineto
          117 hlineto
          214 98 84 127 19 hvcurveto
          137 19 -56 88 -219 hhcurveto
          -260 hlineto
          97 -305 rmoveto
          36 172 rlineto
          103 hlineto
          88 35 -28 -57 -10 hvcurveto
          -59 -10 -48 -28 -91 hhcurveto
          endchar
        </CharString>
        <CharString name="Q">
          165 14 131 431 130 hstem
          567 170 vstem
          340 14 rmoveto
          67 62 15 27 54 hvcurveto
          94 -111 92 80 -87 102 61 62 40 84 11 98 rlinecurve
          215 24 -131 120 -196 hhcurveto
          -205 -158 -140 -220 -28 hvcurveto
          -192 -25 114 -140 211 hhcurveto
          -132 332 rmoveto
          153 19 95 77 97 hhcurveto
          84 79 -63 -142 -15 hvcurveto
          -5 -48 -16 -44 -22 -36 -103 120 rcurveline
          -91 -78 103 -123 rlineto
          -11 -24 -27 -6 -28 hhcurveto
          -112 -48 97 104 14 hvcurveto
          endchar
        </CharString>
        <CharString name="R">
          35 21 -21 252 132 151 133 hstem
          462 167 vstem
          -23 hmoveto
          161 hlineto
          54 252 rlineto
          71 hlineto
          128 -252 rlineto
          166 hlineto
          -137 269 150 22 49 72 10 98 rlinecurve
          151 15 -101 56 -174 hhcurveto
          -250 hlineto
          133 -133 rmoveto
          94 hlineto
          75 50 -14 -62 -9 hvcurveto
          -63 -9 -55 -12 -75 hhcurveto
          -103 hlineto
          endchar
        </CharString>
        <CharString name="Racute">
          35 21 -21 252 132 151 133 63 153 hstem
          462 167 vstem
          138 hmoveto
          54 252 rlineto
          71 hlineto
          128 -252 rlineto
          166 hlineto
          -137 269 150 22 49 72 10 98 rlinecurve
          151 15 -101 56 -174 hhcurveto
          -250 hlineto
          -142 -668 rlineto
          275 535 rmoveto
          94 hlineto
          75 50 -14 -62 -9 hvcurveto
          -63 -9 -55 -12 -75 hhcurveto
          -103 hlineto
          253 347 rmoveto
          0 86 49 5 5 vhcurveto
          24 20 3 34 -19 24 rrcurveto
          14 -10 -17 7 -17 hhcurveto
          -12 -13 -4 -8 -10 hvcurveto
          -1 -1 -142 -140 0 vvcurveto
          endchar
        </CharString>
        <CharString name="Rcaron">
          35 21 -21 252 132 151 133 57 152 hstem
          462 167 vstem
          -23 hmoveto
          161 hlineto
          54 252 rlineto
          71 hlineto
          128 -252 rlineto
          166 hlineto
          -137 269 150 22 49 72 10 98 rlinecurve
          151 15 -101 56 -174 hhcurveto
          -250 hlineto
          133 -133 rmoveto
          94 hlineto
          75 50 -14 -62 -9 hvcurveto
          -63 -9 -55 -12 -75 hhcurveto
          -103 hlineto
          124 366 rmoveto
          -16 14 20 -9 20 hhcurveto
          16 15 5 10 13 hvcurveto
          190 137 rlineto
          -147 hlineto
          -84 -61 -56 61 rlineto
          -115 hlineto
          endchar
        </CharString>
        <CharString name="S">
          33 -12 126 437 129 hstemhm
          10 596 -182 163 hintmask 11100000
          10 157 rmoveto
          -106 41 110 -63 145 hhcurveto
          hintmask 11010000
          139 131 67 132 11 hvcurveto
          21 246 -384 -68 127 vvcurveto
          35 37 24 68 49 56 -21 -47 17 vhcurveto
          155 52 rlineto
          108 -56 -110 37 -99 hhcurveto
          -131 -132 -55 -121 -15 hvcurveto
          -32 -258 393 56 -123 vvcurveto
          -41 -53 -24 -58 -63 -70 29 66 -15 vhcurveto
          endchar
        </CharString>
        <CharString name="Sacute">
          33 -12 126 437 129 hstemhm
          10 596 -182 163 hintmask 11100000
          10 157 rmoveto
          -106 41 110 -63 145 hhcurveto
          hintmask 11010000
          139 131 67 132 11 hvcurveto
          21 246 -384 -68 127 vvcurveto
          35 37 24 68 49 56 -21 -47 17 vhcurveto
          155 52 rlineto
          108 -56 -110 37 -99 hhcurveto
          -131 -132 -55 -121 -15 hvcurveto
          -32 -258 393 56 -123 vvcurveto
          -41 -53 -24 -58 -63 -70 29 66 -15 vhcurveto
          164 522 rmoveto
          123 hlineto
          0 86 49 5 5 vhcurveto
          24 20 3 34 -19 24 rrcurveto
          14 -10 -17 7 -17 hhcurveto
          -12 -13 -4 -8 -10 hvcurveto
          -1 -1 -142 -140 0 vvcurveto
          endchar
        </CharString>
        <CharString name="Scaron">
          33 -12 126 437 129 45 152 hstemhm
          10 603 -189 163 hintmask 11110000
          10 157 rmoveto
          -106 41 110 -63 145 hhcurveto
          hintmask 11101000
          139 131 67 132 11 hvcurveto
          21 246 -384 -68 127 vvcurveto
          35 37 24 68 49 56 -21 -47 17 vhcurveto
          155 52 rlineto
          108 -56 -110 37 -99 hhcurveto
          -131 -132 -55 -121 -15 hvcurveto
          -32 -258 393 56 -123 vvcurveto
          -41 -53 -24 -58 -63 -70 29 66 -15 vhcurveto
          160 541 rmoveto
          -16 14 20 -9 20 hhcurveto
          16 15 5 10 13 hvcurveto
          190 137 rlineto
          -147 hlineto
          -84 -61 -56 61 rlineto
          -115 hlineto
          endchar
        </CharString>
        <CharString name="Scedilla">
          33 -195 54 57 40 32 126 -98 -21 556 129 hstemhm
          261 91 72 163 hintmask 11101110
          hintmask 11011110
          224 -5 rmoveto
          -44 -52 -14 -17 15 -19 17 5 rlinecurve
          2 8 8 2 8 hhcurveto
          23 18 -11 -16 -2 hvcurveto
          -21 -2 -23 -9 -27 hhcurveto
          -20 -22 5 8 -18 hvcurveto
          -26 -50 rlineto
          -8 17 38 -9 41 hhcurveto
          60 66 19 64 7 hvcurveto
          5 53 -53 23 -59 -11 rrcurveto
          hintmask 11101110
          30 36 rlineto
          -1 10 10 0 11 hhcurveto
          139 131 67 132 11 hvcurveto
          21 246 -384 -68 127 vvcurveto
          35 37 24 68 49 56 -21 -47 17 vhcurveto
          155 52 rlineto
          108 -56 -110 37 -99 hhcurveto
          -131 -132 -55 -121 -15 hvcurveto
          -32 -258 393 56 -123 vvcurveto
          -41 -53 -24 -58 -63 -70 29 66 -15 vhcurveto
          -155 -52 rlineto
          hintmask 11011110
          33 -85 77 -57 104 -20 rrcurveto
          endchar
        </CharString>
        <CharString name="T">
          8 21 -21 529 139 hstem
          57 616 vstem
          57 529 rmoveto
          213 hlineto
          -112 -529 rlineto
          161 hlineto
          111 529 rlineto
          214 hlineto
          29 139 rlineto
          -586 hlineto
          endchar
        </CharString>
        <CharString name="Tcaron">
          8 21 -21 529 139 57 152 hstem
          57 616 vstem
          270 529 rmoveto
          -112 -529 rlineto
          161 hlineto
          111 529 rlineto
          214 hlineto
          29 139 rlineto
          -586 hlineto
          -30 -139 rlineto
          171 348 rmoveto
          114 -127 rlineto
          -16 14 20 -9 20 hhcurveto
          16 15 5 10 13 hvcurveto
          190 137 rlineto
          -147 hlineto
          -84 -61 -56 61 rlineto
          endchar
        </CharString>
        <CharString name="Thorn">
          27 21 -21 128 141 157 137 105 -20 hstem
          444 168 vstem
          -23 hmoveto
          162 hlineto
          27 128 rlineto
          89 hlineto
          149 178 22 194 27 hvcurveto
          172 25 -114 47 -173 hhcurveto
          -88 hlineto
          21 105 rlineto
          -161 hlineto
          111 -242 rmoveto
          102 hlineto
          105 15 -27 -52 -11 hvcurveto
          -42 -9 -27 -36 -111 hhcurveto
          -98 hlineto
          endchar
        </CharString>
        <CharString name="U">
          67 -12 129 551 -20 hstem
          27 161 vstem
          266 -12 rmoveto
          197 105 54 250 53 hvcurveto
          80 376 rlineto
          -161 hlineto
          -83 -389 rlineto
          -99 -21 -33 -63 -109 hhcurveto
          -117 1 69 93 20 hvcurveto
          83 389 rlineto
          -161 hlineto
          -81 -376 rlineto
          -166 -36 30 -138 233 hhcurveto
          endchar
        </CharString>
        <CharString name="Uacute">
          67 -12 129 551 -20 83 153 hstem
          27 161 vstem
          266 -12 rmoveto
          197 105 54 250 53 hvcurveto
          80 376 rlineto
          -161 hlineto
          -83 -389 rlineto
          -99 -21 -33 -63 -109 hhcurveto
          -117 1 69 93 20 hvcurveto
          83 389 rlineto
          -161 hlineto
          -81 -376 rlineto
          -166 -36 30 -138 233 hhcurveto
          212 743 rmoveto
          0 86 49 5 5 vhcurveto
          24 20 3 34 -19 24 rrcurveto
          14 -10 -17 7 -17 hhcurveto
          -12 -13 -4 -8 -10 hvcurveto
          -1 -1 -142 -140 0 vvcurveto
          endchar
        </CharString>
        <CharString name="Ucircumflex">
          67 -12 129 551 -20 83 152 hstem
          27 161 vstem
          266 -12 rmoveto
          197 105 54 250 53 hvcurveto
          80 376 rlineto
          -161 hlineto
          -83 -389 rlineto
          -99 -21 -33 -63 -109 hhcurveto
          -117 1 69 93 20 hvcurveto
          83 389 rlineto
          -161 hlineto
          -81 -376 rlineto
          -166 -36 30 -138 233 hhcurveto
          89 743 rmoveto
          84 61 59 -61 rlineto
          116 hlineto
          -118 127 rlineto
          17 -15 -20 8 -20 hhcurveto
          -16 -15 -5 -10 -13 hvcurveto
          -189 -137 rlineto
          endchar
        </CharString>
        <CharString name="Udieresis">
          67 -12 129 551 -20 78 141 hstem
          27 161 71 141 53 140 vstem
          266 -12 rmoveto
          197 105 54 250 53 hvcurveto
          80 376 rlineto
          -161 hlineto
          -83 -389 rlineto
          -99 -21 -33 -63 -109 hhcurveto
          -117 1 69 93 20 hvcurveto
          83 389 rlineto
          -161 hlineto
          -81 -376 rlineto
          -166 -36 30 -138 233 hhcurveto
          64 738 rmoveto
          39 31 31 39 39 -31 32 -39 -39 -32 -32 -39 -39 32 -31 39 hvcurveto
          194 hmoveto
          38 31 31 39 39 -31 32 -38 -39 -32 -32 -39 -39 32 -31 39 hvcurveto
          endchar
        </CharString>
        <CharString name="Ugrave">
          67 -12 129 551 -20 83 153 hstem
          27 161 vstem
          266 -12 rmoveto
          197 105 54 250 53 hvcurveto
          80 376 rlineto
          -161 hlineto
          -83 -389 rlineto
          -99 -21 -33 -63 -109 hhcurveto
          -117 1 69 93 20 hvcurveto
          83 389 rlineto
          -161 hlineto
          -81 -376 rlineto
          -166 -36 30 -138 233 hhcurveto
          42 805 rmoveto
          16 -21 50 -41 0 vvcurveto
          108 hlineto
          0 -62 101 -26 31 vhcurveto
          14 -11 -16 7 -17 hhcurveto
          -12 -13 -4 -8 -10 hvcurveto
          -24 -19 -2 -36 19 -24 rrcurveto
          endchar
        </CharString>
        <CharString name="Uhungarumlaut">
          67 -12 129 551 -20 96 154 hstem
          27 161 vstem
          266 -12 rmoveto
          197 105 54 250 53 hvcurveto
          80 376 rlineto
          -161 hlineto
          -83 -389 rlineto
          -99 -21 -33 -63 -109 hhcurveto
          -117 1 69 93 20 hvcurveto
          83 389 rlineto
          -161 hlineto
          -81 -376 rlineto
          -166 -36 30 -138 233 hhcurveto
          101 756 rmoveto
          0 84 50 6 4 vhcurveto
          25 17 3 38 -20 24 rrcurveto
          14 -11 -16 7 -16 hhcurveto
          -12 -13 -4 -9 -10 hvcurveto
          -2 -1 -141 -140 0 vvcurveto
          330 hmoveto
          0 84 50 6 4 vhcurveto
          25 17 3 38 -20 24 rrcurveto
          14 -11 -16 7 -16 hhcurveto
          -12 -13 -4 -9 -10 hvcurveto
          -2 -1 -140 -140 0 vvcurveto
          endchar
        </CharString>
        <CharString name="Umacron">
          67 -12 129 551 -20 99 98 hstem
          27 161 vstem
          266 -12 rmoveto
          197 105 54 250 53 hvcurveto
          80 376 rlineto
          -161 hlineto
          -83 -389 rlineto
          -99 -21 -33 -63 -109 hhcurveto
          -117 1 69 93 20 hvcurveto
          83 389 rlineto
          -161 hlineto
          -81 -376 rlineto
          -166 -36 30 -138 233 hhcurveto
          9 759 rmoveto
          299 hlineto
          21 98 rlineto
          -299 hlineto
          endchar
        </CharString>
        <CharString name="Uogonek">
          67 -174 76 110 -21 677 -20 hstem
          26 162 vstem
          207 -9 rmoveto
          -34 -14 -32 -25 -8 -37 rrcurveto
          -38 -8 23 -51 108 hhcurveto
          25 40 5 5 16 hvcurveto
          16 75 rlineto
          -2 -8 -23 -7 -20 hhcurveto
          -22 -23 6 24 6 hvcurveto
          5 25 34 22 34 12 152 14 87 68 46 219 80 376 rcurveline
          -161 hlineto
          -83 -389 rlineto
          -99 -21 -33 -63 -109 hhcurveto
          -117 1 69 93 20 hvcurveto
          83 389 rlineto
          -161 hlineto
          -81 -376 -33 -151 22 -127 179 -23 rlinecurve
          endchar
        </CharString>
        <CharString name="Uring">
          67 -12 129 529 86 -64 -20 178 85 hstemhm
          27 161 93 85 94 86 hintmask 10111110
          266 -12 rmoveto
          197 105 54 250 53 hvcurveto
          80 376 rlineto
          -161 hlineto
          -83 -389 rlineto
          -99 -21 -33 -63 -109 hhcurveto
          -117 1 69 93 20 hvcurveto
          83 389 rlineto
          -161 hlineto
          -81 -376 rlineto
          -166 -36 30 -138 233 hhcurveto
          hintmask 11011110
          147 658 rmoveto
          73 60 60 73 73 -60 59 -73 -73 -59 -59 -73 -73 59 -60 73 hvcurveto
          180 vmoveto
          26 21 -21 -26 -26 -21 -21 -26 -26 -21 21 26 26 21 21 26 hvcurveto
          endchar
        </CharString>
        <CharString name="V">
          53 21 -21 668 -20 hstem
          82 642 vstem
          166 hmoveto
          190 hlineto
          368 668 rlineto
          -178 hlineto
          -257 -491 -49 491 rlineto
          -158 hlineto
          endchar
        </CharString>
        <CharString name="W">
          280 21 -21 668 -20 hstem
          91 141 236 120 vstem
          82 668 rmoveto
          19 -668 rlineto
          165 hlineto
          202 470 rlineto
          -470 180 vlineto
          303 668 rlineto
          -168 hlineto
          -195 -463 rlineto
          463 -169 vlineto
          -189 -446 5 446 rlineto
          endchar
        </CharString>
        <CharString name="X">
          97 21 -21 668 -20 hstem
          -60 828 vstem
          -60 hmoveto
          211 hlineto
          192 210 105 -210 rlineto
          173 hlineto
          -165 331 312 337 rlineto
          -210 hlineto
          -176 -191 -96 191 rlineto
          -171 hlineto
          155 -312 rlineto
          endchar
        </CharString>
        <CharString name="Y">
          91 21 -21 668 -20 hstem
          82 680 vstem
          242 241 rmoveto
          -51 -241 rlineto
          163 hlineto
          50 241 358 427 rlineto
          -204 hlineto
          -219 -277 -86 277 rlineto
          -171 hlineto
          endchar
        </CharString>
        <CharString name="Yacute">
          91 21 -21 668 -20 83 153 hstem
          82 680 vstem
          242 241 rmoveto
          -51 -241 rlineto
          163 hlineto
          50 241 358 427 rlineto
          -204 hlineto
          -219 -277 -86 277 rlineto
          -171 hlineto
          383 63 rmoveto
          0 86 49 5 5 vhcurveto
          24 20 3 34 -19 24 rrcurveto
          14 -10 -17 7 -17 hhcurveto
          -12 -13 -4 -8 -10 hvcurveto
          -1 -1 -142 -140 0 vvcurveto
          endchar
        </CharString>
        <CharString name="Ydieresis">
          91 21 -21 668 -20 78 141 hstem
          257 141 53 140 vstem
          242 241 rmoveto
          -51 -241 rlineto
          163 hlineto
          50 241 358 427 rlineto
          -204 hlineto
          -219 -277 -86 277 rlineto
          -171 hlineto
          175 128 rmoveto
          -39 32 -31 39 39 31 31 39 39 -31 32 -39 -39 -32 -32 -39 vhcurveto
          265 -70 rmoveto
          38 31 31 39 39 -31 32 -38 -39 -32 -32 -39 -39 32 -31 39 hvcurveto
          endchar
        </CharString>
        <CharString name="Z">
          23 0 139 390 139 hstem
          -38 706 vstem
          642 547 rmoveto
          26 121 rlineto
          -538 hlineto
          -30 -139 rlineto
          311 hlineto
          -423 -408 -26 -121 rlineto
          568 hlineto
          30 139 rlineto
          -339 hlineto
          endchar
        </CharString>
        <CharString name="Zacute">
          23 0 139 390 139 63 153 hstem
          -38 706 vstem
          -38 hmoveto
          568 hlineto
          30 139 rlineto
          -339 hlineto
          421 408 26 121 rlineto
          -538 hlineto
          -30 -139 rlineto
          311 hlineto
          -423 -408 rlineto
          474 610 rmoveto
          0 86 49 5 5 vhcurveto
          24 20 3 34 -19 24 rrcurveto
          14 -10 -17 7 -17 hhcurveto
          -12 -13 -4 -8 -10 hvcurveto
          -1 -1 -142 -140 0 vvcurveto
          endchar
        </CharString>
        <CharString name="Zcaron">
          23 0 139 390 139 57 152 hstem
          -38 706 vstem
          -38 hmoveto
          568 hlineto
          30 139 rlineto
          -339 hlineto
          421 408 26 121 rlineto
          -538 hlineto
          -30 -139 rlineto
          311 hlineto
          -423 -408 rlineto
          242 756 rmoveto
          114 -127 rlineto
          -16 14 20 -9 20 hhcurveto
          16 15 5 10 13 hvcurveto
          190 137 rlineto
          -147 hlineto
          -84 -61 -56 61 rlineto
          endchar
        </CharString>
        <CharString name="Zdotaccent">
          23 0 139 390 139 58 141 hstem
          329 141 vstem
          -38 hmoveto
          568 hlineto
          30 139 rlineto
          -339 hlineto
          421 408 26 121 rlineto
          -538 hlineto
          -30 -139 rlineto
          311 hlineto
          -423 -408 rlineto
          412 605 rmoveto
          39 31 31 39 39 -31 32 -39 -39 -32 -32 -39 -39 32 -31 39 hvcurveto
          endchar
        </CharString>
        <CharString name="a">
          -68 -12 103 -91 91 316 103 hstemhm
          -22 161 201 150 hintmask 10111000
          126 -12 rmoveto
          71 46 16 55 45 hvcurveto
          hintmask 01111000
          5 -59 rlineto
          144 hlineto
          43 10 85 14 65 vhcurveto
          5 27 13 55 5 27 rrcurveto
          138 31 -92 70 -134 hhcurveto
          -112 -77 -38 -78 -51 hvcurveto
          117 -46 rlineto
          40 19 40 19 43 hhcurveto
          54 28 -21 -58 -13 hvcurveto
          -3 -13 -161 -17 -190 -31 -5 -144 rlinecurve
          hintmask 10111000
          -84 -3 73 -51 78 hhcurveto
          13 156 rmoveto
          6 50 71 22 108 9 -3 -12 rcurveline
          -92 -24 -39 -30 -54 hhcurveto
          -38 -31 20 33 4 hvcurveto
          endchar
        </CharString>
        <CharString name="aacute">
          -68 -12 103 -91 91 316 103 64 153 hstemhm
          -22 161 201 150 hintmask 10111100
          126 -12 rmoveto
          71 46 16 55 45 hvcurveto
          hintmask 01111100
          5 -59 rlineto
          144 hlineto
          43 10 85 14 65 vhcurveto
          5 27 13 55 5 27 rrcurveto
          138 31 -92 70 -134 hhcurveto
          -112 -77 -38 -78 -51 hvcurveto
          117 -46 rlineto
          40 19 40 19 43 hhcurveto
          54 28 -21 -58 -13 hvcurveto
          -3 -13 -161 -17 -190 -31 -5 -144 rlinecurve
          hintmask 10111100
          -84 -3 73 -51 78 hhcurveto
          115 586 rmoveto
          123 hlineto
          0 84 49 6 5 vhcurveto
          24 20 4 34 -20 24 rrcurveto
          14 -11 -16 7 -17 hhcurveto
          -12 -12 -4 -8 -10 hvcurveto
          -2 -1 -141 -140 0 vvcurveto
          -102 -430 rmoveto
          6 50 71 22 108 9 -3 -12 rcurveline
          -92 -24 -39 -30 -54 hhcurveto
          -38 -31 20 33 4 hvcurveto
          endchar
        </CharString>
        <CharString name="abreve">
          -68 -12 103 -91 91 316 103 67 111 hstemhm
          -22 161 201 150 hintmask 10111100
          126 -12 rmoveto
          71 46 16 55 45 hvcurveto
          hintmask 01111100
          5 -59 rlineto
          144 hlineto
          43 10 85 14 65 vhcurveto
          5 27 13 55 5 27 rrcurveto
          138 31 -92 70 -134 hhcurveto
          -112 -77 -38 -78 -51 hvcurveto
          117 -46 rlineto
          40 19 40 19 43 hhcurveto
          54 28 -21 -58 -13 hvcurveto
          -3 -13 -161 -17 -190 -31 -5 -144 rlinecurve
          hintmask 10111100
          -84 -3 73 -51 78 hhcurveto
          204 589 rmoveto
          82 56 49 62 19 hvcurveto
          -94 hlineto
          -22 -8 -23 -15 -28 hhcurveto
          -26 -22 15 22 -5 hvcurveto
          -93 hlineto
          -65 7 56 -46 79 hhcurveto
          -191 -433 rmoveto
          6 50 71 22 108 9 -3 -12 rcurveline
          -92 -24 -39 -30 -54 hhcurveto
          -38 -31 20 33 4 hvcurveto
          endchar
        </CharString>
        <CharString name="acircumflex">
          -68 -12 103 -91 91 316 103 64 152 hstemhm
          -22 161 201 150 hintmask 10111100
          126 -12 rmoveto
          71 46 16 55 45 hvcurveto
          hintmask 01111100
          5 -59 rlineto
          144 hlineto
          43 10 85 14 65 vhcurveto
          5 27 13 55 5 27 rrcurveto
          138 31 -92 70 -134 hhcurveto
          -112 -77 -38 -78 -51 hvcurveto
          117 -46 rlineto
          40 19 40 19 43 hhcurveto
          54 28 -21 -58 -13 hvcurveto
          -3 -13 -161 -17 -190 -31 -5 -144 rlinecurve
          hintmask 10111100
          -84 -3 73 -51 78 hhcurveto
          112 586 rmoveto
          84 61 59 -61 rlineto
          116 hlineto
          -118 127 rlineto
          17 -15 -20 8 -20 hhcurveto
          -16 -15 -5 -10 -13 hvcurveto
          -189 -137 rlineto
          48 -430 rmoveto
          6 50 71 22 108 9 -3 -12 rcurveline
          -92 -24 -39 -30 -54 hhcurveto
          -38 -31 20 33 4 hvcurveto
          endchar
        </CharString>
        <CharString name="acute">
          -289 574 153 hstem
          105 234 vstem
          228 574 rmoveto
          0 84 49 6 5 vhcurveto
          24 20 4 34 -20 24 rrcurveto
          14 -11 -16 7 -17 hhcurveto
          -12 -12 -4 -8 -10 hvcurveto
          -2 -1 -141 -140 0 vvcurveto
          endchar
        </CharString>
        <CharString name="acute.case">
          -410 731 153 hstem
          129 234 vstem
          129 731 rmoveto
          123 hlineto
          0 86 49 5 5 vhcurveto
          24 20 3 34 -19 24 rrcurveto
          14 -10 -17 7 -17 hhcurveto
          -12 -13 -4 -8 -10 hvcurveto
          -1 -1 -142 -140 0 vvcurveto
          endchar
        </CharString>
        <CharString name="adieresis">
          -68 -12 103 -91 91 316 103 68 141 hstemhm
          -22 161 14 141 46 150 -143 140 hintmask 10111110
          126 -12 rmoveto
          71 46 16 55 45 hvcurveto
          hintmask 01111110
          5 -59 rlineto
          144 hlineto
          43 10 85 14 65 vhcurveto
          5 27 13 55 5 27 rrcurveto
          138 31 -92 70 -134 hhcurveto
          -112 -77 -38 -78 -51 hvcurveto
          117 -46 rlineto
          40 19 40 19 43 hhcurveto
          54 28 -21 -58 -13 hvcurveto
          -3 -13 -161 -17 -190 -31 -5 -144 rlinecurve
          hintmask 10111110
          -84 -3 73 -51 78 hhcurveto
          13 156 rmoveto
          6 50 71 22 108 9 -3 -12 rcurveline
          -92 -24 -39 -30 -54 hhcurveto
          -38 -31 20 33 4 hvcurveto
          85 434 rmoveto
          39 31 31 39 39 -31 32 -39 -39 -32 -32 -39 -39 32 -31 39 hvcurveto
          hintmask 01111101
          123 70 rmoveto
          -39 32 -31 39 38 31 31 39 39 -31 32 -38 -39 -32 -32 -39 vhcurveto
          endchar
        </CharString>
        <CharString name="ae">
          273 -13 104 -103 118 103 90 99 112 -103 103 hstemhm
          -23 162 571 135 hintmask 10110110
          62 3 rmoveto
          -10 31 33 -6 34 hhcurveto
          74 76 27 64 57 hvcurveto
          hintmask 01110110
          -54 33 58 -36 86 hhcurveto
          101 85 39 71 56 hvcurveto
          -113 45 rlineto
          -23 -23 -42 -14 -41 hhcurveto
          -58 -54 29 74 13 hvcurveto
          366 hlineto
          178 42 -81 123 -173 hhcurveto
          -83 -55 -21 -37 -47 hvcurveto
          35 -24 -50 23 -65 hhcurveto
          -112 -77 -39 -77 -51 hvcurveto
          118 -46 rlineto
          hintmask 01101110
          40 19 41 19 41 hhcurveto
          54 27 -21 -57 -12 hvcurveto
          -6 -30 rlineto
          -163 -137 -24 -93 -47 hvcurveto
          -41 -82 43 -74 67 -23 rrcurveto
          420 296 rmoveto
          hintmask 10110110
          66 19 61 33 54 hhcurveto
          54 47 -32 -67 -7 hvcurveto
          -571 -154 rmoveto
          7 58 65 7 116 -1 -10 -32 -20 -78 -90 -8 -45 -4 -27 25 4 33 rrcurveto
          endchar
        </CharString>
        <CharString name="agrave">
          -68 -12 103 -91 91 316 103 64 153 hstemhm
          -22 161 201 150 hintmask 10111100
          126 -12 rmoveto
          71 46 16 55 45 hvcurveto
          hintmask 01111100
          5 -59 rlineto
          144 hlineto
          43 10 85 14 65 vhcurveto
          5 27 13 55 5 27 rrcurveto
          138 31 -92 70 -134 hhcurveto
          -112 -77 -38 -78 -51 hvcurveto
          117 -46 rlineto
          40 19 40 19 43 hhcurveto
          54 28 -21 -58 -13 hvcurveto
          -3 -13 -161 -17 -190 -31 -5 -144 rlinecurve
          hintmask 10111100
          -84 -3 73 -51 78 hhcurveto
          13 156 rmoveto
          6 50 71 22 108 9 -3 -12 rcurveline
          -92 -24 -39 -30 -54 hhcurveto
          -38 -31 20 33 4 hvcurveto
          40 491 rmoveto
          17 -20 50 -41 0 vvcurveto
          108 hlineto
          0 -63 100 -25 32 vhcurveto
          14 -11 -16 7 -16 hhcurveto
          -12 -13 -4 -9 -10 hvcurveto
          -24 -20 -4 -34 19 -25 rrcurveto
          endchar
        </CharString>
        <CharString name="amacron">
          -68 -12 103 -91 91 316 103 60 98 hstemhm
          -22 161 201 150 hintmask 10111100
          126 -12 rmoveto
          71 46 16 55 45 hvcurveto
          hintmask 01111100
          5 -59 rlineto
          144 hlineto
          43 10 85 14 65 vhcurveto
          5 27 13 55 5 27 rrcurveto
          138 31 -92 70 -134 hhcurveto
          -112 -77 -38 -78 -51 hvcurveto
          117 -46 rlineto
          40 19 40 19 43 hhcurveto
          54 28 -21 -58 -13 hvcurveto
          -3 -13 -161 -17 -190 -31 -5 -144 rlinecurve
          hintmask 10111100
          -84 -3 73 -51 78 hhcurveto
          345 582 rmoveto
          21 98 rlineto
          -299 hlineto
          -21 -98 rlineto
          -33 -426 rmoveto
          6 50 71 22 108 9 -3 -12 rcurveline
          -92 -24 -39 -30 -54 hhcurveto
          -38 -31 20 33 4 hvcurveto
          endchar
        </CharString>
        <CharString name="ampersand">
          74 -10 126 -116 146 -125 -21 592 114 hstemhm
          -7 165 -19 139 130 126 hintmask 00111010
          407 53 rmoveto
          35 -53 rlineto
          166 hlineto
          hintmask 01011010
          -93 146 65 58 58 86 38 99 rlinecurve
          -127 hlineto
          -24 -57 -34 -49 -40 -39 -68 104 rcurveline
          105 50 46 77 69 vvcurveto
          92 -78 70 -103 vhcurveto
          hintmask 10010110
          -125 -89 -77 -108 -44 14 -46 28 -42 hvcurveto
          -111 -286 69 -288 235 hhcurveto
          60 70 18 45 78 hvcurveto
          -160 237 rmoveto
          96 -143 rlineto
          -23 -42 -27 -8 -35 hhcurveto
          -87 -45 130 44 140 hvcurveto
          101 302 rmoveto
          65 2 38 -97 -125 -60 -84 90 39 63 67 2 rrcurveto
          endchar
        </CharString>
        <CharString name="aogonek">
          -68 -173 76 85 103 -70 -21 407 103 hstemhm
          -22 161 201 150 hintmask 11011100
          126 -12 rmoveto
          71 46 16 55 45 hvcurveto
          hintmask 10111100
          5 -59 rlineto
          hintmask 11011100
          -46 -12 -38 -36 -6 -36 rrcurveto
          -39 -6 21 -50 109 hhcurveto
          25 39 5 4 17 hvcurveto
          16 76 rlineto
          -3 -9 -23 -6 -19 hhcurveto
          -22 -25 4 24 5 hvcurveto
          hintmask 10111100
          6 24 49 22 51 23 rrcurveto
          43 10 85 14 65 vhcurveto
          5 27 13 55 5 27 rrcurveto
          138 31 -92 70 -134 hhcurveto
          -112 -77 -38 -78 -51 hvcurveto
          117 -46 rlineto
          40 19 40 19 43 hhcurveto
          54 28 -21 -58 -13 hvcurveto
          -3 -13 -161 -17 -190 -31 -5 -144 rlinecurve
          hintmask 11011100
          -84 -3 73 -51 78 hhcurveto
          13 156 rmoveto
          6 50 71 22 108 9 -3 -12 rcurveline
          -92 -24 -39 -30 -54 hhcurveto
          -38 -31 20 33 4 hvcurveto
          endchar
        </CharString>
        <CharString name="approxequal">
          -53 59 123 -64 125 14 123 -63 124 hstemhm
          36 104 -104 450 -104 104 hintmask 01010100
          hintmask 01011000
          140 57 rmoveto
          51 1 18 10 21 hhcurveto
          hintmask 10010010
          57 47 -59 70 hhcurveto
          88 35 55 92 9 hvcurveto
          -104 38 rlineto
          -51 -1 -19 -11 -20 hhcurveto
          hintmask 01011000
          -48 -48 61 -76 hhcurveto
          -89 -36 -57 -91 -9 hvcurveto
          199 vmoveto
          104 -38 rlineto
          51 1 18 10 21 hhcurveto
          hintmask 01100010
          57 47 -60 70 hhcurveto
          88 35 56 91 9 hvcurveto
          -104 37 rlineto
          -50 -1 -19 -11 -20 hhcurveto
          hintmask 01010100
          -48 -48 61 -76 hhcurveto
          hintmask 01011000
          -89 -36 -57 -90 -9 hvcurveto
          endchar
        </CharString>
        <CharString name="aring">
          -68 -12 103 -91 91 316 103 25 86 94 85 hstemhm
          -22 161 66 85 50 150 -106 86 hintmask 1011111100000000
          126 -12 rmoveto
          71 46 16 55 45 hvcurveto
          hintmask 0111111100000000
          5 -59 rlineto
          144 hlineto
          43 10 85 14 65 vhcurveto
          5 27 13 55 5 27 rrcurveto
          138 31 -92 70 -134 hhcurveto
          -112 -77 -38 -78 -51 hvcurveto
          117 -46 rlineto
          40 19 40 19 43 hhcurveto
          54 28 -21 -58 -13 hvcurveto
          -3 -13 -161 -17 -190 -31 -5 -144 rlinecurve
          hintmask 1011111100000000
          -84 -3 73 -51 78 hhcurveto
          79 680 rmoveto
          -73 59 -60 73 vhcurveto
          hintmask 0111111010000000
          73 60 60 73 73 -60 59 -73 -73 -59 -59 -73 hvcurveto
          -66 -524 rmoveto
          6 50 71 22 108 9 -3 -12 rcurveline
          -92 -24 -39 -30 -54 hhcurveto
          -38 -31 20 33 4 hvcurveto
          151 524 rmoveto
          26 21 21 26 26 21 -21 -26 -26 -21 -21 -26 -26 -21 21 26 vhcurveto
          endchar
        </CharString>
        <CharString name="asciicircum">
          -20 668 -20 hstem
          49 483 vstem
          192 312 rmoveto
          99 194 98 -194 rlineto
          143 hlineto
          -185 356 rlineto
          -113 hlineto
          -185 -356 rlineto
          endchar
        </CharString>
        <CharString name="asciitilde">
          -76 167 123 -63 123 hstemhm
          9 485 hintmask 01100000
          9 184 rmoveto
          97 -38 rlineto
          68 11 23 13 24 hhcurveto
          hintmask 10100000
          57 33 -60 70 hhcurveto
          94 47 63 103 29 hvcurveto
          -98 37 rlineto
          -66 -10 -24 -14 -23 hhcurveto
          hintmask 01100000
          -48 -36 60 -75 hhcurveto
          -95 -47 -63 -103 -29 hvcurveto
          endchar
        </CharString>
        <CharString name="asterisk">
          -166 469 87 112 -20 hstem
          76 326 vstem
          402 475 rmoveto
          -10 87 -99 -11 21 99 -86 18 -21 -99 -87 50 -44 -75 88 -50 -75 -68 59 -65 74 67 41 -92 80 36 -41 92 rlineto
          endchar
        </CharString>
        <CharString name="at">
          148 -12 70 95 78 -78 97 175 93 92 70 hstemhm
          44 69 72 320 146 72 hintmask 11011111
          44 333 rmoveto
          -190 155 -155 190 48 47 10 18 41 vhcurveto
          78 vlineto
          -24 -42 -43 -12 -51 hhcurveto
          -151 -125 122 153 151 122 126 154 71 68 -27 -50 52 hvcurveto
          96 -93 -6 -163 -79 -38 rrcurveto
          -5 -10 -14 -3 -14 hhcurveto
          -30 -29 18 63 14 hvcurveto
          12 60 28 126 0 vvcurveto
          12 -35 -41 8 -41 hhcurveto
          -103 -108 -49 -152 -31 hvcurveto
          -105 -22 62 -59 73 hhcurveto
          45 49 23 48 37 hvcurveto
          -46 13 46 -25 52 hhcurveto
          73 84 49 114 18 hvcurveto
          220 35 -192 144 -173 hhcurveto
          -190 -155 -156 -191 hvcurveto
          243 -14 rmoveto
          25 110 74 4 46 -8 rrcurveto
          0 0 -3 -18 -83 vhcurveto
          hintmask 10111111
          -59 -12 -42 -30 -32 hhcurveto
          -29 -22 23 46 10 hvcurveto
          endchar
        </CharString>
        <CharString name="atilde">
          -68 -12 103 -91 91 316 103 58 80 -41 82 hstemhm
          -22 161 201 150 hintmask 10101110
          126 -12 rmoveto
          71 46 16 55 45 hvcurveto
          hintmask 01101110
          5 -59 rlineto
          144 hlineto
          43 10 85 14 65 vhcurveto
          5 27 13 55 5 27 rrcurveto
          138 31 -92 70 -134 hhcurveto
          -112 -77 -38 -78 -51 hvcurveto
          117 -46 rlineto
          40 19 40 19 43 hhcurveto
          54 28 -21 -58 -13 hvcurveto
          -3 -13 -161 -17 -190 -31 -5 -144 rlinecurve
          hintmask 10101110
          -84 -3 73 -51 78 hhcurveto
          -31 586 rmoveto
          89 hlineto
          23 14 15 10 22 hhcurveto
          hintmask 01110110
          51 14 -36 -3 68 hvcurveto
          70 -3 35 37 15 21 26 36 -32 40 -35 -11 rrcurveto
          -9 -31 -3 -31 -43 hhcurveto
          hintmask 01101110
          -40 -20 41 -79 hhcurveto
          -67 -51 -57 -58 -18 hvcurveto
          44 -430 rmoveto
          6 50 71 22 108 9 -3 -12 rcurveline
          -92 -24 -39 -30 -54 hhcurveto
          -38 -31 20 33 4 hvcurveto
          endchar
        </CharString>
        <CharString name="b">
          -16 -12 117 -84 -21 392 118 157 -20 hstemhm
          395 160 hintmask 01111000
          -20 hmoveto
          136 hlineto
          34 66 rlineto
          hintmask 10111000
          -56 36 53 -22 55 hhcurveto
          127 108 99 164 22 hvcurveto
          169 23 -88 90 -112 hhcurveto
          -53 -56 -23 -51 -37 hvcurveto
          49 231 rlineto
          -155 hlineto
          59 -412 rmoveto
          117 24 64 20 42 hhcurveto
          63 28 -58 -83 -7 hvcurveto
          -94 -9 -58 -52 -61 hhcurveto
          -60 -48 48 102 22 hvcurveto
          endchar
        </CharString>
        <CharString name="backslash">
          -25 21 -21 668 -20 hstem
          87 412 vstem
          240 668 rmoveto
          -153 hlineto
          261 -668 rlineto
          151 hlineto
          endchar
        </CharString>
        <CharString name="bar">
          -257 668 -20 hstem
          87 146 vstem
          233 -161 rmoveto
          829 -146 -829 vlineto
          endchar
        </CharString>
        <CharString name="braceleft">
          -235 -162 120 234 123 233 119 hstem
          51 151 vstem
          45 97 rmoveto
          -21 -96 rlineto
          -98 -20 46 -65 131 hhcurveto
          54 hlineto
          26 120 rlineto
          -34 hlineto
          -42 -22 7 37 8 hvcurveto
          27 125 18 85 -39 27 -46 13 rlinecurve
          1 3 51 13 50 28 19 84 rlinecurve
          26 123 rlineto
          37 8 23 8 43 hhcurveto
          33 hlineto
          26 119 rlineto
          -55 hlineto
          -117 -73 -8 -154 -34 hvcurveto
          -21 -96 rlineto
          -57 -12 -16 -37 -62 hhcurveto
          -26 -123 rlineto
          62 1 -37 -58 -13 hvcurveto
          endchar
        </CharString>
        <CharString name="braceright">
          -235 -162 120 234 123 233 119 hstem
          140 150 vstem
          -70 -162 rmoveto
          54 hlineto
          119 75 9 154 32 hvcurveto
          19 96 rlineto
          57 12 17 38 62 hhcurveto
          26 123 rlineto
          -62 0 36 58 12 hvcurveto
          20 96 rlineto
          98 20 -45 64 -130 hhcurveto
          -55 hlineto
          -25 -119 rlineto
          34 hlineto
          42 22 -7 -38 -8 hvcurveto
          -27 -124 -18 -84 39 -27 46 -13 rlinecurve
          -1 -3 -51 -13 -51 -28 -18 -85 rlinecurve
          -26 -124 rlineto
          -36 -8 -24 -8 -43 hhcurveto
          -34 hlineto
          endchar
        </CharString>
        <CharString name="bracketleft">
          -269 -161 115 598 116 hstem
          -57 435 vstem
          353 552 rmoveto
          25 116 rlineto
          -259 hlineto
          -176 -829 rlineto
          259 hlineto
          25 115 rlineto
          -128 hlineto
          127 598 rlineto
          endchar
        </CharString>
        <CharString name="bracketright">
          -267 -161 115 598 116 hstem
          -71 435 vstem
          105 668 rmoveto
          -24 -116 rlineto
          128 hlineto
          -127 -598 rlineto
          -128 hlineto
          -25 -115 rlineto
          259 hlineto
          176 829 rlineto
          endchar
        </CharString>
        <CharString name="breve">
          -224 577 111 hstem
          136 299 vstem
          136 688 rmoveto
          -65 7 56 -46 79 hhcurveto
          82 56 49 62 19 hvcurveto
          -94 hlineto
          -22 -8 -23 -15 -28 hhcurveto
          -26 -22 15 22 -5 hvcurveto
          endchar
        </CharString>
        <CharString name="breve.case">
          -267 739 111 hstem
          135 299 vstem
          135 850 rmoveto
          -65 7 56 -46 79 hhcurveto
          82 56 49 62 19 hvcurveto
          -94 hlineto
          -22 -8 -23 -15 -28 hhcurveto
          -26 -22 15 22 -5 hvcurveto
          endchar
        </CharString>
        <CharString name="brokenbar">
          -275 -161 311 208 310 0 -20 hstemhm
          87 128 hintmask 10110000
          215 -161 rmoveto
          311 -128 -311 vlineto
          829 vmoveto
          hintmask 11010000
          -310 128 310 vlineto
          endchar
        </CharString>
        <CharString name="bullet">
          -163 88 332 hstem
          41 332 vstem
          41 254 rmoveto
          -91 74 -75 92 92 74 75 91 92 -74 74 -92 -92 -74 -74 -92 vhcurveto
          endchar
        </CharString>
        <CharString name="c">
          -78 -12 117 287 118 hstem
          2 155 vstem
          223 -12 rmoveto
          85 92 29 90 64 hvcurveto
          -123 47 rlineto
          -39 -31 -31 -10 -43 hhcurveto
          -53 -42 38 106 21 hvcurveto
          106 21 62 37 54 hhcurveto
          40 29 -14 -42 10 hvcurveto
          133 46 rlineto
          97 -36 -73 31 -86 hhcurveto
          -161 -118 -99 -161 -30 hvcurveto
          -151 -28 83 -111 161 hhcurveto
          endchar
        </CharString>
        <CharString name="cacute">
          -78 -12 117 287 118 hstem
          2 155 vstem
          223 -12 rmoveto
          85 92 29 90 64 hvcurveto
          -123 47 rlineto
          -39 -31 -31 -10 -43 hhcurveto
          -53 -42 38 106 21 hvcurveto
          106 21 62 37 54 hhcurveto
          40 29 -14 -42 10 hvcurveto
          133 46 rlineto
          97 -36 -73 31 -86 hhcurveto
          -161 -118 -99 -161 -30 hvcurveto
          -151 -28 83 -111 161 hhcurveto
          46 586 rmoveto
          123 hlineto
          0 84 49 6 5 vhcurveto
          24 20 4 34 -20 24 rrcurveto
          14 -11 -16 7 -17 hhcurveto
          -12 -12 -4 -8 -10 hvcurveto
          -2 -1 -141 -140 0 vvcurveto
          endchar
        </CharString>
        <CharString name="caron">
          -133 568 152 hstem
          120 402 vstem
          120 720 rmoveto
          114 -127 rlineto
          -16 14 20 -9 20 hhcurveto
          16 15 5 10 13 hvcurveto
          190 137 rlineto
          -147 hlineto
          -84 -61 -56 61 rlineto
          endchar
        </CharString>
        <CharString name="caron.case">
          -205 725 152 hstem
          117 402 vstem
          117 877 rmoveto
          114 -127 rlineto
          -16 14 20 -9 20 hhcurveto
          16 15 5 10 13 hvcurveto
          190 137 rlineto
          -147 hlineto
          -84 -61 -56 61 rlineto
          endchar
        </CharString>
        <CharString name="caron.salt">
          -404 496 192 hstem
          75 161 vstem
          158 496 rmoveto
          72 110 rlineto
          4 6 2 9 10 vvcurveto
          25 -18 32 -36 -21 -24 -12 -26 -9 vhcurveto
          -53 -154 rlineto
          endchar
        </CharString>
        <CharString name="ccaron">
          -78 -12 117 287 118 58 152 hstem
          2 155 vstem
          223 -12 rmoveto
          85 92 29 90 64 hvcurveto
          -123 47 rlineto
          -39 -31 -31 -10 -43 hhcurveto
          -53 -42 38 106 21 hvcurveto
          106 21 62 37 54 hhcurveto
          40 29 -14 -42 10 hvcurveto
          133 46 rlineto
          97 -36 -73 31 -86 hhcurveto
          -161 -118 -99 -161 -30 hvcurveto
          -151 -28 83 -111 161 hhcurveto
          -53 732 rmoveto
          114 -127 rlineto
          -16 14 20 -9 20 hhcurveto
          16 15 5 10 13 hvcurveto
          190 137 rlineto
          -147 hlineto
          -84 -61 -56 61 rlineto
          endchar
        </CharString>
        <CharString name="ccedilla">
          -78 -194 54 57 40 31 117 -92 -21 400 118 hstemhm
          2 155 54 91 hintmask 11011110
          170 -8 rmoveto
          -40 -48 -14 -17 15 -19 17 5 rlinecurve
          2 8 8 2 8 hhcurveto
          23 18 -11 -16 -2 hvcurveto
          -21 -2 -23 -9 -27 hhcurveto
          -20 -22 5 8 -18 hvcurveto
          -26 -50 rlineto
          -8 17 38 -9 41 hhcurveto
          60 66 19 64 7 hvcurveto
          5 53 -53 23 -59 -11 rrcurveto
          hintmask 11101110
          28 34 rlineto
          85 92 29 90 64 hvcurveto
          -123 47 rlineto
          -39 -31 -31 -10 -43 hhcurveto
          -53 -42 38 106 21 hvcurveto
          106 21 62 37 54 hhcurveto
          40 29 -14 -42 10 hvcurveto
          133 46 rlineto
          97 -36 -73 31 -86 hhcurveto
          -161 -118 -99 -161 -30 hvcurveto
          hintmask 11011110
          -25 -133 62 -103 126 -22 rrcurveto
          endchar
        </CharString>
        <CharString name="cdotaccent">
          -78 -12 117 287 118 74 141 hstem
          2 155 125 141 vstem
          223 -12 rmoveto
          85 92 29 90 64 hvcurveto
          -123 47 rlineto
          -39 -31 -31 -10 -43 hhcurveto
          -53 -42 38 106 21 hvcurveto
          106 21 62 37 54 hhcurveto
          40 29 -14 -42 10 hvcurveto
          133 46 rlineto
          97 -36 -73 31 -86 hhcurveto
          -161 -118 -99 -161 -30 hvcurveto
          -151 -28 83 -111 161 hhcurveto
          59 666 rmoveto
          -39 32 -31 39 39 31 31 39 39 -31 32 -39 -39 -32 -32 -39 vhcurveto
          endchar
        </CharString>
        <CharString name="cedilla">
          -287 -195 54 57 40 66 -21 hstem
          103 91 vstem
          -35 -178 rmoveto
          -8 17 38 -9 41 hhcurveto
          60 66 19 64 7 hvcurveto
          5 53 -53 23 -59 -11 40 48 rcurveline
          -36 25 -69 -83 -14 -17 15 -19 17 5 rlinecurve
          2 8 8 2 8 hhcurveto
          23 18 -11 -16 -2 hvcurveto
          -21 -2 -23 -9 -27 hhcurveto
          -20 -22 5 8 -18 hvcurveto
          endchar
        </CharString>
        <CharString name="cent">
          -78 9 -21 25 -21 515 -20 20 64 hstem
          2 154 vstem
          172 -8 rmoveto
          -17 -79 rlineto
          74 hlineto
          16 75 78 5 82 31 59 83 rlinecurve
          -123 48 -22 -28 -22 -13 -27 -5 rlinecurve
          59 279 24 -6 17 -16 8 -31 rlinecurve
          133 46 -31 82 -56 35 -70 9 rlinecurve
          14 64 rlineto
          -73 hlineto
          -13 -63 -144 -13 -103 -96 -28 -148 rlinecurve
          -24 -135 61 -102 128 -22 rrcurveto
          -10 258 rmoveto
          16 77 37 39 40 17 -57 -269 rcurveline
          -33 16 -19 41 16 79 rrcurveto
          endchar
        </CharString>
        <CharString name="circumflex">
          -129 574 152 hstem
          89 406 vstem
          236 574 rmoveto
          84 61 59 -61 rlineto
          116 hlineto
          -118 127 rlineto
          17 -15 -20 8 -20 hhcurveto
          -16 -15 -5 -10 -13 hvcurveto
          -189 -137 rlineto
          endchar
        </CharString>
        <CharString name="circumflex.case">
          -201 731 152 hstem
          86 406 vstem
          233 731 rmoveto
          84 61 59 -61 rlineto
          116 hlineto
          -118 127 rlineto
          17 -15 -20 8 -20 hhcurveto
          -16 -15 -5 -10 -13 hvcurveto
          -189 -137 rlineto
          endchar
        </CharString>
        <CharString name="colon">
          -328 -12 195 -174 -21 328 195 0 -20 hstemhm
          -9 195 -125 195 hintmask 01011000
          hintmask 01100100
          159 316 rmoveto
          54 43 44 53 54 -43 44 -54 -54 -44 -44 -54 -53 44 -44 54 hvcurveto
          hintmask 01011000
          -168 -230 rmoveto
          -54 44 -44 54 53 44 44 54 vhcurveto
          hintmask 10011000
          54 -44 43 -53 vhcurveto
          hintmask 01011000
          -54 -44 -43 -54 hvcurveto
          endchar
        </CharString>
        <CharString name="comma">
          -327 17 -21 hstem
          -40 228 vstem
          59 -146 rmoveto
          113 179 6 10 4 12 3 12 rlinecurve
          13 52 -38 52 -53 10 -53 10 -51 -35 -10 -53 -9 -45 25 -44 40 -18 -89 -142 rcurveline
          endchar
        </CharString>
        <CharString name="copyleft">
          -12 69 88 85 207 85 88 69 hstem
          348.0791 -12 rmoveto
          -192 0 -127.66895 155 33.67773 191 33.50195 190 182.33105 155 192 0 190 0 127.66895 -155 -33.50195 -190 -33.67773 -191 -182.33105 -155 -190 0 rrcurveto
          336.00879 346 rmoveto
          26.80176 152 -102.13477 124 -151 0 -153 0 -145.86523 -124 -26.80176 -152 -26.97754 -153 102.13477 -124 153 0 151 0 145.86523 124 26.97754 153 rrcurveto
          -311.3252 -189 rmoveto
          -58 0 -63.1211 22 -25.71484 64 rrcurveto
          95.81836 33 rlineto
          8.29688 -21 19.70801 -13 32 0 38 0 43.58496 26 13.75293 78 13.22461 75 -33.0625 28 -39 0 -29 0 -26.11621 -12 -17.46582 -31 rrcurveto
          -86.00488 34 rlineto
          45.34277 70 72.23145 24 62 0 108 0 61.77539 -75 -19.9248 -113 -19.9248 -113 -79.40039 -76 -117 0 rrcurveto
          endchar
        </CharString>
        <CharString name="copyright">
          205 -12 69 88 85 207 85 88 69 hstem
          62 70 95 112 345 70 vstem
          407 -12 rmoveto
          192 155 155 191 190 -155 155 -192 -190 -155 -155 -190 -191 155 -155 190 hvcurveto
          -275 346 rmoveto
          152 124 124 151 153 124 -124 -152 -153 -124 -124 -153 -151 -124 124 153 vhcurveto
          278 -189 rmoveto
          58 67 22 64 37 hvcurveto
          -90 33 rlineto
          -21 -12 -22 -13 -32 hhcurveto
          -38 -39 26 78 75 38 28 39 29 24 -12 -31 12 hvcurveto
          92 34 rlineto
          70 -33 -68 24 -62 hhcurveto
          -108 -75 -75 -113 -113 66 -76 117 hvcurveto
          endchar
        </CharString>
        <CharString name="currency">
          69 102 119 198 120 -41 -20 hstemhm
          118 120 198 119 hintmask 10111000
          159 446 rmoveto
          -26 -36 -15 -43 -46 vvcurveto
          -48 15 -43 26 -36 vhcurveto
          -67 -67 52 -52 67 67 rlineto
          -26 36 43 -14 47 hhcurveto
          48 42 14 26 36 hvcurveto
          67 -67 52 52 -67 67 rlineto
          25 36 15 43 48 vvcurveto
          46 -14 43 -26 36 vhcurveto
          67 67 -52 52 -67 -67 rlineto
          hintmask 11011000
          26 -36 -42 15 -48 hhcurveto
          hintmask 10111000
          -47 -43 -15 -26 -36 hvcurveto
          -67 67 -52 -52 rlineto
          146 -192 rmoveto
          hintmask 11011000
          54 44 44 55 54 45 -44 -54 -55 -45 -45 -54 -55 -44 45 55 vhcurveto
          endchar
        </CharString>
        <CharString name="d">
          -17 -12 117 -105 105 287 118 157 -20 hstemhm
          3 159 174 151 hintmask 10111100
          187 -12 rmoveto
          53 52 21 54 42 hvcurveto
          hintmask 01111100
          5 -63 rlineto
          149 hlineto
          1 72 13 71 10 50 rrcurveto
          23 118 78 356 0 vvcurveto
          -155 hlineto
          -53 -246 rlineto
          55 -21 -54 34 -64 hhcurveto
          -131 -99 -97 -158 -27 hvcurveto
          hintmask 10111100
          -163 -28 78 -104 128 hhcurveto
          -20 277 rmoveto
          88 17 48 39 61 hhcurveto
          45 55 -34 -97 -13 hvcurveto
          -103 -14 -55 -53 -60 hhcurveto
          -78 -22 77 83 16 hvcurveto
          endchar
        </CharString>
        <CharString name="dagger">
          -15 22 -21 379 116 172 -20 hstem
          52 536 vstem
          236 380 rmoveto
          -81 -379 rlineto
          145 hlineto
          80 379 rlineto
          184 hlineto
          24 116 rlineto
          -183 hlineto
          37 172 rlineto
          -145 hlineto
          -37 -172 rlineto
          -183 hlineto
          -25 -116 rlineto
          endchar
        </CharString>
        <CharString name="daggerdbl">
          -14 22 -21 172 115 92 116 172 -20 hstem
          8 581 vstem
          192 173 rmoveto
          -37 -172 rlineto
          146 hlineto
          35 172 rlineto
          184 hlineto
          24 115 rlineto
          -183 hlineto
          20 92 rlineto
          183 hlineto
          25 116 rlineto
          -184 hlineto
          37 172 rlineto
          -145 hlineto
          -37 -172 rlineto
          -183 hlineto
          -25 -116 rlineto
          184 hlineto
          -20 -92 rlineto
          -183 hlineto
          -25 -115 rlineto
          endchar
        </CharString>
        <CharString name="dcaron">
          46 -12 117 -105 105 287 118 -14 171 hstemhm
          3 159 174 151 hintmask 10011100
          458 667 rmoveto
          -53 -246 rlineto
          hintmask 10101100
          55 -21 -54 34 -64 hhcurveto
          -131 -99 -97 -158 -27 hvcurveto
          -163 -28 78 -104 128 hhcurveto
          53 52 21 54 42 hvcurveto
          hintmask 01011100
          5 -63 rlineto
          149 hlineto
          1 72 13 71 10 50 rrcurveto
          23 118 78 356 0 vvcurveto
          -233 -406 rmoveto
          -103 -14 -55 -53 -60 hhcurveto
          -78 -22 77 83 16 hvcurveto
          hintmask 10101100
          88 17 48 39 61 hhcurveto
          45 55 -34 -97 -13 hvcurveto
          hintmask 10011100
          310 235 rmoveto
          72 110 rlineto
          4 6 2 9 10 vvcurveto
          25 -18 32 -36 -21 -24 -12 -26 -9 vhcurveto
          -53 -154 rlineto
          endchar
        </CharString>
        <CharString name="dcroat">
          -20 -13 118 -106 106 287 118 45 78 hstemhm
          3 155 179 151 hintmask 10111100
          187 -13 rmoveto
          54 52 22 54 42 hvcurveto
          hintmask 01111100
          5 -64 rlineto
          149 hlineto
          1 73 13 71 10 50 14 71 36 168 26 123 rrcurveto
          67 hlineto
          17 78 rlineto
          -67 hlineto
          9 40 5 25 0 vvcurveto
          -155 hlineto
          -14 -65 rlineto
          -147 hlineto
          -17 -78 rlineto
          148 hlineto
          -29 -134 rlineto
          55 -21 -54 34 -64 hhcurveto
          -132 -99 -97 -158 -27 hvcurveto
          hintmask 10111100
          -163 -28 78 -105 128 hhcurveto
          -24 278 rmoveto
          88 17 49 39 61 hhcurveto
          45 55 -34 -97 -13 hvcurveto
          -103 -14 -55 -53 -60 hhcurveto
          -79 -22 77 83 16 hvcurveto
          endchar
        </CharString>
        <CharString name="degree">
          -198 354 90 146 89 hstem
          83 89 146 89 vstem
          83 517 rmoveto
          -90 73 -73 89 90 72 73 90 89 -72 73 -90 -89 -73 -73 -89 vhcurveto
          162 73 rmoveto
          41 32 -33 -40 -40 -32 -33 -41 -40 -33 33 40 40 33 33 40 hvcurveto
          endchar
        </CharString>
        <CharString name="dieresis">
          -154 578 141 hstem
          128 141 53 140 vstem
          128 648 rmoveto
          -39 32 -31 39 39 31 31 39 39 -31 32 -39 -39 -32 -32 -39 vhcurveto
          265 -70 rmoveto
          38 31 31 39 39 -31 32 -38 -39 -32 -32 -39 -39 32 -31 39 hvcurveto
          endchar
        </CharString>
        <CharString name="dieresis.case">
          -240 726 141 hstem
          116 141 53 140 vstem
          116 796 rmoveto
          -39 32 -31 39 39 31 31 39 39 -31 32 -39 -39 -32 -32 -39 vhcurveto
          265 -70 rmoveto
          38 31 31 39 39 -31 32 -38 -39 -32 -32 -39 -39 32 -31 39 hvcurveto
          endchar
        </CharString>
        <CharString name="divide">
          36 -12 159 39 128 37 159 hstem
          217 158 vstem
          40 186 rmoveto
          512 128 -512 hlineto
          256 37 rmoveto
          43 36 36 44 44 -36 35 -43 -43 -36 -35 -44 -44 36 -36 43 hvcurveto
          -363 vmoveto
          43 36 36 44 43 -36 36 -43 -43 -36 -36 -43 -44 36 -36 43 hvcurveto
          endchar
        </CharString>
        <CharString name="dollar">
          34 -11 126 -95 -21 553 128 hstemhm
          425 163 hintmask 01110000
          207 -1 rmoveto
          -19 -85 rlineto
          76 hlineto
          hintmask 10110000
          16 75 168 -9 130 78 10 129 rlinecurve
          13 145 -127 35 -107 31 30 140 rcurveline
          25 -11 21 -18 9 -25 155 52 rcurveline
          -41 77 -68 41 -73 17 16 76 rcurveline
          -75 hlineto
          -14 -67 rlineto
          -181 -96 -78 -97 -12 hvcurveto
          -18 -146 116 -45 105 -34 -31 -150 rcurveline
          -34 15 -28 26 -8 39 -155 -53 rcurveline
          hintmask 01110000
          31 -80 70 -55 96 -23 rrcurveto
          130 257 rmoveto
          51 -18 37 -21 -38 vvcurveto
          hintmask 10110000
          -42 -57 -24 -61 2 vhcurveto
          -83 378 rmoveto
          33 35 24 65 2 vhcurveto
          -28 -131 rlineto
          -42 16 -30 20 36 vvcurveto
          endchar
        </CharString>
        <CharString name="dotaccent">
          -405 578 141 hstem
          99 141 vstem
          99 648 rmoveto
          -39 32 -31 39 39 31 31 39 39 -31 32 -39 -39 -32 -32 -39 vhcurveto
          endchar
        </CharString>
        <CharString name="dotaccent.case">
          -261 726 141 hstem
          205 141 vstem
          205 796 rmoveto
          -39 32 -31 39 39 31 31 39 39 -31 32 -39 -39 -32 -32 -39 vhcurveto
          endchar
        </CharString>
        <CharString name="dotlessi">
          21 -21 380 116 hstem
          26 283 vstem
          26 380 rmoveto
          103 hlineto
          -81 -380 rlineto
          156 hlineto
          105 496 rlineto
          -258 hlineto
          endchar
        </CharString>
        <CharString name="e">
          -42 -12 118 103 90 100 111 hstem
          395 135 vstem
          229 -12 rmoveto
          101 85 39 71 57 hvcurveto
          -114 44 rlineto
          -23 -23 -41 -13 -41 hhcurveto
          -58 -54 29 74 13 hvcurveto
          365 hlineto
          179 43 -82 122 -173 hhcurveto
          -175 -104 -128 -134 -21 hvcurveto
          -164 -25 90 -96 157 hhcurveto
          166 311 rmoveto
          -227 hlineto
          66 19 61 34 54 hhcurveto
          54 46 -33 -67 -7 hvcurveto
          endchar
        </CharString>
        <CharString name="eacute">
          -42 -12 118 103 90 100 111 64 153 hstem
          395 135 vstem
          229 -12 rmoveto
          101 85 39 71 57 hvcurveto
          -114 44 rlineto
          -23 -23 -41 -13 -41 hhcurveto
          -58 -54 29 74 13 hvcurveto
          365 hlineto
          179 43 -82 122 -173 hhcurveto
          -175 -104 -128 -134 -21 hvcurveto
          -164 -25 90 -96 157 hhcurveto
          166 311 rmoveto
          -227 hlineto
          66 19 61 34 54 hhcurveto
          54 46 -33 -67 -7 hvcurveto
          -121 275 rmoveto
          123 hlineto
          0 84 49 6 5 vhcurveto
          24 20 4 34 -20 24 rrcurveto
          14 -11 -16 7 -17 hhcurveto
          -12 -12 -4 -8 -10 hvcurveto
          -2 -1 -141 -140 0 vvcurveto
          endchar
        </CharString>
        <CharString name="ecaron">
          -42 -12 118 103 90 100 111 58 152 hstem
          395 135 vstem
          229 -12 rmoveto
          101 85 39 71 57 hvcurveto
          -114 44 rlineto
          -23 -23 -41 -13 -41 hhcurveto
          -58 -54 29 74 13 hvcurveto
          365 hlineto
          179 43 -82 122 -173 hhcurveto
          -175 -104 -128 -134 -21 hvcurveto
          -164 -25 90 -96 157 hhcurveto
          -53 732 rmoveto
          114 -127 rlineto
          -16 14 20 -9 20 hhcurveto
          16 15 5 10 13 hvcurveto
          190 137 rlineto
          -147 hlineto
          -84 -61 -56 61 rlineto
          104 -421 rmoveto
          -227 hlineto
          66 19 61 34 54 hhcurveto
          54 46 -33 -67 -7 hvcurveto
          endchar
        </CharString>
        <CharString name="ecircumflex">
          -42 -12 118 103 90 100 111 64 152 hstem
          395 135 vstem
          229 -12 rmoveto
          101 85 39 71 57 hvcurveto
          -114 44 rlineto
          -23 -23 -41 -13 -41 hhcurveto
          -58 -54 29 74 13 hvcurveto
          365 hlineto
          179 43 -82 122 -173 hhcurveto
          -175 -104 -128 -134 -21 hvcurveto
          -164 -25 90 -96 157 hhcurveto
          43 586 rmoveto
          84 61 59 -61 rlineto
          116 hlineto
          -118 127 rlineto
          17 -15 -20 8 -20 hhcurveto
          -16 -15 -5 -10 -13 hvcurveto
          -189 -137 rlineto
          43 -275 rmoveto
          66 19 61 34 54 hhcurveto
          54 46 -33 -67 -7 hvcurveto
          endchar
        </CharString>
        <CharString name="edieresis">
          -42 -12 118 103 90 100 111 68 141 hstemhm
          187 141 53 140 -126 135 hintmask 11111010
          229 -12 rmoveto
          101 85 39 71 57 hvcurveto
          -114 44 rlineto
          -23 -23 -41 -13 -41 hhcurveto
          -58 -54 29 74 13 hvcurveto
          365 hlineto
          179 43 -82 122 -173 hhcurveto
          -175 -104 -128 -134 -21 hvcurveto
          -164 -25 90 -96 157 hhcurveto
          -61 311 rmoveto
          66 19 61 34 54 hhcurveto
          54 46 -33 -67 -7 hvcurveto
          -137 279 rmoveto
          39 31 31 39 39 -31 32 -39 -39 -32 -32 -39 -39 32 -31 39 hvcurveto
          hintmask 11111100
          123 70 rmoveto
          -39 32 -31 39 38 31 31 39 39 -31 32 -38 -39 -32 -32 -39 vhcurveto
          endchar
        </CharString>
        <CharString name="edotaccent">
          -42 -12 118 103 90 100 111 74 141 hstemhm
          289 141 -35 135 hintmask 11110100
          229 -12 rmoveto
          101 85 39 71 57 hvcurveto
          -114 44 rlineto
          -23 -23 -41 -13 -41 hhcurveto
          -58 -54 29 74 13 hvcurveto
          365 hlineto
          179 43 -82 122 -173 hhcurveto
          -175 -104 -128 -134 -21 hvcurveto
          -164 -25 90 -96 157 hhcurveto
          166 311 rmoveto
          -227 hlineto
          66 19 61 34 54 hhcurveto
          54 46 -33 -67 -7 hvcurveto
          hintmask 11111000
          -106 355 rmoveto
          -39 32 -31 39 39 31 31 39 39 -31 32 -39 -39 -32 -32 -39 vhcurveto
          endchar
        </CharString>
        <CharString name="egrave">
          -42 -12 118 103 90 100 111 64 153 hstem
          395 135 vstem
          229 -12 rmoveto
          101 85 39 71 57 hvcurveto
          -114 44 rlineto
          -23 -23 -41 -13 -41 hhcurveto
          -58 -54 29 74 13 hvcurveto
          365 hlineto
          179 43 -82 122 -173 hhcurveto
          -175 -104 -128 -134 -21 hvcurveto
          -164 -25 90 -96 157 hhcurveto
          -61 311 rmoveto
          66 19 61 34 54 hhcurveto
          54 46 -33 -67 -7 hvcurveto
          -190 336 rmoveto
          17 -20 50 -41 0 vvcurveto
          108 hlineto
          0 -63 100 -25 32 vhcurveto
          14 -11 -16 7 -16 hhcurveto
          -12 -13 -4 -9 -10 hvcurveto
          -24 -20 -4 -34 19 -25 rrcurveto
          endchar
        </CharString>
        <CharString name="eight">
          14 -12 126 180 123 138 125 hstemhm
          13 154 -46 125 136 125 -105 154 hintmask 11110010
          274 -12 rmoveto
          167 103 85 128 12 hvcurveto
          8 87 -51 54 -58 31 rrcurveto
          hintmask 11101100
          26 26 20 45 6 50 rrcurveto
          91 11 -72 95 -112 hhcurveto
          -126 -81 -95 -99 -6 hvcurveto
          -2 -40 11 -37 17 -31 rrcurveto
          hintmask 11110010
          -80 -42 -48 -53 -6 -82 rrcurveto
          -125 -9 101 -88 169 hhcurveto
          -107 218 rmoveto
          56 5 49 32 70 hhcurveto
          68 49 -32 -56 -6 hvcurveto
          -54 -6 -48 -38 -68 hhcurveto
          -70 -48 37 55 5 hvcurveto
          hintmask 11101100
          79 280 rmoveto
          39 4 34 30 37 hhcurveto
          38 27 -30 -39 -4 hvcurveto
          -38 -4 -34 -31 -37 hhcurveto
          -37 -28 31 38 4 hvcurveto
          endchar
        </CharString>
        <CharString name="eight.tf">
          31 -12 126 180 123 138 125 hstemhm
          20 154 -46 125 136 125 -105 154 hintmask 11110010
          281 -12 rmoveto
          167 103 85 128 12 hvcurveto
          8 87 -51 54 -58 31 rrcurveto
          hintmask 11101100
          26 26 20 45 6 50 rrcurveto
          91 11 -72 95 -112 hhcurveto
          -126 -81 -95 -99 -6 hvcurveto
          -2 -40 11 -37 17 -31 rrcurveto
          hintmask 11110010
          -80 -42 -48 -53 -6 -82 rrcurveto
          -125 -9 101 -88 169 hhcurveto
          -107 218 rmoveto
          56 5 49 32 70 hhcurveto
          68 49 -32 -56 -6 hvcurveto
          -54 -6 -48 -38 -68 hhcurveto
          -70 -48 37 55 5 hvcurveto
          hintmask 11101100
          79 280 rmoveto
          39 4 34 30 37 hhcurveto
          38 27 -30 -39 -4 hvcurveto
          -38 -4 -34 -31 -37 hhcurveto
          -37 -28 31 38 4 hvcurveto
          endchar
        </CharString>
        <CharString name="ellipsis">
          198 -12 196 hstem
          -9 195 69 194 68 195 vstem
          517 86 rmoveto
          -54 44 -44 54 54 43 44 54 54 -43 44 -54 -54 -44 -44 -54 vhcurveto
          -526 hmoveto
          -54 44 -44 54 53 44 44 54 54 -44 44 -53 -54 -44 -44 -54 vhcurveto
          264 hmoveto
          -54 42 -44 54 54 44 44 54 54 -44 44 -54 -54 -42 -44 -54 vhcurveto
          endchar
        </CharString>
        <CharString name="emacron">
          -42 -12 118 103 90 100 111 60 98 hstem
          395 135 vstem
          229 -12 rmoveto
          101 85 39 71 57 hvcurveto
          -114 44 rlineto
          -23 -23 -41 -13 -41 hhcurveto
          -58 -54 29 74 13 hvcurveto
          365 hlineto
          179 43 -82 122 -173 hhcurveto
          -175 -104 -128 -134 -21 hvcurveto
          -164 -25 90 -96 157 hhcurveto
          261 582 rmoveto
          21 98 rlineto
          -299 hlineto
          -21 -98 rlineto
          -23 -271 rmoveto
          66 19 61 34 54 hhcurveto
          54 46 -33 -67 -7 hvcurveto
          endchar
        </CharString>
        <CharString name="emdash">
          261 185 128 hstem
          38 760 vstem
          798 185 rmoveto
          128 -760 -128 vlineto
          endchar
        </CharString>
        <CharString name="endash">
          -73 185 128 hstem
          38 426 vstem
          464 185 rmoveto
          128 -426 -128 vlineto
          endchar
        </CharString>
        <CharString name="eogonek">
          -42 -173 76 111 -21 216 90 100 111 hstem
          395 135 vstem
          169 -7 rmoveto
          -38 -15 -32 -33 -4 -29 rrcurveto
          -39 -6 21 -50 109 hhcurveto
          25 39 5 4 17 hvcurveto
          16 76 rlineto
          -3 -9 -23 -6 -19 hhcurveto
          -22 -25 4 24 5 hvcurveto
          6 24 47 29 53 18 57 17 49 33 37 46 -114 44 rcurveline
          -23 -23 -41 -13 -41 hhcurveto
          -58 -54 29 74 13 hvcurveto
          365 hlineto
          179 43 -82 122 -173 hhcurveto
          -175 -104 -128 -134 -21 hvcurveto
          -22 -142 65 -91 119 -22 rrcurveto
          226 306 rmoveto
          -227 hlineto
          66 19 61 34 54 hhcurveto
          54 46 -33 -67 -7 hvcurveto
          endchar
        </CharString>
        <CharString name="equal">
          76 96 129 58 127 hstem
          60 512 vstem
          60 225 rmoveto
          -129 512 129 vlineto
          58 vmoveto
          127 -512 -127 vlineto
          endchar
        </CharString>
        <CharString name="estimated">
          1 -12 70 191 66 125 70 hstem
          30 137 248 137 vstem
          292 -12 rmoveto
          89 79 46 69 47 hvcurveto
          -68 25 rlineto
          -43 -35 -54 -27 -58 hhcurveto
          -48 -44 17 29 -33 hvcurveto
          145 385 vlineto
          144 -117 117 -143 -145 -117 -117 -144 -144 117 -117 145 vhcurveto
          -125 406 rmoveto
          29 33 44 17 48 hhcurveto
          46 44 -17 -29 33 hvcurveto
          -79 -248 vlineto
          endchar
        </CharString>
        <CharString name="eth">
          -27 -12 113 237 118 148 122 -53 -20 hstemhm
          2 140 267 138 hintmask 11011100
          228 -12 rmoveto
          163 139 111 272 17 hvcurveto
          6 89 -17 101 -66 72 65 53 rcurveline
          -37 48 -74 -61 rlineto
          hintmask 11101100
          -47 30 -62 20 -82 3 -26 -122 rcurveline
          46 36 -8 -12 26 hvcurveto
          -63 -54 37 -47 77 64 44 -48 0 -70 -1 -45 rlinecurve
          44 -27 -65 28 -55 hhcurveto
          -120 -105 -65 -136 -29 hvcurveto
          -111 -24 47 -156 197 hhcurveto
          -86 232 rmoveto
          69 7 46 49 66 hhcurveto
          64 39 -46 -72 -8 hvcurveto
          -81 -9 -41 -38 -69 hhcurveto
          -60 -42 51 68 7 hvcurveto
          endchar
        </CharString>
        <CharString name="exclam">
          -312 -12 196 -175 -21 680 -20 hstemhm
          -2 195 hintmask 01110000
          70 243 rmoveto
          115 hlineto
          95 253 37 172 rlineto
          -198 hlineto
          -37 -172 rlineto
          -84 -410 rmoveto
          -54 44 -44 54 53 44 44 54 vhcurveto
          hintmask 10110000
          54 -44 44 -53 vhcurveto
          hintmask 01110000
          -54 -44 -44 -54 hvcurveto
          endchar
        </CharString>
        <CharString name="exclamdown">
          -312 -162 680 -194 194 hstemhm
          68 194 hintmask 10100000
          142 -162 rmoveto
          37 173 12 253 rlineto
          -115 hlineto
          -95 -253 -37 -173 rlineto
          hintmask 01100000
          124 582 rmoveto
          -54 44 -42 53 54 43 42 54 54 -43 44 -54 -53 -44 -44 -54 vhcurveto
          endchar
        </CharString>
        <CharString name="f">
          -230 21 -21 380 116 112 119 hstem
          18 416 vstem
          18 hmoveto
          155 hlineto
          0 45 215 35 165 vhcurveto
          107 hlineto
          25 116 rlineto
          -107 hlineto
          2 12 3 10 2 9 rrcurveto
          72 16 5 9 62 hhcurveto
          41 hlineto
          25 119 rlineto
          -68 hlineto
          -164 -30 -31 -138 -35 hvcurveto
          -13 -62 rlineto
          -81 hlineto
          -24 -116 rlineto
          80 hlineto
          endchar
        </CharString>
        <CharString name="five">
          7 -12 112 237 111 96 124 hstem
          386 158 vstem
          17 142 rmoveto
          -101 28 110 -53 113 hhcurveto
          125 128 67 143 20 hvcurveto
          175 24 -118 75 -114 hhcurveto
          -41 -42 -10 -19 -33 hvcurveto
          42 125 rlineto
          301 hlineto
          26 124 rlineto
          -430 hlineto
          -115 -341 127 -51 rlineto
          40 21 45 21 43 hhcurveto
          62 59 -43 -95 -12 hvcurveto
          -66 -9 -54 -33 -54 hhcurveto
          -51 -51 30 59 -11 hvcurveto
          endchar
        </CharString>
        <CharString name="five.tf">
          31 -12 112 237 111 96 124 hstem
          401 158 vstem
          32 142 rmoveto
          -101 28 110 -53 113 hhcurveto
          125 128 67 143 20 hvcurveto
          175 24 -118 75 -114 hhcurveto
          -41 -42 -10 -19 -33 hvcurveto
          42 125 rlineto
          301 hlineto
          26 124 rlineto
          -430 hlineto
          -115 -341 127 -51 rlineto
          40 21 45 21 43 hhcurveto
          62 59 -43 -95 -12 hvcurveto
          -66 -9 -54 -33 -54 hhcurveto
          -51 -51 30 59 -11 hvcurveto
          endchar
        </CharString>
        <CharString name="florin">
          -220 -172 141 412 115 112 121 hstem
          -87 532 vstem
          -87 -164 rmoveto
          -5 22 28 -3 27 hhcurveto
          28 26 3 6 18 hvcurveto
          53 18 47 50 17 79 84 397 rcurveline
          108 hlineto
          24 115 rlineto
          -108 hlineto
          15 68 rlineto
          37 8 13 7 54 hhcurveto
          42 hlineto
          26 121 rlineto
          -69 hlineto
          -134 -64 -34 -117 -25 hvcurveto
          -18 -82 rlineto
          -82 hlineto
          -24 -115 rlineto
          82 hlineto
          -73 -342 -7 -36 -7 -17 -22 -12 rlinecurve
          -14 -8 -25 -1 -22 4 rrcurveto
          endchar
        </CharString>
        <CharString name="four">
          37 21 -21 141 134 393 -20 hstem
          -16 616 vstem
          324 141 rmoveto
          -30 -141 rlineto
          156 hlineto
          30 141 rlineto
          92 hlineto
          28 134 rlineto
          -92 hlineto
          84 393 rlineto
          -171 hlineto
          -414 -416 -23 -111 rlineto
          209 134 rmoveto
          201 194 -42 -194 rlineto
          endchar
        </CharString>
        <CharString name="four.tf">
          31 21 -21 141 134 393 -20 hstem
          -13 616 vstem
          327 141 rmoveto
          -30 -141 rlineto
          156 hlineto
          30 141 rlineto
          92 hlineto
          28 134 rlineto
          -92 hlineto
          84 393 rlineto
          -171 hlineto
          -414 -416 -23 -111 rlineto
          209 134 rmoveto
          201 194 -42 -194 rlineto
          endchar
        </CharString>
        <CharString name="fraction">
          -127 21 -21 668 -20 hstem
          -55 594 vstem
          413 668 rmoveto
          -468 -668 rlineto
          127 hlineto
          467 668 rlineto
          endchar
        </CharString>
        <CharString name="g">
          -14 -207 119 105 114 264 116 -15 -20 hstemhm
          7 158 hintmask 11011000
          477 18 rmoveto
          26 119 75 359 0 vvcurveto
          -134 hlineto
          -34 -67 rlineto
          hintmask 11101000
          53 -26 -57 29 -64 hhcurveto
          -105 -121 -78 -175 -27 hvcurveto
          -151 -23 97 -90 104 hhcurveto
          54 54 24 50 42 hvcurveto
          0 -14 -65 -4 -20 vhcurveto
          -65 -14 -57 -29 -52 hhcurveto
          -39 -36 17 30 -9 hvcurveto
          -134 -44 rlineto
          -75 23 93 -47 100 hhcurveto
          118 127 65 160 37 hvcurveto
          -309 248 rmoveto
          89 13 55 40 61 hhcurveto
          60 41 -43 -89 -17 hvcurveto
          -98 -19 -54 -34 -60 hhcurveto
          -56 -37 51 84 13 hvcurveto
          endchar
        </CharString>
        <CharString name="gbreve">
          -14 -207 119 105 114 264 116 -15 -20 101 111 hstemhm
          7 158 hintmask 11011100
          477 18 rmoveto
          26 119 75 359 0 vvcurveto
          -134 hlineto
          -34 -67 rlineto
          hintmask 11101100
          53 -26 -57 29 -64 hhcurveto
          -105 -121 -78 -175 -27 hvcurveto
          -151 -23 97 -90 104 hhcurveto
          54 54 24 50 42 hvcurveto
          0 -14 -65 -4 -20 vhcurveto
          -65 -14 -57 -29 -52 hhcurveto
          -39 -36 17 30 -9 hvcurveto
          -134 -44 rlineto
          -75 23 93 -47 100 hhcurveto
          118 127 65 160 37 hvcurveto
          -309 248 rmoveto
          89 13 55 40 61 hhcurveto
          60 41 -43 -89 -17 hvcurveto
          -98 -19 -54 -34 -60 hhcurveto
          -56 -37 51 84 13 hvcurveto
          174 311 rmoveto
          82 56 49 62 19 hvcurveto
          -94 hlineto
          -22 -8 -23 -15 -28 hhcurveto
          -26 -22 15 22 -5 hvcurveto
          -93 hlineto
          -65 7 56 -46 79 hhcurveto
          endchar
        </CharString>
        <CharString name="gdotaccent">
          -14 -207 119 105 114 264 116 -15 -20 102 141 hstemhm
          7 158 121 141 hintmask 11011110
          477 18 rmoveto
          26 119 75 359 0 vvcurveto
          -134 hlineto
          -34 -67 rlineto
          hintmask 11101110
          53 -26 -57 29 -64 hhcurveto
          -105 -121 -78 -175 -27 hvcurveto
          -151 -23 97 -90 104 hhcurveto
          54 54 24 50 42 hvcurveto
          0 -14 -65 -4 -20 vhcurveto
          -65 -14 -57 -29 -52 hhcurveto
          -39 -36 17 30 -9 hvcurveto
          -134 -44 rlineto
          -75 23 93 -47 100 hhcurveto
          118 127 65 160 37 hvcurveto
          -309 248 rmoveto
          89 13 55 40 61 hhcurveto
          60 41 -43 -89 -17 hvcurveto
          -98 -19 -54 -34 -60 hhcurveto
          -56 -37 51 84 13 hvcurveto
          118 382 rmoveto
          -39 32 -31 39 39 31 31 39 39 -31 32 -39 -39 -32 -32 -39 vhcurveto
          endchar
        </CharString>
        <CharString name="germandbls">
          33 -11 123 -91 -21 298 117 151 113 hstemhm
          -23 625 -178 161 hintmask 01111000
          134 hmoveto
          90 424 rlineto
          109 23 38 33 80 hhcurveto
          67 22 -34 -34 -4 hvcurveto
          -49 -6 -44 -34 -72 hhcurveto
          -26 hlineto
          -25 -117 rlineto
          30 hlineto
          hintmask 10110100
          81 41 -29 -65 -5 hvcurveto
          -60 -4 -43 -32 -65 hhcurveto
          -21 -24 4 7 -26 hvcurveto
          12 -134 149 -11 164 32 19 200 rlinecurve
          7 75 -29 60 -47 23 49 32 27 36 8 57 rrcurveto
          126 18 -107 60 -135 hhcurveto
          -171 -96 -62 -182 -39 hvcurveto
          hintmask 01111000
          -93 -435 rlineto
          endchar
        </CharString>
        <CharString name="grave">
          -294 574 153 hstem
          127 187 vstem
          139 635 rmoveto
          17 -20 50 -41 0 vvcurveto
          108 hlineto
          0 -63 100 -25 32 vhcurveto
          14 -11 -16 7 -16 hhcurveto
          -12 -13 -4 -9 -10 hvcurveto
          -24 -20 -4 -34 19 -25 rrcurveto
          endchar
        </CharString>
        <CharString name="grave.case">
          -369 731 153 hstem
          88 187 vstem
          101 793 rmoveto
          16 -21 50 -41 0 vvcurveto
          108 hlineto
          0 -62 101 -26 31 vhcurveto
          14 -11 -16 7 -17 hhcurveto
          -12 -13 -4 -8 -10 hvcurveto
          -24 -19 -2 -36 19 -24 rrcurveto
          endchar
        </CharString>
        <CharString name="greater">
          29 9 -21 522 -20 hstem
          78 493 vstem
          571 200 rmoveto
          99 vlineto
          -493 211 rlineto
          -142 vlineto
          325 -118 -325 -120 rlineto
          -142 vlineto
          endchar
        </CharString>
        <CharString name="greaterequal">
          93 0 128 382 -20 hstem
          79 512 vstem
          79 510 rmoveto
          -129 vlineto
          337 -57 -337 -59 rlineto
          -129 vlineto
          512 124 rlineto
          126 vlineto
          -512 -386 rmoveto
          512 128 -512 hlineto
          endchar
        </CharString>
        <CharString name="guillemotleft">
          56 40 420 hstem
          36 604 vstem
          36 250 rmoveto
          103 -210 rlineto
          164 hlineto
          -100 204 197 216 rlineto
          -171 hlineto
          47 -210 rmoveto
          103 -210 rlineto
          164 hlineto
          -100 204 197 216 rlineto
          -171 hlineto
          endchar
        </CharString>
        <CharString name="guillemotright">
          57 40 420 hstem
          -8 604 vstem
          -8 40 rmoveto
          171 hlineto
          193 210 -103 210 rlineto
          -164 hlineto
          100 -204 rlineto
          43 -216 rmoveto
          171 hlineto
          193 210 -103 210 rlineto
          -164 hlineto
          100 -204 rlineto
          endchar
        </CharString>
        <CharString name="guilsinglleft">
          -208 40 420 hstem
          24 364 vstem
          127 40 rmoveto
          164 hlineto
          -100 204 197 216 rlineto
          -171 hlineto
          -193 -210 rlineto
          endchar
        </CharString>
        <CharString name="guilsinglright">
          -207 40 420 hstem
          -20 364 vstem
          -20 40 rmoveto
          171 hlineto
          193 210 -103 210 rlineto
          -164 hlineto
          100 -204 rlineto
          endchar
        </CharString>
        <CharString name="h">
          -28 21 -21 392 118 158 -20 hstem
          367 162 vstem
          -20 hmoveto
          156 hlineto
          54 254 rlineto
          91 18 42 47 62 hhcurveto
          52 15 -37 -92 -20 hvcurveto
          -56 -263 rlineto
          156 hlineto
          60 281 rlineto
          164 35 -60 65 -97 hhcurveto
          -88 -58 -40 -38 -28 hvcurveto
          50 236 rlineto
          -151 hlineto
          endchar
        </CharString>
        <CharString name="hbar">
          -8 21 -21 392 118 45 78 hstem
          387 162 vstem
          156 hmoveto
          54 254 rlineto
          91 18 42 47 62 hhcurveto
          52 15 -37 -92 -20 hvcurveto
          -56 -263 rlineto
          156 hlineto
          60 281 rlineto
          164 35 -60 65 -97 hhcurveto
          -88 -58 -40 -38 -28 hvcurveto
          26 123 rlineto
          122 hlineto
          17 78 rlineto
          -123 hlineto
          14 65 rlineto
          -151 hlineto
          -14 -65 rlineto
          -95 hlineto
          -17 -78 rlineto
          96 hlineto
          -118 -555 rlineto
          endchar
        </CharString>
        <CharString name="hungarumlaut">
          -107 572 154 hstem
          89 441 vstem
          212 572 rmoveto
          0 84 50 6 4 vhcurveto
          25 17 3 38 -20 24 rrcurveto
          14 -11 -16 7 -16 hhcurveto
          -12 -13 -4 -9 -10 hvcurveto
          -2 -1 -141 -140 0 vvcurveto
          330 hmoveto
          0 84 50 6 4 vhcurveto
          25 17 3 38 -20 24 rrcurveto
          14 -11 -16 7 -16 hhcurveto
          -12 -13 -4 -9 -10 hvcurveto
          -2 -1 -140 -140 0 vvcurveto
          endchar
        </CharString>
        <CharString name="hungarumlaut.case">
          -164 744 154 hstem
          97 441 vstem
          220 744 rmoveto
          0 84 50 6 4 vhcurveto
          25 17 3 38 -20 24 rrcurveto
          14 -11 -16 7 -16 hhcurveto
          -12 -13 -4 -9 -10 hvcurveto
          -2 -1 -141 -140 0 vvcurveto
          330 hmoveto
          0 84 50 6 4 vhcurveto
          25 17 3 38 -20 24 rrcurveto
          14 -11 -16 7 -16 hhcurveto
          -12 -13 -4 -9 -10 hvcurveto
          -2 -1 -140 -140 0 vvcurveto
          endchar
        </CharString>
        <CharString name="hyphen">
          -201 184 129 hstem
          10 354 vstem
          336 184 rmoveto
          28 129 rlineto
          -326 hlineto
          -28 -129 rlineto
          endchar
        </CharString>
        <CharString name="i">
          21 -21 380 116 82 179 hstem
          177 179 vstem
          26 380 rmoveto
          103 hlineto
          -81 -380 rlineto
          156 hlineto
          105 496 rlineto
          -258 hlineto
          215 82 rmoveto
          50 40 41 49 49 -40 40 -50 -50 -39 -40 -49 -49 39 -41 50 hvcurveto
          endchar
        </CharString>
        <CharString name="iacute">
          21 -21 380 116 78 153 hstem
          26 394 vstem
          129 380 rmoveto
          -81 -380 rlineto
          156 hlineto
          105 496 rlineto
          -258 hlineto
          -25 -116 rlineto
          283 194 rmoveto
          0 84 49 6 5 vhcurveto
          24 20 4 34 -20 24 rrcurveto
          14 -11 -16 7 -17 hhcurveto
          -12 -12 -4 -8 -10 hvcurveto
          -2 -1 -141 -140 0 vvcurveto
          endchar
        </CharString>
        <CharString name="icircumflex">
          21 -21 380 116 78 152 hstem
          22 406 vstem
          26 380 rmoveto
          103 hlineto
          -81 -380 rlineto
          156 hlineto
          105 496 rlineto
          -258 hlineto
          118 78 rmoveto
          84 61 59 -61 rlineto
          116 hlineto
          -118 127 rlineto
          17 -15 -20 8 -20 hhcurveto
          -16 -15 -5 -10 -13 hvcurveto
          -189 -137 rlineto
          endchar
        </CharString>
        <CharString name="idieresis">
          21 -21 380 116 82 141 hstem
          69 141 53 140 vstem
          129 380 rmoveto
          -81 -380 rlineto
          156 hlineto
          105 496 rlineto
          -258 hlineto
          -25 -116 rlineto
          43 268 rmoveto
          -39 32 -31 39 39 31 31 39 39 -31 32 -39 -39 -32 -32 -39 vhcurveto
          265 -70 rmoveto
          38 31 31 39 39 -31 32 -38 -39 -32 -32 -39 -39 32 -31 39 hvcurveto
          endchar
        </CharString>
        <CharString name="igrave">
          21 -21 380 116 78 153 hstem
          26 293 vstem
          26 380 rmoveto
          103 hlineto
          -81 -380 rlineto
          156 hlineto
          105 496 rlineto
          -258 hlineto
          93 139 rmoveto
          17 -20 50 -41 0 vvcurveto
          108 hlineto
          0 -63 100 -25 32 vhcurveto
          14 -11 -16 7 -16 hhcurveto
          -12 -13 -4 -9 -10 hvcurveto
          -24 -20 -4 -34 19 -25 rrcurveto
          endchar
        </CharString>
        <CharString name="imacron">
          21 -21 380 116 74 98 hstem
          26 362 vstem
          26 380 rmoveto
          103 hlineto
          -81 -380 rlineto
          156 hlineto
          105 496 rlineto
          -258 hlineto
          316 74 rmoveto
          21 98 rlineto
          -299 hlineto
          -21 -98 rlineto
          endchar
        </CharString>
        <CharString name="infinity">
          148 97 107 102 106 hstem
          29 120 427 120 vstem
          201 97 rmoveto
          72 48 35 44 41 hvcurveto
          -44 41 49 -35 72 hhcurveto
          97 75 65 93 91 -77 66 -99 -66 -50 -32 -44 -42 hvcurveto
          44 -41 -50 32 -66 hhcurveto
          -99 -77 -66 -91 -93 75 -65 97 hvcurveto
          314 209 rmoveto
          34 27 -20 -30 -30 -24 -22 -35 -37 -28 24 28 -23 hvcurveto
          27 23 29 23 34 hhcurveto
          -305 hmoveto
          34 29 -23 -27 23 hvcurveto
          -28 -23 -28 -24 -37 hhcurveto
          -35 -24 22 30 30 27 20 34 hvcurveto
          endchar
        </CharString>
        <CharString name="integral">
          -265 -174 144 566 144 -69 69 0 -20 hstemhm
          -46 113 26 127 26 112 hintmask 10010100
          hintmask 10011100
          -46 -84 rmoveto
          -47 55 -43 45 vhcurveto
          hintmask 10100100
          95 81 61 231 -2 hvcurveto
          -1 97 -7 243 46 vvcurveto
          62 8 35 21 10 vhcurveto
          hintmask 11000110
          -2 -6 -1 -6 -7 vvcurveto
          -31 24 -25 32 30 25 24 30 1 vhcurveto
          52 -50 38 -49 vhcurveto
          hintmask 10010100
          -95 -81 -61 -231 2 hvcurveto
          1 -96 7 -244 -46 vvcurveto
          -62 -7 -35 -22 -10 vhcurveto
          hintmask 10011100
          2 6 1 6 7 vvcurveto
          31 -25 25 -32 -30 -25 -24 -30 -1 vhcurveto
          endchar
        </CharString>
        <CharString name="iogonek">
          -173 76 118 -21 380 116 82 179 hstem
          177 179 vstem
          123 -173 rmoveto
          25 39 5 4 17 hvcurveto
          16 76 rlineto
          -3 -9 -23 -6 -19 hhcurveto
          -22 -25 4 24 5 hvcurveto
          6 24 49 22 51 23 rrcurveto
          -29 hlineto
          105 496 rlineto
          -258 hlineto
          -25 -116 rlineto
          103 hlineto
          -81 -380 rlineto
          41 hlineto
          -46 -12 -38 -36 -6 -36 rrcurveto
          -39 -6 21 -50 109 hhcurveto
          54 841 rmoveto
          -49 39 -41 50 50 40 41 49 49 -40 40 -50 -50 -39 -40 -49 vhcurveto
          endchar
        </CharString>
        <CharString name="j">
          -346 -162 120 538 -20 102 180 hstem
          116 180 vstem
          -174 -162 rmoveto
          89 hlineto
          153 37 15 155 40 hvcurveto
          104 488 rlineto
          -156 hlineto
          0 -69 -332 -28 -125 vhcurveto
          -67 -14 -8 -14 -61 hhcurveto
          -61 hlineto
          354 620 rmoveto
          49 41 41 49 50 -41 40 -49 -50 -40 -40 -50 -49 40 -41 50 hvcurveto
          endchar
        </CharString>
        <CharString name="k">
          -46 21 -21 496 -20 192 -20 hstem
          -20 607 vstem
          136 hmoveto
          26 124 68 60 95 -184 rlineto
          163 hlineto
          -145 283 244 213 rlineto
          -198 hlineto
          -185 -169 73 341 rlineto
          -155 hlineto
          -142 -668 rlineto
          endchar
        </CharString>
        <CharString name="l">
          -291 0 124 544 -20 hstem
          5 168 vstem
          148 hmoveto
          97 hlineto
          26 124 rlineto
          -43 hlineto
          -66 7 28 52 11 hvcurveto
          98 464 rlineto
          -156 hlineto
          -112 -528 rlineto
          -106 -22 58 -34 102 hhcurveto
          endchar
        </CharString>
        <CharString name="lcaron">
          -291 0 124 372 172 hstem
          5 168 vstem
          180 204 rmoveto
          98 464 rlineto
          -156 hlineto
          -112 -528 rlineto
          -106 -22 58 -34 102 hhcurveto
          97 hlineto
          26 124 rlineto
          -43 hlineto
          -66 7 28 52 11 hvcurveto
          172 292 rmoveto
          72 110 rlineto
          4 6 2 9 10 vvcurveto
          25 -18 32 -36 -21 -24 -12 -26 -9 vhcurveto
          -53 -154 rlineto
          endchar
        </CharString>
        <CharString name="less">
          31 9 -21 522 -20 hstem
          34 493 vstem
          34 200 rmoveto
          493 -212 rlineto
          142 vlineto
          -324 120 324 118 rlineto
          142 vlineto
          -493 -211 rlineto
          endchar
        </CharString>
        <CharString name="lessequal">
          67 0 128 382 -20 hstem
          53 512 vstem
          565 136 rmoveto
          129 vlineto
          -337 59 337 57 rlineto
          129 vlineto
          -512 -124 rlineto
          -126 vlineto
          -132 vmoveto
          -128 512 128 vlineto
          endchar
        </CharString>
        <CharString name="logicalnot">
          87 295 127 hstem
          457 128 vstem
          73 422 rmoveto
          -127 384 -239 128 366 vlineto
          endchar
        </CharString>
        <CharString name="lozenge">
          -2 -91 807 hstem
          38 525 vstem
          301 502 rmoveto
          124 -189 -124 -189 -125 189 rlineto
          125 403 rmoveto
          -263 -403 263 -404 262 404 rlineto
          endchar
        </CharString>
        <CharString name="lslash">
          -266 0 124 383 -20 181 -20 hstem
          30 168 vstem
          -22 188 rmoveto
          76 40 -19 -88 rlineto
          -106 -23 59 -34 102 hhcurveto
          97 hlineto
          25 124 rlineto
          -42 hlineto
          -66 7 29 52 11 hvcurveto
          25 116 121 64 26 122 -122 -65 47 226 rlineto
          -155 hlineto
          -67 -319 -76 -40 rlineto
          endchar
        </CharString>
        <CharString name="m">
          286 21 -21 392 104 -104 118 hstemhm
          683 161 hintmask 10110000
          -20 hmoveto
          156 hlineto
          55 258 rlineto
          87 19 37 47 62 hhcurveto
          48 19 -27 -102 -22 hvcurveto
          -56 -263 rlineto
          156 hlineto
          55 261 rlineto
          88 19 38 43 62 hhcurveto
          58 8 -32 -97 -21 hvcurveto
          -56 -263 rlineto
          156 hlineto
          62 290 rlineto
          135 29 -35 85 -128 hhcurveto
          -70 -60 -25 -58 -48 hvcurveto
          56 -19 -41 27 -79 hhcurveto
          -75 -53 -41 -37 -30 hvcurveto
          hintmask 11010000
          -5 64 rlineto
          -136 hlineto
          endchar
        </CharString>
        <CharString name="macron">
          -204 570 98 hstem
          104 320 vstem
          403 570 rmoveto
          21 98 rlineto
          -299 hlineto
          -21 -98 rlineto
          endchar
        </CharString>
        <CharString name="macron.case">
          -260 747 98 hstem
          114 320 vstem
          413 747 rmoveto
          21 98 rlineto
          -299 hlineto
          -21 -98 rlineto
          endchar
        </CharString>
        <CharString name="minus">
          36 184 128 hstem
          39 512 vstem
          551 184 rmoveto
          128 -512 -128 vlineto
          endchar
        </CharString>
        <CharString name="multiply">
          9 22 454 hstem
          55 457 vstem
          512 385 rmoveto
          -91 91 -137 -139 -138 139 -91 -91 139 -137 -136 -136 91 -90 135 136 134 -136 91 90 -136 136 rlineto
          endchar
        </CharString>
        <CharString name="n">
          -28 21 -21 392 104 -104 118 hstemhm
          367 162 hintmask 11010000
          136 hmoveto
          54 254 rlineto
          91 19 41 47 62 hhcurveto
          52 15 -37 -92 -20 hvcurveto
          -56 -263 rlineto
          156 hlineto
          60 281 rlineto
          hintmask 10110000
          164 35 -60 65 -97 hhcurveto
          -88 -55 -40 -38 -28 hvcurveto
          hintmask 11010000
          -5 64 rlineto
          -136 hlineto
          -105 -496 rlineto
          endchar
        </CharString>
        <CharString name="nacute">
          -28 21 -21 392 104 -104 118 hstemhm
          367 162 hintmask 11010000
          136 hmoveto
          54 254 rlineto
          91 19 41 47 62 hhcurveto
          52 15 -37 -92 -20 hvcurveto
          -56 -263 rlineto
          156 hlineto
          60 281 rlineto
          hintmask 10110000
          164 35 -60 65 -97 hhcurveto
          -88 -55 -40 -38 -28 hvcurveto
          hintmask 11010000
          -5 64 rlineto
          -136 hlineto
          -105 -496 rlineto
          304 574 rmoveto
          123 hlineto
          0 84 49 6 5 vhcurveto
          24 20 4 34 -20 24 rrcurveto
          14 -11 -16 7 -17 hhcurveto
          -12 -12 -4 -8 -10 hvcurveto
          -2 -1 -141 -140 0 vvcurveto
          endchar
        </CharString>
        <CharString name="ncaron">
          -28 21 -21 392 104 -104 118 58 152 hstemhm
          367 162 hintmask 11011000
          136 hmoveto
          54 254 rlineto
          91 19 41 47 62 hhcurveto
          52 15 -37 -92 -20 hvcurveto
          -56 -263 rlineto
          156 hlineto
          60 281 rlineto
          hintmask 10111000
          164 35 -60 65 -97 hhcurveto
          -88 -55 -40 -38 -28 hvcurveto
          hintmask 11011000
          -5 64 rlineto
          -136 hlineto
          -105 -496 rlineto
          307 593 rmoveto
          -16 14 20 -9 20 hhcurveto
          16 15 5 10 13 hvcurveto
          190 137 rlineto
          -147 hlineto
          -84 -61 -56 61 rlineto
          -115 hlineto
          endchar
        </CharString>
        <CharString name="nine">
          -33 21 -21 222 114 209 136 hstem
          62 141 214 139 vstem
          271 222 rmoveto
          -165 -222 rlineto
          174 hlineto
          0 161 232 61 87 vhcurveto
          115 163 -88 145 -111 39 rrcurveto
          10 -26 -30 5 -30 hhcurveto
          -79 -85 -34 -80 -57 hvcurveto
          -107 -151 77 -200 190 6 rrcurveto
          -68 215 rmoveto
          9 64 46 39 57 5 67 6 40 -44 -5 -66 -4 -52 -43 -48 -69 -5 -61 -3 -46 43 9 61 rrcurveto
          endchar
        </CharString>
        <CharString name="nine.tf">
          31 21 -21 222 114 209 136 hstem
          97 141 214 139 vstem
          306 222 rmoveto
          -165 -222 rlineto
          174 hlineto
          0 161 232 61 87 vhcurveto
          115 163 -88 145 -111 39 rrcurveto
          10 -26 -30 5 -30 hhcurveto
          -79 -85 -34 -80 -57 hvcurveto
          -107 -151 77 -200 190 6 rrcurveto
          -68 215 rmoveto
          9 64 46 39 57 5 67 6 40 -44 -5 -66 -4 -52 -43 -48 -69 -5 -61 -3 -46 43 9 61 rrcurveto
          endchar
        </CharString>
        <CharString name="notequal">
          52 0 225 -129 129 58 127 -127 212 hstemhm
          58 512 hintmask 10011000
          58 225 rmoveto
          hintmask 01011000
          -129 73 vlineto
          hintmask 10011000
          -67 -96 rlineto
          153 hlineto
          hintmask 01011000
          68 96 rlineto
          285 hlineto
          hintmask 10011000
          129 -196 vlineto
          40 58 rlineto
          156 hlineto
          hintmask 10101000
          127 -66 vlineto
          hintmask 10011000
          60 85 rlineto
          -153 hlineto
          hintmask 10101000
          -59 -85 rlineto
          -294 hlineto
          hintmask 10011000
          -127 204 vlineto
          -41 -58 rlineto
          endchar
        </CharString>
        <CharString name="ntilde">
          -28 21 -21 392 104 -104 118 58 80 -41 82 hstemhm
          367 162 hintmask 11001100
          136 hmoveto
          54 254 rlineto
          91 19 41 47 62 hhcurveto
          52 15 -37 -92 -20 hvcurveto
          -56 -263 rlineto
          156 hlineto
          60 281 rlineto
          hintmask 10101100
          164 35 -60 65 -97 hhcurveto
          -88 -55 -40 -38 -28 hvcurveto
          hintmask 11001100
          -5 64 rlineto
          -136 hlineto
          -105 -496 rlineto
          148 574 rmoveto
          89 hlineto
          23 14 15 10 22 hhcurveto
          hintmask 11010100
          51 14 -36 -3 68 hvcurveto
          70 -3 35 37 15 21 26 36 -32 40 -35 -11 rrcurveto
          -9 -31 -3 -31 -43 hhcurveto
          hintmask 11001100
          -40 -20 41 -79 hhcurveto
          -67 -51 -57 -58 -18 hvcurveto
          endchar
        </CharString>
        <CharString name="numbersign">
          143 21 -21 127 139 136 139 127 -20 hstem
          9 735 vstem
          137 127 rmoveto
          -18 -127 rlineto
          141 hlineto
          18 127 rlineto
          136 hlineto
          -18 -127 rlineto
          141 hlineto
          18 127 rlineto
          129 hlineto
          20 140 rlineto
          -128 hlineto
          19 135 rlineto
          128 hlineto
          21 139 rlineto
          -129 hlineto
          19 127 rlineto
          -141 hlineto
          -19 -127 rlineto
          -137 hlineto
          19 127 rlineto
          -140 hlineto
          -19 -127 rlineto
          -128 hlineto
          -20 -140 rlineto
          128 hlineto
          -20 -135 rlineto
          -128 hlineto
          -20 -139 rlineto
          289 140 rmoveto
          19 134 rlineto
          137 hlineto
          -19 -134 rlineto
          endchar
        </CharString>
        <CharString name="o">
          -33 -13 118 287 118 hstem
          381 155 vstem
          239 -13 rmoveto
          100 164 46 216 30 hvcurveto
          173 24 -111 88 -144 hhcurveto
          -136 -135 -77 -191 -24 hvcurveto
          -155 -19 97 -100 154 hhcurveto
          -76 262 rmoveto
          17 103 49 39 60 1 66 1 38 -37 -15 -107 rrcurveto
          -68 -10 -37 -76 -86 hhcurveto
          -87 -5 83 61 10 hvcurveto
          endchar
        </CharString>
        <CharString name="oacute">
          -33 -13 118 287 118 64 153 hstem
          381 155 vstem
          239 -13 rmoveto
          100 164 46 216 30 hvcurveto
          173 24 -111 88 -144 hhcurveto
          -136 -135 -77 -191 -24 hvcurveto
          -155 -19 97 -100 154 hhcurveto
          -76 262 rmoveto
          17 103 49 39 60 1 66 1 38 -37 -15 -107 rrcurveto
          -68 -10 -37 -76 -86 hhcurveto
          -87 -5 83 61 10 hvcurveto
          233 325 rmoveto
          0 84 49 6 5 vhcurveto
          24 20 4 34 -20 24 rrcurveto
          14 -11 -16 7 -17 hhcurveto
          -12 -12 -4 -8 -10 hvcurveto
          -2 -1 -141 -140 0 vvcurveto
          endchar
        </CharString>
        <CharString name="ocircumflex">
          -33 -13 118 287 118 64 152 hstem
          381 155 vstem
          239 -13 rmoveto
          100 164 46 216 30 hvcurveto
          173 24 -111 88 -144 hhcurveto
          -136 -135 -77 -191 -24 hvcurveto
          -155 -19 97 -100 154 hhcurveto
          -76 262 rmoveto
          17 103 49 39 60 1 66 1 38 -37 -15 -107 rrcurveto
          -68 -10 -37 -76 -86 hhcurveto
          -87 -5 83 61 10 hvcurveto
          -41 325 rmoveto
          147 hlineto
          84 61 59 -61 rlineto
          116 hlineto
          -118 127 rlineto
          17 -15 -20 8 -20 hhcurveto
          -16 -15 -5 -10 -13 hvcurveto
          endchar
        </CharString>
        <CharString name="odieresis">
          -33 -13 118 287 118 68 141 hstemhm
          185 141 53 140 -138 155 hintmask 11110100
          239 -13 rmoveto
          100 164 46 216 30 hvcurveto
          173 24 -111 88 -144 hhcurveto
          -136 -135 -77 -191 -24 hvcurveto
          -155 -19 97 -100 154 hhcurveto
          -76 262 rmoveto
          17 103 49 39 60 1 66 1 38 -37 -15 -107 rrcurveto
          -68 -10 -37 -76 -86 hhcurveto
          -87 -5 83 61 10 hvcurveto
          93 329 rmoveto
          39 31 31 39 39 -31 32 -39 -39 -32 -32 -39 -39 32 -31 39 hvcurveto
          hintmask 11111000
          194 hmoveto
          38 31 31 39 39 -31 32 -38 -39 -32 -32 -39 -39 32 -31 39 hvcurveto
          endchar
        </CharString>
        <CharString name="oe">
          330 -12 119 103 90 92 119 -113 113 hstemhm
          0 156 227 158 hintmask 11101100
          221 -12 rmoveto
          54 79 20 48 60 hvcurveto
          -41 33 68 -27 74 hhcurveto
          101 80 40 71 65 hvcurveto
          -111 44 rlineto
          -23 -23 -41 -13 -40 hhcurveto
          -57 -53 29 74 13 hvcurveto
          368 hlineto
          178 42 -66 123 -172 hhcurveto
          -75 -94 -32 -52 -42 hvcurveto
          45 -27 -57 39 -85 hhcurveto
          -139 -134 -76 -192 -36 hvcurveto
          -160 -30 82 -95 163 hhcurveto
          -57 271 rmoveto
          24 95 49 37 59 1 69 1 33 -47 -21 -96 rrcurveto
          -75 -16 -38 -68 -85 hhcurveto
          -86 -6 79 73 18 hvcurveto
          377 41 rmoveto
          hintmask 11011100
          64 17 65 34 56 hhcurveto
          54 46 -31 -67 -12 hvcurveto
          endchar
        </CharString>
        <CharString name="ogonek">
          -313 -173 173 hstem
          -52 235 vstem
          73 -173 rmoveto
          25 39 5 4 17 hvcurveto
          16 76 rlineto
          -3 -9 -23 -6 -19 hhcurveto
          -22 -25 4 24 5 hvcurveto
          6 24 49 22 51 23 rrcurveto
          -144 hlineto
          -46 -12 -38 -36 -6 -36 rrcurveto
          -39 -6 21 -50 109 hhcurveto
          endchar
        </CharString>
        <CharString name="ogonek.case">
          -346 -174 174 21 -21 hstemhm
          -56 240 hintmask 01100000
          hintmask 10100000
          68 -174 rmoveto
          25 40 5 5 16 hvcurveto
          16 75 rlineto
          -2 -8 -23 -7 -20 hhcurveto
          -22 -23 6 24 6 hvcurveto
          hintmask 01100000
          7 34 62 29 40 5 rrcurveto
          hintmask 10100000
          -141 hlineto
          -42 -12 -46 -27 -10 -46 rrcurveto
          -38 -8 23 -51 108 hhcurveto
          endchar
        </CharString>
        <CharString name="ograve">
          -33 -13 118 287 118 64 153 hstem
          381 155 vstem
          239 -13 rmoveto
          100 164 46 216 30 hvcurveto
          173 24 -111 88 -144 hhcurveto
          -136 -135 -77 -191 -24 hvcurveto
          -155 -19 97 -100 154 hhcurveto
          -76 262 rmoveto
          17 103 49 39 60 1 66 1 38 -37 -15 -107 rrcurveto
          -68 -10 -37 -76 -86 hhcurveto
          -87 -5 83 61 10 hvcurveto
          43 386 rmoveto
          17 -20 50 -41 0 vvcurveto
          108 hlineto
          0 -63 100 -25 32 vhcurveto
          14 -11 -16 7 -16 hhcurveto
          -12 -13 -4 -9 -10 hvcurveto
          -24 -20 -4 -34 19 -25 rrcurveto
          endchar
        </CharString>
        <CharString name="ohungarumlaut">
          -33 -13 118 287 118 62 154 hstem
          381 155 vstem
          239 -13 rmoveto
          100 164 46 216 30 hvcurveto
          173 24 -111 88 -144 hhcurveto
          -136 -135 -77 -191 -24 hvcurveto
          -155 -19 97 -100 154 hhcurveto
          -76 262 rmoveto
          17 103 49 39 60 1 66 1 38 -37 -15 -107 rrcurveto
          -68 -10 -37 -76 -86 hhcurveto
          -87 -5 83 61 10 hvcurveto
          123 323 rmoveto
          0 84 50 6 4 vhcurveto
          25 17 3 38 -20 24 rrcurveto
          14 -11 -16 7 -16 hhcurveto
          -12 -13 -4 -9 -10 hvcurveto
          -2 -1 -141 -140 0 vvcurveto
          330 hmoveto
          0 84 50 6 4 vhcurveto
          25 17 3 38 -20 24 rrcurveto
          14 -11 -16 7 -16 hhcurveto
          -12 -13 -4 -9 -10 hvcurveto
          -2 -1 -140 -140 0 vvcurveto
          endchar
        </CharString>
        <CharString name="one">
          -154 21 -21 449 122 97 -20 hstem
          72 356 vstem
          228 449 rmoveto
          -96 -449 rlineto
          155 hlineto
          141 668 rlineto
          -118 hlineto
          -81 -50 -54 -16 -108 hhcurveto
          -26 -122 rlineto
          endchar
        </CharString>
        <CharString name="one.tf">
          31 0 124 323 123 97 -20 hstem
          25 476 vstem
          25 hmoveto
          449 hlineto
          27 124 rlineto
          -141 hlineto
          115 543 rlineto
          -118 hlineto
          -81 -51 -52 -16 -107 hhcurveto
          -27 -123 rlineto
          154 hlineto
          -67 -323 rlineto
          -156 hlineto
          endchar
        </CharString>
        <CharString name="onehalf">
          310 0 88 220 76 152 87 44 -20 21 -20 hstem
          747 107 vstem
          129 hmoveto
          127 hlineto
          468 667 rlineto
          -127 hlineto
          -101 -667 rmoveto
          300 hlineto
          19 88 rlineto
          -149 hlineto
          90 39 96 79 2 77 rrcurveto
          73 2 -62 28 -80 hhcurveto
          -75 -53 -28 -59 -28 hvcurveto
          84 -33 rlineto
          30 10 21 14 29 hhcurveto
          24 24 -13 -28 -3 hvcurveto
          -7 -64 -125 -66 -102 -56 rrcurveto
          -416 455 rmoveto
          84 hlineto
          -52 -244 rlineto
          104 hlineto
          80 376 rlineto
          -82 hlineto
          -42 -28 -34 -3 -53 hhcurveto
          endchar
        </CharString>
        <CharString name="onequarter">
          321 0 161 -86 86 96 118 161 87 44 -20 21 -20 hstemhm
          97 744 hintmask 10111110
          129 hmoveto
          127 hlineto
          468 667 rlineto
          -127 hlineto
          hintmask 01111110
          65 -592 rmoveto
          hintmask 10111110
          -16 -75 rlineto
          103 hlineto
          hintmask 01111110
          16 75 rlineto
          57 hlineto
          19 86 rlineto
          -57 hlineto
          45 214 rlineto
          -114 hlineto
          -228 -223 -17 -77 rlineto
          -289 461 rmoveto
          -52 -244 rlineto
          104 hlineto
          80 376 rlineto
          -82 hlineto
          -42 -28 -34 -3 -53 hhcurveto
          -19 -87 rlineto
          505 -375 rmoveto
          98 96 -20 -96 rlineto
          endchar
        </CharString>
        <CharString name="onesuperior">
          -315 647 88 hstem
          121 216 vstem
          205 647 rmoveto
          -52 -244 rlineto
          104 hlineto
          80 376 rlineto
          -82 hlineto
          -41 -28 -34 -3 -53 hhcurveto
          -19 -88 rlineto
          endchar
        </CharString>
        <CharString name="ordfeminine">
          -214 403 61 161 67 hstemhm
          86 107 78 87 -67 97 hintmask 11101000
          86 474 rmoveto
          -43 1 31 -35 56 hhcurveto
          48 29 17 22 19 hvcurveto
          2 -32 rlineto
          hintmask 11110000
          86 hlineto
          5 50 7 44 12 52 rrcurveto
          112 28 -69 31 -75 hhcurveto
          -70 -41 -20 -41 -28 hvcurveto
          80 -32 rlineto
          19 8 21 7 18 hhcurveto
          27 16 -11 -20 -4 hvcurveto
          -4 -12 -102 -6 -103 -14 2 -88 rlinecurve
          107 17 rmoveto
          15 13 12 37 5 vhcurveto
          9 2 30 3 0 vvcurveto
          -5 -18 rlineto
          -31 -6 -27 -15 -22 hhcurveto
          -16 -14 9 18 1 hvcurveto
          endchar
        </CharString>
        <CharString name="ordmasculine">
          -197 396 77 139 77 hstem
          103 103 98 103 vstem
          240 396 rmoveto
          83 74 46 101 10 hvcurveto
          100 11 -64 46 -83 hhcurveto
          -83 -74 -46 -100 -11 hvcurveto
          -101 -11 65 -46 83 hhcurveto
          -34 147 rmoveto
          47 5 24 22 28 hhcurveto
          27 19 -22 -47 -5 hvcurveto
          -48 -5 -23 -22 -28 hhcurveto
          -28 -19 22 48 5 hvcurveto
          endchar
        </CharString>
        <CharString name="oslash">
          -32 -12 118 286 118 hstem
          7 153 221 156 vstem
          -26 27 rmoveto
          51 -54 62 59 rlineto
          -29 40 53 -15 61 hhcurveto
          99 164 46 216 30 hvcurveto
          10 70 -13 56 -29 42 62 57 rcurveline
          -51 54 -63 -59 rlineto
          27 -40 -51 13 -56 hhcurveto
          -136 -135 -77 -190 -25 hvcurveto
          -8 -63 11 -53 27 -42 rrcurveto
          151 40 rmoveto
          193 181 1 -16 0 -19 -3 -21 rlinecurve
          -68 -10 -37 -76 -85 hhcurveto
          -27 -18 7 12 -14 hvcurveto
          -24 125 rmoveto
          17 102 50 38 58 2 25 1 20 -5 16 -12 -190 -176 rcurveline
          -1 17 2 17 3 16 rrcurveto
          endchar
        </CharString>
        <CharString name="otilde">
          -33 -13 118 287 118 58 80 -41 82 hstemhm
          381 155 hintmask 11011000
          239 -13 rmoveto
          100 164 46 216 30 hvcurveto
          173 24 -111 88 -144 hhcurveto
          -136 -135 -77 -191 -24 hvcurveto
          -155 -19 97 -100 154 hhcurveto
          -76 262 rmoveto
          17 103 49 39 60 1 66 1 38 -37 -15 -107 rrcurveto
          -68 -10 -37 -76 -86 hhcurveto
          -87 -5 83 61 10 hvcurveto
          -35 325 rmoveto
          89 hlineto
          23 14 15 10 22 hhcurveto
          hintmask 11101000
          51 14 -36 -3 68 hvcurveto
          70 -3 35 37 15 21 26 36 -32 40 -35 -11 rrcurveto
          -9 -31 -3 -31 -43 hhcurveto
          hintmask 11011000
          -40 -20 41 -79 hhcurveto
          -67 -51 -57 -58 -18 hvcurveto
          endchar
        </CharString>
        <CharString name="p">
          -19 -13 118 287 104 -104 118 hstemhm
          392 160 hintmask 10110000
          -55 -161 rmoveto
          156 hlineto
          49 231 rlineto
          -57 32 51 -26 54 hhcurveto
          128 107 92 175 26 hvcurveto
          149 22 -74 107 -120 hhcurveto
          -55 -61 -24 -58 -35 hvcurveto
          hintmask 11010000
          -6 68 rlineto
          -134 hlineto
          94 -240 rmoveto
          91 19 47 45 63 hhcurveto
          61 35 -51 -94 -12 hvcurveto
          -79 -10 -44 -63 -77 hhcurveto
          -58 -45 53 98 21 hvcurveto
          endchar
        </CharString>
        <CharString name="paragraph">
          -79 600 68 hstem
          52 521 vstem
          160 296 rmoveto
          -97 -457 rlineto
          96 hlineto
          162 761 rlineto
          93 hlineto
          -161 -761 rlineto
          95 hlineto
          162 761 rlineto
          48 hlineto
          15 68 rlineto
          -287 hlineto
          -105 -102 -85 -105 -23 hvcurveto
          -19 -88 45 -73 78 -21 rrcurveto
          endchar
        </CharString>
        <CharString name="parenleft">
          -231 669 -20 hstem
          16 145 vstem
          90 -161 rmoveto
          149 hlineto
          -150 320 73 236 226 274 rrcurveto
          -151 hlineto
          -201 -224 -99 -240 153 -366 rrcurveto
          endchar
        </CharString>
        <CharString name="parenright">
          -231 669 -20 hstem
          185 146 vstem
          109 -161 rmoveto
          201 224 100 240 -154 366 rrcurveto
          -149 hlineto
          150 -320 -73 -236 -226 -274 rrcurveto
          endchar
        </CharString>
        <CharString name="partialdiff">
          -15 -12 119 208 120 125 120 hstem
          21 151 250 114 vstem
          269 -12 rmoveto
          85 104 32 123 51 hvcurveto
          22 55 5 59 58 vvcurveto
          379 -284 -14 -100 vhcurveto
          -120 vlineto
          200 11 61 -90 9 -125 rrcurveto
          35 -27 -57 44 -93 hhcurveto
          -124 -100 -100 -123 -147 114 -77 134 hvcurveto
          7 327 rmoveto
          57 46 -46 -58 -57 -46 -47 -57 -57 -47 47 57 58 47 46 57 hvcurveto
          endchar
        </CharString>
        <CharString name="percent">
          435 -12 119 -86 -21 263 119 -96 119 156 119 -12 -20 hstemhm
          58 119 157 119 141 118 158 118 hintmask 1001101111000000
          235 286 rmoveto
          109 97 88 109 12 hvcurveto
          109 11 -79 88 -109 hhcurveto
          -109 -97 -88 -109 -12 hvcurveto
          -109 -12 80 -88 109 hhcurveto
          535 -298 rmoveto
          109 98 88 109 11 hvcurveto
          hintmask 1010101111000000
          109 11 -78 88 -109 hhcurveto
          -109 -98 -88 -109 -11 hvcurveto
          hintmask 1001101111000000
          -109 -11 78 -88 109 hhcurveto
          hintmask 0101011111000000
          -543 12 rmoveto
          126 hlineto
          468 668 rlineto
          -127 hlineto
          hintmask 1010101111000000
          18 -483 rmoveto
          43 4 40 35 43 hhcurveto
          44 31 -35 -43 -4 hvcurveto
          -44 -5 -39 -34 -43 hhcurveto
          -44 -31 34 44 4 hvcurveto
          hintmask 1001101111000000
          -535 298 rmoveto
          43 4 39 35 44 hhcurveto
          43 32 -35 -43 -5 hvcurveto
          -44 -5 -38 -34 -44 hhcurveto
          -43 -32 34 44 5 hvcurveto
          endchar
        </CharString>
        <CharString name="period">
          -328 -12 195 -174 -21 hstemhm
          -9 195 hintmask 01100000
          -9 86 rmoveto
          -54 44 -44 54 53 44 44 54 vhcurveto
          hintmask 10100000
          54 -44 43 -53 vhcurveto
          hintmask 01100000
          -54 -44 -43 -54 hvcurveto
          endchar
        </CharString>
        <CharString name="periodcentered">
          -304 151 194 hstem
          38 195 vstem
          38 248 rmoveto
          -54 44 -43 54 53 44 43 54 54 -44 43 -53 -54 -44 -43 -54 vhcurveto
          endchar
        </CharString>
        <CharString name="perthousand">
          898 -12 119 -86 -21 263 119 -96 119 156 119 -12 -20 hstemhm
          75 119 157 119 141 118 158 118 35 118 158 118 hintmask 1010101111110000
          hintmask 1001101111000000
          252 286 rmoveto
          109 97 88 109 12 hvcurveto
          109 11 -79 88 -109 hhcurveto
          -109 -97 -88 -109 -12 hvcurveto
          -109 -12 80 -88 109 hhcurveto
          535 -298 rmoveto
          109 98 88 109 11 hvcurveto
          hintmask 0010000011000000
          109 11 -78 88 -109 hhcurveto
          -109 -98 -88 -109 -11 hvcurveto
          hintmask 1001101111000000
          -109 -11 78 -88 109 hhcurveto
          hintmask 1010000000110000
          429 hmoveto
          109 98 88 109 11 hvcurveto
          109 11 -78 88 -109 hhcurveto
          -109 -98 -88 -109 -11 hvcurveto
          -109 -11 78 -88 109 hhcurveto
          hintmask 0100010000100000
          -846 12 rmoveto
          468 668 rlineto
          -127 hlineto
          -467 -668 rlineto
          hintmask 1010000011110000
          914 185 rmoveto
          43 4 40 35 43 hhcurveto
          44 31 -35 -43 -4 hvcurveto
          -44 -5 -39 -34 -43 hhcurveto
          -44 -31 34 44 4 hvcurveto
          -429 hmoveto
          43 4 40 35 43 hhcurveto
          44 31 -35 -43 -4 hvcurveto
          -44 -5 -39 -34 -43 hhcurveto
          -44 -31 34 44 4 hvcurveto
          hintmask 0001101100000000
          -535 298 rmoveto
          43 4 39 35 44 hhcurveto
          43 32 -35 -43 -5 hvcurveto
          -44 -5 -38 -34 -44 hhcurveto
          -43 -32 34 44 5 hvcurveto
          endchar
        </CharString>
        <CharString name="pi">
          63 1 104 275 116 hstem
          362 139 vstem
          141 380 rmoveto
          -81 -380 rlineto
          131 hlineto
          81 380 rlineto
          150 hlineto
          -56 -262 rlineto
          -71 -15 26 -46 105 hhcurveto
          78 hlineto
          23 104 rlineto
          -33 hlineto
          -51 -2 12 35 7 hvcurveto
          49 228 rlineto
          88 hlineto
          25 116 rlineto
          -589 hlineto
          -25 -116 rlineto
          endchar
        </CharString>
        <CharString name="plus">
          36 21 -21 184 128 184 -20 hstem
          231 128 vstem
          231 184 rmoveto
          -184 128 184 192 128 -192 184 -128 -184 -192 -128 vlineto
          endchar
        </CharString>
        <CharString name="plusminus">
          92 0 128 155 108 -108 212 hstemhm
          248 128 hintmask 10110000
          hintmask 11010000
          56 391 rmoveto
          hintmask 10110000
          -108 192 -103 128 103 192 vlineto
          hintmask 11010000
          108 -192 vlineto
          hintmask 10110000
          104 -128 vlineto
          hintmask 11010000
          -104 vlineto
          320 -391 rmoveto
          128 -512 -128 vlineto
          endchar
        </CharString>
        <CharString name="product">
          181 552 116 hstem
          113 128 276 128 vstem
          241 -161 rmoveto
          713 276 -713 128 829 -532 -829 vlineto
          endchar
        </CharString>
        <CharString name="q">
          -8 -173 139 22 118 287 117 -14 -20 hstemhm
          5 157 147 164 hintmask 11011100
          183 -12 rmoveto
          55 50 22 46 38 hvcurveto
          0 -11 -50 -3 -17 vhcurveto
          -123 -22 85 -39 87 hhcurveto
          43 43 9 13 32 hvcurveto
          28 130 rlineto
          -9 -39 -29 -4 -20 hhcurveto
          -60 10 35 57 12 hvcurveto
          93 438 rlineto
          -135 hlineto
          -36 -69 rlineto
          hintmask 11101100
          60 -31 -56 23 -54 hhcurveto
          -140 -103 -119 -163 -15 hvcurveto
          -142 -13 73 -98 118 hhcurveto
          -21 236 rmoveto
          114 1 56 55 72 hhcurveto
          53 41 -38 -76 -5 hvcurveto
          -118 -7 -63 -55 -60 hhcurveto
          -53 -37 33 85 2 hvcurveto
          endchar
        </CharString>
        <CharString name="question">
          25 -12 195 -174 -21 564 128 hstemhm
          140 195 113 175 hintmask 01111000
          223 486 rmoveto
          43 18 51 23 64 hhcurveto
          60 34 -17 -38 -2 hvcurveto
          -2 -40 -70 -23 -50 -23 -75 -34 -56 -55 -10 -79 rrcurveto
          161 hlineto
          20 52 33 21 69 29 70 30 66 38 16 86 rrcurveto
          135 25 -145 46 -132 hhcurveto
          -125 -101 -38 -101 -57 hvcurveto
          152 -553 rmoveto
          54 44 44 54 hvcurveto
          hintmask 10111000
          54 -44 43 -54 -53 -44 -43 -54 vhcurveto
          hintmask 01111000
          -54 44 -44 53 vhcurveto
          endchar
        </CharString>
        <CharString name="questiondown">
          25 -173 128 370 194 hstem
          -21 175 114 194 vstem
          235 -173 rmoveto
          123 102 38 101 57 hvcurveto
          -138 55 rlineto
          -43 -19 -50 -23 -63 hhcurveto
          -62 -34 17 38 3 hvcurveto
          2 40 70 23 49 23 75 34 57 56 10 79 rrcurveto
          -160 hlineto
          -20 -52 -34 -21 -69 -30 -71 -31 -65 -37 -16 -86 rrcurveto
          -135 -25 145 -46 133 hhcurveto
          129 498 rmoveto
          54 44 42 54 54 -44 44 -54 -54 -42 -44 -54 -54 42 -42 54 hvcurveto
          endchar
        </CharString>
        <CharString name="quotedbl">
          -165 434 234 hstem
          109 128 60 127 vstem
          102 668 rmoveto
          14 -234 rlineto
          114 hlineto
          14 234 rlineto
          46 hmoveto
          15 -234 rlineto
          113 hlineto
          14 234 rlineto
          endchar
        </CharString>
        <CharString name="quotedblbase">
          -104 18 -21 hstem
          -40 449 vstem
          59 -145 rmoveto
          113 180 6 10 4 11 3 12 rlinecurve
          13 52 -38 52 -53 10 -53 10 -51 -35 -10 -53 -9 -45 25 -44 40 -18 -89 -142 rcurveline
          224 hmoveto
          99 hlineto
          112 180 6 10 5 11 2 12 rlinecurve
          9 53 -34 51 -53 10 -53 10 -50 -35 -10 -53 -8 -45 24 -44 39 -18 rrcurveto
          endchar
        </CharString>
        <CharString name="quotedblleft">
          -104 526 142 0 -20 hstemhm
          67 449 hintmask 01100000
          145 341 rmoveto
          53 -9 51 34 10 53 rrcurveto
          hintmask 10100000
          9 45 -24 44 -41 18 89 142 rcurveline
          -99 hlineto
          -112 -180 -6 -10 -5 -11 -2 -12 rlinecurve
          hintmask 01100000
          -9 -53 34 -51 52 -10 rrcurveto
          224 hmoveto
          53 -9 51 34 10 53 rrcurveto
          hintmask 10100000
          8 45 -24 44 -40 18 89 142 rcurveline
          -99 hlineto
          -112 -180 -6 -10 -5 -11 -2 -12 rlinecurve
          hintmask 01100000
          -9 -53 34 -51 52 -10 rrcurveto
          endchar
        </CharString>
        <CharString name="quotedblright">
          -104 351 329 hstem
          66 449 vstem
          165 351 rmoveto
          113 180 6 10 4 11 3 12 rlinecurve
          13 52 -38 52 -53 10 -53 10 -51 -34 -10 -53 -9 -46 25 -44 40 -18 -89 -142 rcurveline
          224 hmoveto
          99 hlineto
          112 180 6 10 5 11 2 12 rlinecurve
          9 53 -34 51 -53 10 -53 10 -50 -34 -10 -53 -9 -46 25 -44 39 -18 rrcurveto
          endchar
        </CharString>
        <CharString name="quoteleft">
          -328 668 -20 hstem
          67 225 vstem
          145 341 rmoveto
          53 -9 51 34 10 53 9 45 -24 44 -41 18 89 142 rcurveline
          -99 hlineto
          -112 -180 -6 -10 -5 -11 -2 -12 rlinecurve
          -9 -53 34 -51 52 -10 rrcurveto
          endchar
        </CharString>
        <CharString name="quoteright">
          -327 351 329 hstem
          66 228 vstem
          165 351 rmoveto
          113 180 6 10 4 11 3 12 rlinecurve
          13 52 -38 52 -53 10 -53 10 -51 -34 -10 -53 -9 -46 25 -44 40 -18 -89 -142 rcurveline
          endchar
        </CharString>
        <CharString name="quotesinglbase">
          -327 18 -21 hstem
          -40 228 vstem
          59 -145 rmoveto
          113 180 6 10 4 11 3 12 rlinecurve
          13 52 -38 52 -53 10 -53 10 -51 -35 -10 -53 -9 -45 25 -44 40 -18 -89 -142 rcurveline
          endchar
        </CharString>
        <CharString name="quotesingle">
          -351 434 234 hstem
          96 128 vstem
          89 668 rmoveto
          14 -234 rlineto
          114 hlineto
          14 234 rlineto
          endchar
        </CharString>
        <CharString name="r">
          -218 21 -21 361 135 -135 149 hstemhm
          -20 423 hintmask 11010000
          136 hmoveto
          49 231 rlineto
          82 17 36 48 87 hhcurveto
          14 15 -1 -2 17 hvcurveto
          hintmask 10110000
          32 152 rlineto
          -7 -16 1 -1 -8 hvcurveto
          -82 -1 -40 -39 -35 -61 rrcurveto
          hintmask 11010000
          -7 87 rlineto
          -123 hlineto
          -105 -496 rlineto
          endchar
        </CharString>
        <CharString name="racute">
          -218 21 -21 361 135 -135 149 64 153 hstemhm
          -20 458 hintmask 11011000
          -20 hmoveto
          156 hlineto
          49 231 rlineto
          82 17 36 48 87 hhcurveto
          14 15 -1 -2 17 hvcurveto
          hintmask 10111000
          32 152 rlineto
          -7 -16 1 -1 -8 hvcurveto
          -82 -1 -40 -39 -35 -61 rrcurveto
          hintmask 11011000
          -7 87 rlineto
          -123 hlineto
          242 78 rmoveto
          0 84 49 6 5 vhcurveto
          24 20 4 34 -20 24 rrcurveto
          14 -11 -16 7 -17 hhcurveto
          -12 -12 -4 -8 -10 hvcurveto
          -2 -1 -141 -140 0 vvcurveto
          endchar
        </CharString>
        <CharString name="radical">
          6 93 132 443 -20 hstem
          19 627 vstem
          502 668 rmoveto
          -170 -639 -80 196 rlineto
          -233 -132 142 hlineto
          110 -255 rlineto
          156 hlineto
          219 830 rlineto
          endchar
        </CharString>
        <CharString name="rcaron">
          -218 21 -21 361 135 -135 149 58 152 hstemhm
          -20 529 hintmask 11011000
          -20 hmoveto
          156 hlineto
          49 231 rlineto
          82 17 36 48 87 hhcurveto
          14 15 -1 -2 17 hvcurveto
          hintmask 10111000
          32 152 rlineto
          -7 -16 1 -1 -8 hvcurveto
          -82 -1 -40 -39 -35 -61 rrcurveto
          hintmask 11011000
          -7 87 rlineto
          -123 hlineto
          22 224 rmoveto
          114 -127 rlineto
          -16 14 20 -9 20 hhcurveto
          16 15 5 10 13 hvcurveto
          190 137 rlineto
          -147 hlineto
          -84 -61 -56 61 rlineto
          endchar
        </CharString>
        <CharString name="registered">
          205 -12 69 243 75 78 76 81 69 hstem
          62 70 118 97 120 101 116 70 vstem
          62 334 rmoveto
          -191 155 -155 190 192 155 155 191 190 -155 155 -192 -190 -155 -155 -190 vhcurveto
          70 hmoveto
          152 124 124 151 153 124 -124 -152 -153 -124 -124 -153 -151 -124 124 153 vhcurveto
          118 -173 rmoveto
          97 139 32 hlineto
          101 -139 rlineto
          108 hlineto
          -107 149 rlineto
          69 19 18 44 42 vvcurveto
          92 -72 22 -95 vhcurveto
          -151 hlineto
          97 -76 rmoveto
          52 hlineto
          38 30 -7 -32 -32 -30 -7 -38 hvcurveto
          -52 hlineto
          endchar
        </CharString>
        <CharString name="ring">
          -308 535 86 94 85 hstem
          90 85 94 86 vstem
          222 535 rmoveto
          73 60 60 73 73 -60 59 -73 -73 -59 -59 -73 -73 59 -60 73 hvcurveto
          -47 133 rmoveto
          26 21 21 26 26 21 -21 -26 -26 -21 -21 -26 -26 -21 21 26 vhcurveto
          endchar
        </CharString>
        <CharString name="ring.case">
          -231 596 86 94 85 hstem
          142 85 94 86 vstem
          274 596 rmoveto
          73 60 60 73 73 -60 59 -73 -73 -59 -59 -73 -73 59 -60 73 hvcurveto
          -47 133 rmoveto
          26 21 21 26 26 21 -21 -26 -26 -21 -21 -26 -26 -21 21 26 vhcurveto
          endchar
        </CharString>
        <CharString name="s">
          -94 -13 109 303 111 hstem
          30 144 132 148 vstem
          -10 116 rmoveto
          -111 49 114 -18 76 hhcurveto
          138 87 66 103 hvcurveto
          165 -280 -37 78 vvcurveto
          17 20 20 47 47 37 -9 -35 14 vhcurveto
          132 45 rlineto
          84 -47 -85 26 -96 hhcurveto
          -121 -92 -66 -87 -177 266 31 10 -68 hvcurveto
          -28 4 -41 -19 -45 hhcurveto
          -45 -49 19 45 -10 hvcurveto
          endchar
        </CharString>
        <CharString name="sacute">
          -94 -13 109 303 111 hstem
          30 144 132 148 vstem
          -10 116 rmoveto
          -111 49 114 -18 76 hhcurveto
          138 87 66 103 hvcurveto
          165 -280 -37 78 vvcurveto
          17 20 20 47 47 37 -9 -35 14 vhcurveto
          132 45 rlineto
          84 -47 -85 26 -96 hhcurveto
          -121 -92 -66 -87 -177 266 31 10 -68 hvcurveto
          -28 4 -41 -19 -45 hhcurveto
          -45 -49 19 45 -10 hvcurveto
          133 414 rmoveto
          123 hlineto
          0 84 49 6 5 vhcurveto
          24 20 4 34 -20 24 rrcurveto
          14 -11 -16 7 -17 hhcurveto
          -12 -12 -4 -8 -10 hvcurveto
          -2 -1 -141 -140 0 vvcurveto
          endchar
        </CharString>
        <CharString name="scaron">
          -94 -13 109 303 111 58 152 hstem
          30 144 132 148 vstem
          -10 116 rmoveto
          -111 49 114 -18 76 hhcurveto
          138 87 66 103 hvcurveto
          165 -280 -37 78 vvcurveto
          17 20 20 47 47 37 -9 -35 14 vhcurveto
          132 45 rlineto
          84 -47 -85 26 -96 hhcurveto
          -121 -92 -66 -87 -177 266 31 10 -68 hvcurveto
          -28 4 -41 -19 -45 hhcurveto
          -45 -49 19 45 -10 hvcurveto
          110 433 rmoveto
          -16 14 20 -9 20 hhcurveto
          16 15 5 10 13 hvcurveto
          190 137 rlineto
          -147 hlineto
          -84 -61 -56 61 rlineto
          -115 hlineto
          endchar
        </CharString>
        <CharString name="scedilla">
          -94 -195 54 57 40 31 109 -83 -21 407 111 hstemhm
          30 144 33 91 8 148 hintmask 11011101
          hintmask 11011111
          166 -8 rmoveto
          -40 -49 -14 -17 15 -19 17 5 rlinecurve
          2 8 8 2 8 hhcurveto
          23 18 -11 -16 -2 hvcurveto
          -21 -2 -23 -9 -27 hhcurveto
          -20 -22 5 8 -18 hvcurveto
          -26 -50 rlineto
          -8 17 38 -9 41 hhcurveto
          60 66 19 64 7 hvcurveto
          5 53 -53 23 -59 -11 rrcurveto
          hintmask 11101111
          28 34 rlineto
          hintmask 11101101
          109 126 38 131 hvcurveto
          165 -280 -37 78 vvcurveto
          17 20 20 47 47 37 -9 -35 14 vhcurveto
          132 45 rlineto
          84 -47 -85 26 -96 hhcurveto
          -121 -92 -66 -87 -177 266 31 10 -68 hvcurveto
          -28 4 -41 -19 -45 hhcurveto
          -45 -49 19 45 -10 hvcurveto
          -130 -44 rlineto
          hintmask 11011111
          37 -83 73 -31 66 -10 rrcurveto
          endchar
        </CharString>
        <CharString name="section">
          -46 -174 120 617 116 hstemhm
          15 156 -24 152 -68 157 -23 161 hintmask 11010100
          -59 -49 rmoveto
          -81 21 80 -44 96 hhcurveto
          200 85 181 90 -48 hvcurveto
          117 42 34 65 67 vvcurveto
          77 -87 49 -32 25 vhcurveto
          -67 51 -43 22 2 30 rrcurveto
          25 2 33 13 33 hhcurveto
          29 29 -10 -21 7 hvcurveto
          139 46 rlineto
          76 -33 -80 25 -87 hhcurveto
          -186 -67 -149 -101 41 hvcurveto
          hintmask 11101000
          -80 -31 -64 -45 -92 vvcurveto
          -74 65 -43 32 -24 vhcurveto
          54 -41 65 -33 -41 vvcurveto
          -38 -40 -21 -39 -34 -33 16 36 -4 vhcurveto
          152 354 rmoveto
          0 71 -53 21 -15 vhcurveto
          56 -40 1 -35 -78 -32 -1 1 -81 61 -24 18 -46 35 12 46 69 14 rrcurveto
          endchar
        </CharString>
        <CharString name="semicolon">
          -327 18 -21 319 195 0 -20 hstemhm
          62 195 hintmask 10110000
          -40 -146 rmoveto
          99 hlineto
          113 180 6 10 4 11 3 13 rlinecurve
          12 53 -37 51 -53 10 -53 10 -51 -35 -10 -53 -9 -45 25 -44 40 -18 rrcurveto
          hintmask 11010000
          13 416 rmoveto
          -53 44 -44 53 54 44 44 53 54 -44 44 -54 vhcurveto
          hintmask 10110000
          -53 -44 -44 -54 hvcurveto
          endchar
        </CharString>
        <CharString name="seven">
          -48 21 -21 543 125 hstem
          13 580 vstem
          194 hmoveto
          373 543 26 125 rlineto
          -513 hlineto
          -27 -125 rlineto
          347 hlineto
          -387 -543 rlineto
          endchar
        </CharString>
        <CharString name="seven.tf">
          31 21 -21 543 125 hstem
          63 580 vstem
          244 hmoveto
          373 543 26 125 rlineto
          -513 hlineto
          -27 -125 rlineto
          347 hlineto
          -387 -543 rlineto
          endchar
        </CharString>
        <CharString name="six">
          20 -12 113 238 113 118 110 hstem
          43 150 214 155 vstem
          289 -12 rmoveto
          151 115 103 138 7 hvcurveto
          138 7 -100 85 -120 hhcurveto
          -60 -35 -17 -26 -34 hvcurveto
          97 13 49 64 70 hhcurveto
          37 25 -13 -22 15 hvcurveto
          138 48 rlineto
          57 -34 -64 40 -99 hhcurveto
          -200 -104 -171 -191 -20 hvcurveto
          -188 -20 69 -142 194 hhcurveto
          -96 239 rmoveto
          73 8 42 39 65 hhcurveto
          60 39 -36 -76 hvcurveto
          -72 -1 -49 -54 -64 hhcurveto
          -67 -41 54 72 8 hvcurveto
          endchar
        </CharString>
        <CharString name="six.tf">
          31 -12 113 238 113 118 110 hstem
          47 150 214 155 vstem
          293 -12 rmoveto
          151 115 103 138 7 hvcurveto
          138 7 -100 85 -120 hhcurveto
          -60 -35 -17 -26 -34 hvcurveto
          97 13 49 64 70 hhcurveto
          37 25 -13 -22 15 hvcurveto
          138 48 rlineto
          57 -34 -64 40 -99 hhcurveto
          -200 -104 -171 -191 -20 hvcurveto
          -188 -20 69 -142 194 hhcurveto
          -96 239 rmoveto
          73 8 42 39 65 hhcurveto
          60 39 -36 -76 hvcurveto
          -72 -1 -49 -54 -64 hhcurveto
          -67 -41 54 72 8 hvcurveto
          endchar
        </CharString>
        <CharString name="slash">
          -167 21 -21 668 -20 hstem
          -55 554 vstem
          -55 hmoveto
          153 hlineto
          401 668 rlineto
          -151 hlineto
          endchar
        </CharString>
        <CharString name="space">
          -289 endchar
        </CharString>
        <CharString name="sterling">
          8 -12 125 -89 110 161 73 188 123 hstemhm
          115 156 hintmask 10111000
          33 -12 rmoveto
          hintmask 01111000
          32 65 48 4 29 hhcurveto
          hintmask 10111000
          66 56 -36 70 hhcurveto
          65 52 12 23 51 hvcurveto
          -18 121 rlineto
          -20 -38 -36 -11 -36 hhcurveto
          hintmask 01111000
          -42 -46 21 -50 hhcurveto
          -28 -29 -1 -16 -31 hvcurveto
          100 56 44 74 -9 48 rrcurveto
          127 hlineto
          15 73 rlineto
          -160 hlineto
          125 -55 32 63 99 hhcurveto
          49 33 -18 -51 29 hvcurveto
          147 50 rlineto
          93 -44 -83 49 -117 hhcurveto
          -123 -132 -51 -121 -18 hvcurveto
          -7 -50 13 -48 12 -41 rrcurveto
          -75 hlineto
          -15 -73 rlineto
          113 hlineto
          12 -53 -41 -84 -125 -54 rrcurveto
          endchar
        </CharString>
        <CharString name="summation">
          184 -162 128 574 128 hstem
          113 535 vstem
          113 668 rmoveto
          -128 vlineto
          237 -286 -237 -288 rlineto
          -128 535 128 -365 vlineto
          239 288 -239 286 rlineto
          365 128 hlineto
          endchar
        </CharString>
        <CharString name="t">
          -218 0 124 256 116 hstem
          50 167 vstem
          28 380 rmoveto
          78 hlineto
          -51 -240 rlineto
          -106 -23 59 -34 102 hhcurveto
          96 hlineto
          26 124 rlineto
          -43 hlineto
          -65 6 29 52 11 hvcurveto
          37 175 rlineto
          109 hlineto
          24 116 rlineto
          -108 hlineto
          26 124 rlineto
          -155 hlineto
          -26 -124 rlineto
          -78 hlineto
          endchar
        </CharString>
        <CharString name="tcaron">
          -218 0 124 256 116 57 67 hstem
          50 167 vstem
          261 380 rmoveto
          109 hlineto
          24 116 rlineto
          -108 hlineto
          26 124 rlineto
          -155 hlineto
          -26 -124 rlineto
          -78 hlineto
          -25 -116 rlineto
          78 hlineto
          -51 -240 rlineto
          -106 -23 59 -34 102 hhcurveto
          96 hlineto
          26 124 rlineto
          -43 hlineto
          -65 6 29 52 11 hvcurveto
          204 348 rmoveto
          72 110 rlineto
          4 6 2 9 10 vvcurveto
          25 -18 32 -36 -21 -24 -12 -26 -9 vhcurveto
          -53 -154 rlineto
          endchar
        </CharString>
        <CharString name="thorn">
          -19 -12 119 285 119 157 -20 hstem
          394 158 vstem
          102 -161 rmoveto
          50 236 rlineto
          -54 20 63 -33 53 hhcurveto
          164 100 152 166 164 -102 41 -73 -55 -57 -23 -54 -37 hvcurveto
          49 234 rlineto
          -155 hlineto
          -176 -829 rlineto
          233 417 rmoveto
          94 20 48 42 60 hhcurveto
          54 33 -33 -86 -54 -26 -112 -106 -55 -48 53 96 20 hvcurveto
          endchar
        </CharString>
        <CharString name="three">
          10 -12 113 190 106 170 113 hstemhm
          381 158 -120 160 hintmask 11110000
          267 -12 rmoveto
          138 122 71 141 12 hvcurveto
          5 63 -24 55 -55 31 rrcurveto
          hintmask 11101000
          61 24 53 44 96 vvcurveto
          107 -107 60 -128 -113 -96 -35 -110 -58 vhcurveto
          127 -50 rlineto
          63 17 51 19 54 hhcurveto
          50 41 -25 -50 2 hvcurveto
          -69 3 -81 -26 -114 hhcurveto
          -22 -106 rlineto
          hintmask 11110000
          78 98 -13 -88 -55 -52 -34 -61 -52 -50 24 65 -11 hvcurveto
          -149 -50 rlineto
          -118 46 103 -34 112 hhcurveto
          endchar
        </CharString>
        <CharString name="three.tf">
          31 -12 113 190 106 170 113 hstemhm
          400 158 -120 160 hintmask 11110000
          286 -12 rmoveto
          138 122 71 141 12 hvcurveto
          5 63 -24 55 -55 31 rrcurveto
          hintmask 11101000
          61 24 53 44 96 vvcurveto
          107 -107 60 -128 -113 -96 -35 -110 -58 vhcurveto
          127 -50 rlineto
          63 17 51 19 54 hhcurveto
          50 41 -25 -50 2 hvcurveto
          -69 3 -81 -26 -114 hhcurveto
          -22 -106 rlineto
          hintmask 11110000
          78 98 -13 -88 -55 -52 -34 -61 -52 -50 24 65 -11 hvcurveto
          -149 -50 rlineto
          -118 46 103 -34 112 hhcurveto
          endchar
        </CharString>
        <CharString name="threequarters">
          349 0 161 -86 86 96 118 -87 76 80 84 77 74 -12 -20 hstemhm
          282 104 -85 104 hintmask 1010101010000000
          198 hmoveto
          127 hlineto
          468 667 rlineto
          -127 hlineto
          hintmask 0110110010000000
          -167 -592 rmoveto
          191 hlineto
          hintmask 1010110010000000
          -16 -75 rlineto
          104 hlineto
          hintmask 0110110010000000
          16 75 rlineto
          57 hlineto
          18 86 rlineto
          -57 hlineto
          46 214 rlineto
          -114 hlineto
          -229 -223 rlineto
          -440 218 rmoveto
          hintmask 1001110100000000
          -54 31 57 -28 67 hhcurveto
          78 67 37 72 11 hvcurveto
          6 44 -22 35 -31 14 rrcurveto
          hintmask 1010110010000000
          38 12 26 31 2 42 rrcurveto
          69 3 -64 35 -81 hhcurveto
          -74 -47 -26 -53 -31 hvcurveto
          83 -32 rlineto
          31 14 23 6 24 hhcurveto
          23 27 -12 -25 -4 hvcurveto
          -27 -3 -28 -13 -42 hhcurveto
          -15 hlineto
          -18 -84 rlineto
          15 hlineto
          hintmask 1001110100000000
          49 25 -11 -30 -2 hvcurveto
          -21 -1 -21 -18 -29 hhcurveto
          -28 -21 13 26 -9 hvcurveto
          hintmask 1010110010000000
          556 -146 rmoveto
          -20 -96 rlineto
          -79 hlineto
          endchar
        </CharString>
        <CharString name="threesuperior">
          -184 396 76 39 -20 61 84 77 75 hstemhm
          305 104 -85 104 hintmask 11110100
          253 396 rmoveto
          hintmask 11111000
          78 67 36 73 11 hvcurveto
          7 44 -23 35 -31 15 rrcurveto
          hintmask 11110100
          38 12 26 30 2 42 rrcurveto
          69 3 -64 36 -81 hhcurveto
          -74 -47 -27 -52 -31 hvcurveto
          83 -33 rlineto
          31 14 23 6 24 hhcurveto
          23 27 -12 -25 -4 hvcurveto
          -27 -3 -28 -13 -42 hhcurveto
          hintmask 11111000
          -15 hlineto
          -18 -84 rlineto
          15 hlineto
          49 25 -11 -30 -2 hvcurveto
          -21 -1 -21 -18 -29 hhcurveto
          -28 -21 13 26 -9 hvcurveto
          -98 -33 rlineto
          hintmask 11110100
          -54 31 57 -28 67 hhcurveto
          endchar
        </CharString>
        <CharString name="tilde">
          -148 568 80 -41 82 hstemhm
          89 402 hintmask 01100000
          89 574 rmoveto
          89 hlineto
          23 14 15 10 22 hhcurveto
          hintmask 10100000
          51 14 -36 -3 68 hvcurveto
          70 -3 35 37 15 21 26 36 -32 40 -35 -11 rrcurveto
          -9 -31 -3 -31 -43 hhcurveto
          hintmask 01100000
          -40 -20 41 -79 hhcurveto
          -67 -51 -57 -58 -18 hvcurveto
          endchar
        </CharString>
        <CharString name="tilde.case">
          -226 725 80 -41 82 hstemhm
          84 402 hintmask 01100000
          84 731 rmoveto
          89 hlineto
          23 14 15 10 22 hhcurveto
          hintmask 10100000
          51 14 -36 -3 68 hvcurveto
          70 -3 35 37 15 21 26 36 -32 40 -35 -11 rrcurveto
          -9 -31 -3 -31 -43 hhcurveto
          hintmask 01100000
          -40 -20 41 -79 hhcurveto
          -67 -51 -57 -58 -18 hvcurveto
          endchar
        </CharString>
        <CharString name="trademark">
          404 575 93 hstem
          234 109 144 107 265 107 vstem
          487 301 rmoveto
          107 257 hlineto
          84 -257 rlineto
          97 hlineto
          84 257 rlineto
          -257 107 367 -173 vlineto
          -67 -236 -66 236 rlineto
          -173 hlineto
          -374 -93 rmoveto
          121 -274 109 274 120 93 -350 hlineto
          endchar
        </CharString>
        <CharString name="two">
          -22 0 125 443 112 hstem
          -35 613 vstem
          478 hmoveto
          26 125 rlineto
          -300 hlineto
          200 98 166 124 8 144 rrcurveto
          124 7 -112 65 -123 hhcurveto
          -103 -112 -46 -95 -54 hvcurveto
          127 -50 rlineto
          55 32 50 24 44 hhcurveto
          42 36 -22 -39 7 hvcurveto
          20 -113 -182 -132 -266 -137 -26 -125 rcurveline
          endchar
        </CharString>
        <CharString name="two.tf">
          31 0 125 443 112 hstem
          -6 613 vstem
          507 hmoveto
          26 125 rlineto
          -300 hlineto
          200 98 166 124 8 144 rrcurveto
          124 7 -112 65 -123 hhcurveto
          -103 -112 -46 -95 -54 hvcurveto
          127 -50 rlineto
          55 32 50 24 44 hhcurveto
          42 36 -22 -39 7 hvcurveto
          20 -113 -182 -132 -266 -137 -26 -125 rcurveline
          endchar
        </CharString>
        <CharString name="twosuperior">
          -202 403 88 220 77 hstem
          321 106 vstem
          70 403 rmoveto
          300 hlineto
          18 88 rlineto
          -148 hlineto
          90 39 95 79 2 77 rrcurveto
          74 2 -62 28 -79 hhcurveto
          -75 -52 -28 -60 -29 hvcurveto
          84 -33 rlineto
          30 11 20 14 30 hhcurveto
          24 23 -13 -28 -3 hvcurveto
          -7 -64 -124 -66 -103 -56 rrcurveto
          endchar
        </CharString>
        <CharString name="u">
          -31 -12 118 -106 106 390 -20 hstemhm
          17 162 hintmask 10110000
          159 -12 rmoveto
          75 54 31 45 28 hvcurveto
          hintmask 01110000
          5 -64 rlineto
          135 hlineto
          105 496 rlineto
          -155 hlineto
          -56 -262 rlineto
          hintmask 10110000
          -91 -20 -47 -37 -52 hhcurveto
          -69 17 93 36 7 hvcurveto
          55 261 rlineto
          -155 hlineto
          -59 -276 rlineto
          -106 -23 5 -126 150 hhcurveto
          endchar
        </CharString>
        <CharString name="uacute">
          -31 -12 118 -106 106 390 -20 98 153 hstemhm
          17 162 hintmask 10111000
          159 -12 rmoveto
          75 54 31 45 28 hvcurveto
          hintmask 01111000
          5 -64 rlineto
          135 hlineto
          105 496 rlineto
          -155 hlineto
          -56 -262 rlineto
          hintmask 10111000
          -91 -20 -47 -37 -52 hhcurveto
          -69 17 93 36 7 hvcurveto
          55 261 rlineto
          -155 hlineto
          -59 -276 rlineto
          -106 -23 5 -126 150 hhcurveto
          239 586 rmoveto
          0 84 49 6 5 vhcurveto
          24 20 4 34 -20 24 rrcurveto
          14 -11 -16 7 -17 hhcurveto
          -12 -12 -4 -8 -10 hvcurveto
          -2 -1 -141 -140 0 vvcurveto
          endchar
        </CharString>
        <CharString name="ucircumflex">
          -31 -12 118 -106 106 390 -20 98 152 hstemhm
          17 162 hintmask 10111000
          159 -12 rmoveto
          75 54 31 45 28 hvcurveto
          hintmask 01111000
          5 -64 rlineto
          135 hlineto
          105 496 rlineto
          -155 hlineto
          -56 -262 rlineto
          hintmask 10111000
          -91 -20 -47 -37 -52 hhcurveto
          -69 17 93 36 7 hvcurveto
          55 261 rlineto
          -155 hlineto
          -59 -276 rlineto
          -106 -23 5 -126 150 hhcurveto
          122 586 rmoveto
          84 61 59 -61 rlineto
          116 hlineto
          -118 127 rlineto
          17 -15 -20 8 -20 hhcurveto
          -16 -15 -5 -10 -13 hvcurveto
          -189 -137 rlineto
          endchar
        </CharString>
        <CharString name="udieresis">
          -31 -12 118 -106 106 390 -20 102 141 hstemhm
          17 162 11 141 53 140 hintmask 10110110
          hintmask 10111110
          159 -12 rmoveto
          75 54 31 45 28 hvcurveto
          hintmask 01110110
          5 -64 rlineto
          135 hlineto
          105 496 rlineto
          -155 hlineto
          -56 -262 rlineto
          hintmask 10111110
          -91 -20 -47 -37 -52 hhcurveto
          -69 17 93 36 7 hvcurveto
          55 261 rlineto
          -155 hlineto
          -59 -276 rlineto
          -106 -23 5 -126 150 hhcurveto
          hintmask 10110110
          31 660 rmoveto
          -39 32 -31 39 39 31 31 39 39 -31 32 -39 -39 -32 -32 -39 vhcurveto
          265 -70 rmoveto
          38 31 31 39 39 -31 32 -38 -39 -32 -32 -39 -39 32 -31 39 hvcurveto
          endchar
        </CharString>
        <CharString name="ugrave">
          -31 -12 118 -106 106 390 -20 98 153 hstemhm
          17 162 hintmask 10111000
          159 -12 rmoveto
          75 54 31 45 28 hvcurveto
          hintmask 01111000
          5 -64 rlineto
          135 hlineto
          105 496 rlineto
          -155 hlineto
          -56 -262 rlineto
          hintmask 10111000
          -91 -20 -47 -37 -52 hhcurveto
          -69 17 93 36 7 hvcurveto
          55 261 rlineto
          -155 hlineto
          -59 -276 rlineto
          -106 -23 5 -126 150 hhcurveto
          64 647 rmoveto
          17 -20 50 -41 0 vvcurveto
          108 hlineto
          0 -63 100 -25 32 vhcurveto
          14 -11 -16 7 -16 hhcurveto
          -12 -13 -4 -9 -10 hvcurveto
          -24 -20 -4 -34 19 -25 rrcurveto
          endchar
        </CharString>
        <CharString name="uhungarumlaut">
          -31 -12 118 -106 106 390 -20 96 154 hstemhm
          17 162 hintmask 10111000
          159 -12 rmoveto
          75 54 31 45 28 hvcurveto
          hintmask 01111000
          5 -64 rlineto
          135 hlineto
          105 496 rlineto
          -155 hlineto
          -56 -262 rlineto
          hintmask 10111000
          -91 -20 -47 -37 -52 hhcurveto
          -69 17 93 36 7 hvcurveto
          55 261 rlineto
          -155 hlineto
          -59 -276 rlineto
          -106 -23 5 -126 150 hhcurveto
          -11 584 rmoveto
          123 hlineto
          0 84 50 6 4 vhcurveto
          25 17 3 38 -20 24 rrcurveto
          14 -11 -16 7 -16 hhcurveto
          -12 -13 -4 -9 -10 hvcurveto
          -2 -1 -141 -140 0 vvcurveto
          330 hmoveto
          0 84 50 6 4 vhcurveto
          25 17 3 38 -20 24 rrcurveto
          14 -11 -16 7 -16 hhcurveto
          -12 -13 -4 -9 -10 hvcurveto
          -2 -1 -140 -140 0 vvcurveto
          endchar
        </CharString>
        <CharString name="umacron">
          -31 -12 118 -106 106 390 -20 94 98 hstemhm
          17 162 hintmask 10111000
          159 -12 rmoveto
          75 54 31 45 28 hvcurveto
          hintmask 01111000
          5 -64 rlineto
          135 hlineto
          105 496 rlineto
          -155 hlineto
          -56 -262 rlineto
          hintmask 10111000
          -91 -20 -47 -37 -52 hhcurveto
          -69 17 93 36 7 hvcurveto
          55 261 rlineto
          -155 hlineto
          -59 -276 rlineto
          -106 -23 5 -126 150 hhcurveto
          21 582 rmoveto
          299 hlineto
          21 98 rlineto
          -299 hlineto
          endchar
        </CharString>
        <CharString name="underscore">
          -152 -128 128 hstem
          -30 410 vstem
          380 -128 rmoveto
          128 -410 -128 vlineto
          endchar
        </CharString>
        <CharString name="uni000D">
          -609 endchar
        </CharString>
        <CharString name="uni00A0">
          -289 endchar
        </CharString>
        <CharString name="uni0122">
          125 -251 45 194 130 -97 -21 250 128 172 130 hstemhm
          31 168 50 119 hintmask 00111100
          359 250 rmoveto
          150 hlineto
          -4 -19 rlineto
          hintmask 01011100
          -18 -85 -89 -35 -72 7 -92 9 -52 73 22 136 rrcurveto
          138 22 78 76 96 hhcurveto
          69 46 -37 -35 14 hvcurveto
          148 57 rlineto
          102 -43 -95 43 -117 hhcurveto
          -202 -147 -126 -218 -36 hvcurveto
          -226 -37 130 -122 152 hhcurveto
          95 71 28 58 56 hvcurveto
          hintmask 10111110
          6 -74 rlineto
          107 hlineto
          81 378 rlineto
          -312 hlineto
          -205 -629 rmoveto
          106 -5 70 47 11 66 7 41 -21 36 -49 21 -101 -40 rcurveline
          31 -7 17 -25 -3 -28 rrcurveto
          -42 -5 -43 -19 -63 hhcurveto
          endchar
        </CharString>
        <CharString name="uni0123">
          -14 -206 118 105 114 264 116 -15 -20 253 45 hstemhm
          7 158 85 119 hintmask 11011110
          444 496 rmoveto
          -34 -67 -69 140 -288 -30 -43 -281 rlinecurve
          -151 -23 97 -90 104 hhcurveto
          54 54 24 50 42 hvcurveto
          0 -14 -65 -4 -20 vhcurveto
          -24 -116 -163 1 -20 68 -134 -44 rcurveline
          51 -163 379 -30 68 296 rrcurveto
          26 119 75 359 0 vvcurveto
          -197 -233 rmoveto
          -98 -19 -54 -34 -60 hhcurveto
          -56 -37 51 84 13 hvcurveto
          hintmask 11101110
          89 13 55 40 61 hhcurveto
          60 41 -43 -89 -17 hvcurveto
          56 511 rmoveto
          -106 5 -70 -47 -11 -66 -7 -41 21 -36 49 -21 101 40 rcurveline
          -31 7 -17 25 3 28 rrcurveto
          42 5 43 19 63 hhcurveto
          endchar
        </CharString>
        <CharString name="uni0136">
          48 -251 45 227 -21 668 -20 hstemhm
          -23 738 -533 119 hintmask 11110000
          384 377 rmoveto
          331 291 rlineto
          -214 hlineto
          -272 -242 50 242 rlineto
          -160 hlineto
          -142 -668 rlineto
          161 hlineto
          42 197 90 80 141 -277 rlineto
          166 hlineto
          -463 -251 rmoveto
          hintmask 11101000
          106 -5 70 47 11 66 7 41 -21 36 -49 21 -101 -40 rcurveline
          31 -7 17 -25 -3 -28 rrcurveto
          -42 -5 -43 -19 -63 hhcurveto
          endchar
        </CharString>
        <CharString name="uni0137">
          -46 -251 45 227 -21 496 -20 192 -20 hstemhm
          -20 607 -435 119 hintmask 11111000
          587 496 rmoveto
          -198 hlineto
          -185 -169 73 341 rlineto
          -155 hlineto
          -142 -668 rlineto
          156 hlineto
          26 124 68 60 95 -184 rlineto
          163 hlineto
          -145 283 rlineto
          -259 -534 rmoveto
          hintmask 11110100
          106 -5 70 47 11 66 7 41 -21 36 -49 21 -101 -40 rcurveline
          31 -7 17 -25 -3 -28 rrcurveto
          -42 -5 -43 -19 -63 hhcurveto
          endchar
        </CharString>
        <CharString name="uni013B">
          -66 -252 45 207 139 529 -20 hstemhm
          -23 511 -295 119 hintmask 11110000
          168 139 rmoveto
          111 529 rlineto
          -160 hlineto
          -142 -668 rlineto
          481 hlineto
          30 139 rlineto
          -363 -391 rmoveto
          hintmask 11101000
          106 -5 70 47 11 66 7 41 -21 36 -49 21 -101 -40 rcurveline
          31 -7 17 -25 -3 -28 rrcurveto
          -42 -5 -43 -19 -63 hhcurveto
          endchar
        </CharString>
        <CharString name="uni013C">
          -291 -252 45 207 124 544 -20 hstemhm
          5 168 -138 119 hintmask 11110000
          180 204 rmoveto
          98 464 rlineto
          -156 hlineto
          -112 -528 rlineto
          -106 -22 58 -34 102 hhcurveto
          97 hlineto
          26 124 rlineto
          -43 hlineto
          -66 7 28 52 11 hvcurveto
          -213 -456 rmoveto
          hintmask 11101000
          106 -5 70 47 11 66 7 41 -21 36 -49 21 -101 -40 rcurveline
          31 -7 17 -25 -3 -28 rrcurveto
          -42 -5 -43 -19 -63 hhcurveto
          endchar
        </CharString>
        <CharString name="uni0145">
          106 -251 45 227 -21 668 -20 hstemhm
          -23 760 -522 119 hintmask 11110000
          396 hmoveto
          199 hlineto
          142 668 rlineto
          -155 hlineto
          -104 -485 -160 485 rlineto
          -199 hlineto
          -142 -668 rlineto
          156 hlineto
          103 485 rlineto
          -89 -736 rmoveto
          hintmask 11101000
          106 -5 70 47 11 66 7 41 -21 36 -49 21 -101 -40 rcurveline
          31 -7 17 -25 -3 -28 rrcurveto
          -42 -5 -43 -19 -63 hhcurveto
          endchar
        </CharString>
        <CharString name="uni0146">
          -28 -251 45 227 -21 392 104 -104 118 hstemhm
          155 119 93 162 hintmask 11100100
          hintmask 11010100
          397 510 rmoveto
          -88 -55 -40 -38 -28 hvcurveto
          hintmask 11100100
          -5 64 rlineto
          -136 hlineto
          -105 -496 rlineto
          156 hlineto
          54 254 rlineto
          91 19 41 47 62 hhcurveto
          52 15 -37 -92 -20 hvcurveto
          -56 -263 rlineto
          156 hlineto
          60 281 rlineto
          hintmask 11010100
          164 35 -60 65 -97 hhcurveto
          hintmask 11101100
          -310 -761 rmoveto
          106 -5 70 47 11 66 7 41 -21 36 -49 21 -101 -40 rcurveline
          31 -7 17 -25 -3 -28 rrcurveto
          -42 -5 -43 -19 -63 hhcurveto
          endchar
        </CharString>
        <CharString name="uni0162">
          8 -251 45 227 -21 529 139 hstemhm
          57 616 -483 119 hintmask 11110000
          87 668 rmoveto
          -30 -139 rlineto
          213 hlineto
          -112 -529 rlineto
          161 hlineto
          111 529 rlineto
          214 hlineto
          29 139 rlineto
          -551 -919 rmoveto
          hintmask 11101000
          106 -5 70 47 11 66 7 41 -21 36 -49 21 -101 -40 rcurveline
          31 -7 17 -25 -3 -28 rrcurveto
          -42 -5 -43 -19 -63 hhcurveto
          endchar
        </CharString>
        <CharString name="uni0163">
          -218 -251 45 206 124 256 116 hstemhm
          50 167 -138 119 hintmask 11110000
          261 380 rmoveto
          109 hlineto
          24 116 rlineto
          -108 hlineto
          26 124 rlineto
          -155 hlineto
          -26 -124 rlineto
          -78 hlineto
          -25 -116 rlineto
          78 hlineto
          -51 -240 rlineto
          -106 -23 59 -34 102 hhcurveto
          96 hlineto
          26 124 rlineto
          -43 hlineto
          -65 6 29 52 11 hvcurveto
          -213 -456 rmoveto
          hintmask 11101000
          106 -5 70 47 11 66 7 41 -21 36 -49 21 -101 -40 rcurveline
          31 -7 17 -25 -3 -28 rrcurveto
          -42 -5 -43 -19 -63 hhcurveto
          endchar
        </CharString>
        <CharString name="uni0218">
          33 -251 45 194 126 437 129 hstem
          202 119 103 163 vstem
          224 492 rmoveto
          35 37 24 68 49 56 -21 -47 17 vhcurveto
          155 52 rlineto
          108 -56 -110 37 -99 hhcurveto
          -131 -132 -55 -121 -15 hvcurveto
          -32 -258 393 56 -123 vvcurveto
          -86 -231 -11 -28 127 vhcurveto
          -155 -52 rlineto
          -106 41 110 -63 145 hhcurveto
          139 131 67 132 11 hvcurveto
          21 246 -384 -68 127 vvcurveto
          -90 -743 rmoveto
          106 -5 70 47 11 66 7 41 -21 36 -49 21 -101 -40 rcurveline
          31 -7 17 -25 -3 -28 rrcurveto
          -42 -5 -43 -19 -63 hhcurveto
          endchar
        </CharString>
        <CharString name="uni0219">
          -94 -251 45 193 109 303 111 hstemhm
          30 144 -20 119 33 148 hintmask 11110100
          174 362 rmoveto
          17 20 20 47 47 37 -9 -35 14 vhcurveto
          132 45 rlineto
          84 -47 -85 26 -96 hhcurveto
          -121 -92 -66 -87 -177 266 31 10 -68 hvcurveto
          8 -57 -174 -16 -20 90 -130 -44 rcurveline
          -111 49 114 -18 76 hhcurveto
          138 87 66 103 hvcurveto
          165 -280 -37 78 vvcurveto
          -88 -613 rmoveto
          hintmask 11101100
          106 -5 70 47 11 66 7 41 -21 36 -49 21 -101 -40 rcurveline
          31 -7 17 -25 -3 -28 rrcurveto
          -42 -5 -43 -19 -63 hhcurveto
          endchar
        </CharString>
        <CharString name="uni021A">
          8 -251 45 227 -21 529 139 hstemhm
          57 616 -483 119 hintmask 11110000
          87 668 rmoveto
          -30 -139 rlineto
          213 hlineto
          -112 -529 rlineto
          161 hlineto
          111 529 rlineto
          214 hlineto
          29 139 rlineto
          -551 -919 rmoveto
          hintmask 11101000
          106 -5 70 47 11 66 7 41 -21 36 -49 21 -101 -40 rcurveline
          31 -7 17 -25 -3 -28 rrcurveto
          -42 -5 -43 -19 -63 hhcurveto
          endchar
        </CharString>
        <CharString name="uni021B">
          -218 -251 45 206 124 256 116 hstemhm
          50 167 -128 119 hintmask 11110000
          261 380 rmoveto
          109 hlineto
          24 116 rlineto
          -108 hlineto
          26 124 rlineto
          -155 hlineto
          -26 -124 rlineto
          -78 hlineto
          -25 -116 rlineto
          78 hlineto
          -51 -240 rlineto
          -106 -23 59 -34 102 hhcurveto
          96 hlineto
          26 124 rlineto
          -43 hlineto
          -65 6 29 52 11 hvcurveto
          -203 -456 rmoveto
          hintmask 11101000
          106 -5 70 47 11 66 7 41 -21 36 -49 21 -101 -40 rcurveline
          31 -7 17 -25 -3 -28 rrcurveto
          -42 -5 -43 -19 -63 hhcurveto
          endchar
        </CharString>
        <CharString name="uni02C9">
          -236 550 98 hstem
          84 320 vstem
          383 550 rmoveto
          21 98 rlineto
          -299 hlineto
          -21 -98 rlineto
          endchar
        </CharString>
        <CharString name="uni0326">
          -329 -251 45 hstemhm
          -86 231 -120 119 hintmask 11000000
          -43 -251 rmoveto
          hintmask 10100000
          106 -5 70 47 11 66 7 41 -21 36 -49 21 -101 -40 rcurveline
          31 -7 17 -25 -3 -28 rrcurveto
          -42 -5 -43 -19 -63 hhcurveto
          endchar
        </CharString>
        <CharString name="uni0394">
          106 0 115 565 -20 hstem
          -29 633 vstem
          287 418 rmoveto
          128 -303 rlineto
          -256 hlineto
          128 565 rmoveto
          -316 -680 rlineto
          633 hlineto
          endchar
        </CharString>
        <CharString name="uni03A9">
          148 0 115 449 116 hstemhm
          60 121 16 131 50 131 15 122 hintmask 11100100
          60 hmoveto
          hintmask 11110100
          268 223 hlineto
          hintmask 11100100
          -83 12 -64 72 85 vvcurveto
          95 77 77 95 94 77 -77 -95 vhcurveto
          hintmask 11101100
          -85 -63 -72 -83 -12 vhcurveto
          -223 268 115 -137 24 vlineto
          hintmask 11100100
          82 52 55 92 103 vvcurveto
          162 -131 132 -162 -162 -131 -132 -162 vhcurveto
          hintmask 11110100
          -103 55 -92 82 -52 vhcurveto
          -24 -137 vlineto
          endchar
        </CharString>
        <CharString name="uni03BC">
          -32 0 106 -90 -21 500 -20 hstemhm
          -55 615 hintmask 01110000
          -55 -161 rmoveto
          156 hlineto
          42 201 rlineto
          -31 10 31 -14 33 hhcurveto
          36 39 17 31 18 hvcurveto
          hintmask 10110000
          4 -43 rlineto
          141 hlineto
          105 495 rlineto
          -156 hlineto
          -56 -264 -20 -94 -35 -35 -57 4 rlinecurve
          -46 3 -26 27 20 95 56 264 rcurveline
          -155 hlineto
          endchar
        </CharString>
        <CharString name="uni2113">
          -103 -12 122 463 107 hstem
          64 163 vstem
          -5 112 rmoveto
          74 45 rlineto
          -125 -24 75 -44 99 hhcurveto
          82 63 37 27 36 hvcurveto
          -38 89 rlineto
          -17 -27 -28 -14 -31 hhcurveto
          -42 -16 22 59 13 hvcurveto
          16 73 12 8 127 84 109 68 14 116 rlinecurve
          92 11 -59 48 -105 hhcurveto
          -112 -77 -63 -165 -35 hvcurveto
          -40 -187 -74 -47 rlineto
          252 155 rmoveto
          26 128 rlineto
          48 10 16 24 32 hhcurveto
          25 12 -17 -35 -8 hvcurveto
          -13 -56 -40 -55 -55 -34 rrcurveto
          endchar
        </CharString>
        <CharString name="uni2215">
          -127 21 -21 668 -20 hstem
          -55 594 vstem
          413 668 rmoveto
          -468 -668 rlineto
          127 hlineto
          467 668 rlineto
          endchar
        </CharString>
        <CharString name="uni2219">
          -328 157 194 hstem
          27 195 vstem
          27 255 rmoveto
          -54 44 -44 54 53 44 44 54 54 -44 42 -53 -54 -44 -42 -54 vhcurveto
          endchar
        </CharString>
</ttFont>
